<?xml version="1.0" encoding="utf-8"?>
<!-- Generator: Adobe Illustrator 25.2.0, SVG Export Plug-In . SVG Version: 6.00 Build 0)  -->
<svg version="1.1" id="レイヤー_2" xmlns="http://www.w3.org/2000/svg" xmlns:xlink="http://www.w3.org/1999/xlink" x="0px"
	 y="0px" viewBox="0 0 311.81 311.81" style="enable-background:new 0 0 311.81 311.81;" xml:space="preserve">
<style type="text/css">
	.st0{opacity:0.7;fill:none;stroke:#C9CACA;stroke-width:4;stroke-miterlimit:10;}
	.st1{opacity:0.7;}
	.st2{fill:none;stroke:#C9CACA;stroke-width:4;stroke-miterlimit:10;}
</style>
<g id="レイヤー_2_1_">
	<path class="st0" d="M291.96,28.35H19.85c-7.04,0-12.76-5.71-12.76-12.76l0,0c0-7.04,5.71-12.76,12.76-12.76h272.12
		c7.04,0,12.76,5.71,12.76,12.76l0,0C304.71,22.64,299,28.35,291.96,28.35z"/>
	<g class="st1">
		<circle class="st2" cx="118.11" cy="147.17" r="78.16"/>
		<polyline class="st2" points="58.87,253.61 180.94,253.61 194.24,225.33 210.69,278.92 240.44,162.47 261.96,214.37 282.84,98.54 
					"/>
		<line class="st2" x1="149.16" y1="75.42" x2="118.11" y2="147.17"/>
		<line class="st2" x1="195.85" y1="138.95" x2="118.11" y2="147.17"/>
		<line class="st2" x1="125.99" y1="224.94" x2="118.11" y2="147.17"/>
	</g>
</g>
</svg>
