<?xml version="1.0" encoding="utf-8"?>
<!-- Generator: Adobe Illustrator 25.2.0, SVG Export Plug-In . SVG Version: 6.00 Build 0)  -->
<svg version="1.1" id="レイヤー_1" xmlns="http://www.w3.org/2000/svg" xmlns:xlink="http://www.w3.org/1999/xlink" x="0px"
	 y="0px" viewBox="0 0 110 110" style="enable-background:new 0 0 110 110;" xml:space="preserve">
<style type="text/css">
	.st0{fill:url(#SVGID_1_);}
	.st1{fill:url(#SVGID_2_);}
	.st2{fill:url(#SVGID_3_);}
	.st3{fill:url(#SVGID_4_);}
	.st4{fill:#0D47FF;stroke:#0D47FF;stroke-width:2;stroke-miterlimit:10;}
</style>
<g>
	<linearGradient id="SVGID_1_" gradientUnits="userSpaceOnUse" x1="0" y1="16.665" x2="33.33" y2="16.665">
		<stop  offset="0" style="stop-color:#0D47FF"/>
		<stop  offset="1" style="stop-color:#0D47FF;stop-opacity:0.4"/>
	</linearGradient>
	<polygon class="st0" points="33.33,0 33.33,15.14 15.14,15.14 15.14,33.33 0,33.33 0,0 	"/>
</g>
<g>
	<linearGradient id="SVGID_2_" gradientUnits="userSpaceOnUse" x1="0" y1="93.335" x2="33.33" y2="93.335">
		<stop  offset="0" style="stop-color:#0D47FF"/>
		<stop  offset="1" style="stop-color:#0D47FF;stop-opacity:0.4"/>
	</linearGradient>
	<polygon class="st1" points="33.33,94.86 33.33,110 0,110 0,76.67 15.14,76.67 15.14,94.86 	"/>
</g>
<g>
	<linearGradient id="SVGID_3_" gradientUnits="userSpaceOnUse" x1="76.67" y1="16.665" x2="110" y2="16.665">
		<stop  offset="0" style="stop-color:#0D47FF"/>
		<stop  offset="1" style="stop-color:#0D47FF;stop-opacity:0.4"/>
	</linearGradient>
	<polygon class="st2" points="110,0 110,33.33 94.86,33.33 94.86,15.14 76.67,15.14 76.67,0 	"/>
</g>
<g>
	<linearGradient id="SVGID_4_" gradientUnits="userSpaceOnUse" x1="76.67" y1="93.335" x2="110" y2="93.335">
		<stop  offset="0" style="stop-color:#0D47FF"/>
		<stop  offset="1" style="stop-color:#0D47FF;stop-opacity:0.4"/>
	</linearGradient>
	<polygon class="st3" points="110,76.67 110,110 76.67,110 76.67,94.86 94.86,94.86 94.86,76.67 	"/>
</g>
<g>
	<path class="st4" d="M38.23,54.16h-2.64l-2.46-7.41h-7.95l-2.4,7.41h-2.55l7.56-22.86h2.88L38.23,54.16z M32.62,44.77l-2.25-6.78
		c-0.48-1.56-0.87-3-1.17-4.35h-0.09c-0.3,1.38-0.72,2.82-1.14,4.26l-2.28,6.87H32.62z"/>
	<path class="st4" d="M57.67,54.16h-2.49l-7.29-12.03c-1.53-2.55-3-5.1-4.11-7.62l-0.12,0.03c0.21,2.91,0.24,5.58,0.24,9.54v10.08
		h-2.34V31.3h2.61l7.38,12.03c1.62,2.73,2.94,5.1,3.99,7.47l0.06-0.03c-0.24-3.18-0.3-5.91-0.3-9.51V31.3h2.37V54.16z"/>
	<path class="st4" d="M79.12,54.16h-2.64l-2.46-7.41h-7.95l-2.4,7.41h-2.55l7.56-22.86h2.88L79.12,54.16z M73.51,44.77l-2.25-6.78
		c-0.48-1.56-0.87-3-1.17-4.35H70c-0.3,1.38-0.72,2.82-1.14,4.26l-2.28,6.87H73.51z"/>
	<path class="st4" d="M33.82,78.16H21.88V55.3h2.49v20.73h9.45V78.16z"/>
	<path class="st4" d="M51.79,55.3l-7.35,13.05v9.81h-2.49v-9.75L34.99,55.3h2.85l3.18,6.39c0.87,1.71,1.59,3.18,2.28,4.83h0.09
		c0.63-1.53,1.41-3.09,2.31-4.86L49,55.3H51.79z"/>
	<path class="st4" d="M64.6,58.12c-0.66-0.42-2.1-1.05-4.02-1.05c-3.18,0-4.38,1.95-4.38,3.6c0,2.25,1.38,3.39,4.44,4.68
		c3.69,1.56,5.58,3.45,5.58,6.72c0,3.63-2.64,6.42-7.56,6.42c-2.07,0-4.32-0.63-5.46-1.44l0.69-2.07c1.23,0.81,3.06,1.41,4.92,1.41
		c3.06,0,4.86-1.65,4.86-4.11c0-2.25-1.23-3.63-4.2-4.83c-3.45-1.29-5.79-3.3-5.79-6.45c0-3.48,2.82-6.03,6.99-6.03
		c2.16,0,3.81,0.54,4.68,1.08L64.6,58.12z"/>
	<path class="st4" d="M70.21,55.3h2.49v22.86h-2.49V55.3z"/>
	<path class="st4" d="M88.03,58.12c-0.66-0.42-2.1-1.05-4.02-1.05c-3.18,0-4.38,1.95-4.38,3.6c0,2.25,1.38,3.39,4.44,4.68
		c3.69,1.56,5.58,3.45,5.58,6.72c0,3.63-2.64,6.42-7.56,6.42c-2.07,0-4.32-0.63-5.46-1.44l0.69-2.07c1.23,0.81,3.06,1.41,4.92,1.41
		c3.06,0,4.86-1.65,4.86-4.11c0-2.25-1.23-3.63-4.2-4.83c-3.45-1.29-5.79-3.3-5.79-6.45c0-3.48,2.82-6.03,6.99-6.03
		c2.16,0,3.81,0.54,4.68,1.08L88.03,58.12z"/>
</g>
</svg>
