<?xml version="1.0" encoding="utf-8"?>
<!-- Generator: Adobe Illustrator 25.2.0, SVG Export Plug-In . SVG Version: 6.00 Build 0)  -->
<svg version="1.1" id="レイヤー_1" xmlns="http://www.w3.org/2000/svg" xmlns:xlink="http://www.w3.org/1999/xlink" x="0px"
	 y="0px" viewBox="0 0 110 110" style="enable-background:new 0 0 110 110;" xml:space="preserve">
<style type="text/css">
	.st0{fill:url(#SVGID_1_);}
	.st1{fill:url(#SVGID_2_);}
	.st2{fill:url(#SVGID_3_);}
	.st3{fill:url(#SVGID_4_);}
	.st4{fill:#FF00CF;stroke:#FF00CF;stroke-width:2;stroke-miterlimit:10;}
</style>
<g>
	<linearGradient id="SVGID_1_" gradientUnits="userSpaceOnUse" x1="0" y1="16.665" x2="33.33" y2="16.665">
		<stop  offset="0" style="stop-color:#FF00CF"/>
		<stop  offset="1" style="stop-color:#FF00CF;stop-opacity:0.4"/>
	</linearGradient>
	<polygon class="st0" points="33.33,0 33.33,15.14 15.14,15.14 15.14,33.33 0,33.33 0,0 	"/>
</g>
<g>
	<linearGradient id="SVGID_2_" gradientUnits="userSpaceOnUse" x1="0" y1="93.335" x2="33.33" y2="93.335">
		<stop  offset="0" style="stop-color:#FF00CF"/>
		<stop  offset="1" style="stop-color:#FF00CF;stop-opacity:0.4"/>
	</linearGradient>
	<polygon class="st1" points="33.33,94.86 33.33,110 0,110 0,76.67 15.14,76.67 15.14,94.86 	"/>
</g>
<g>
	<linearGradient id="SVGID_3_" gradientUnits="userSpaceOnUse" x1="76.67" y1="16.665" x2="110" y2="16.665">
		<stop  offset="0" style="stop-color:#FF00CF"/>
		<stop  offset="1" style="stop-color:#FF00CF;stop-opacity:0.4"/>
	</linearGradient>
	<polygon class="st2" points="110,0 110,33.33 94.86,33.33 94.86,15.14 76.67,15.14 76.67,0 	"/>
</g>
<g>
	<linearGradient id="SVGID_4_" gradientUnits="userSpaceOnUse" x1="76.67" y1="93.335" x2="110" y2="93.335">
		<stop  offset="0" style="stop-color:#FF00CF"/>
		<stop  offset="1" style="stop-color:#FF00CF;stop-opacity:0.4"/>
	</linearGradient>
	<polygon class="st3" points="110,76.67 110,110 76.67,110 76.67,94.86 94.86,94.86 94.86,76.67 	"/>
</g>
<g>
	<path class="st4" d="M29.15,54.18c2.16,0.51,4.71,2.31,4.71,5.76c0,2.04-0.78,3.48-1.83,4.5c-1.53,1.5-3.99,2.16-7.44,2.16
		c-1.89,0-3.3-0.15-4.23-0.24V43.89c1.26-0.27,3.06-0.48,4.92-0.48c2.82,0,4.68,0.54,6.03,1.68c1.08,0.93,1.71,2.25,1.71,3.96
		c0,2.25-1.53,4.2-3.87,5.04V54.18z M25.52,53.33c3.03,0,4.98-1.74,4.98-4.08v-0.03c0-2.7-1.98-3.87-5.1-3.87
		c-1.32,0-2.1,0.09-2.55,0.21v7.77H25.52z M22.85,64.46c0.57,0.12,1.38,0.15,2.43,0.15c3.15,0,5.97-1.23,5.97-4.68
		c0-3.42-2.97-4.68-6-4.68h-2.4V64.46z"/>
	<path class="st4" d="M54.11,66.41h-2.64L49.01,59h-7.95l-2.4,7.41h-2.55l7.56-22.86h2.88L54.11,66.41z M48.5,57.02l-2.25-6.78
		c-0.48-1.56-0.87-3-1.17-4.35h-0.09c-0.3,1.38-0.72,2.82-1.14,4.26l-2.28,6.87H48.5z"/>
	<path class="st4" d="M73.55,66.41h-2.49l-7.29-12.03c-1.53-2.55-3-5.1-4.11-7.62l-0.12,0.03c0.21,2.91,0.24,5.58,0.24,9.54v10.08
		h-2.34V43.56h2.61l7.38,12.03c1.62,2.73,2.94,5.1,3.99,7.47l0.06-0.03c-0.24-3.18-0.3-5.91-0.3-9.51v-9.96h2.37V66.41z"/>
	<path class="st4" d="M93.68,66.41h-2.94l-7.47-11.46l-2.13,2.49v8.97h-2.49V43.56h2.49v11.16h0.12c0.57-0.87,1.2-1.71,1.77-2.46
		l6.96-8.7h3.06l-8.04,9.72L93.68,66.41z"/>
</g>
</svg>
