<?xml version="1.0" encoding="utf-8"?>
<!-- Generator: Adobe Illustrator 25.2.0, SVG Export Plug-In . SVG Version: 6.00 Build 0)  -->
<svg version="1.1" id="レイヤー_2" xmlns="http://www.w3.org/2000/svg" xmlns:xlink="http://www.w3.org/1999/xlink" x="0px"
	 y="0px" viewBox="0 0 311.81 311.81" style="enable-background:new 0 0 311.81 311.81;" xml:space="preserve">
<style type="text/css">
	.st0{fill:none;stroke:#9FA0A0;stroke-width:4;stroke-miterlimit:10;}
</style>
<path class="st0" d="M291.97,28.35H19.84c-7.04,0-12.76-5.71-12.76-12.76v0c0-7.04,5.71-12.76,12.76-12.76h272.13
	c7.04,0,12.76,5.71,12.76,12.76v0C304.72,22.64,299.01,28.35,291.97,28.35z"/>
<g>
	<rect x="49.58" y="91.91" class="st0" width="212.66" height="156.33"/>
	<line class="st0" x1="155.91" y1="101.08" x2="155.91" y2="239.68"/>
	<line class="st0" x1="128.48" y1="101.08" x2="128.48" y2="239.68"/>
	<line class="st0" x1="101.06" y1="101.08" x2="101.06" y2="239.68"/>
	<line class="st0" x1="73.63" y1="101.08" x2="73.63" y2="239.68"/>
	<line class="st0" x1="184.18" y1="101.08" x2="184.18" y2="239.68"/>
	<line class="st0" x1="212.45" y1="101.08" x2="212.45" y2="239.68"/>
	<line class="st0" x1="240.72" y1="101.08" x2="240.72" y2="239.68"/>
	<line class="st0" x1="56.96" y1="170.08" x2="253.16" y2="170.38"/>
	<line class="st0" x1="56.99" y1="190.65" x2="253.2" y2="190.95"/>
	<line class="st0" x1="57.03" y1="211.22" x2="253.23" y2="211.52"/>
	<line class="st0" x1="57.06" y1="231.79" x2="253.26" y2="232.09"/>
	<line class="st0" x1="56.99" y1="149.51" x2="253.2" y2="149.81"/>
	<line class="st0" x1="57.03" y1="128.94" x2="253.23" y2="129.24"/>
	<line class="st0" x1="57.06" y1="108.37" x2="253.26" y2="108.67"/>
	<circle class="st0" cx="79.75" cy="86.52" r="11.39"/>
	<circle class="st0" cx="117.09" cy="86.52" r="11.39"/>
	<circle class="st0" cx="154.43" cy="86.52" r="11.39"/>
	<circle class="st0" cx="191.77" cy="86.52" r="11.39"/>
	<circle class="st0" cx="229.11" cy="86.52" r="11.39"/>
</g>
</svg>
