<?xml version="1.0" encoding="utf-8"?>
<!-- Generator: Adobe Illustrator 25.2.0, SVG Export Plug-In . SVG Version: 6.00 Build 0)  -->
<svg version="1.1" id="レイヤー_1" xmlns="http://www.w3.org/2000/svg" xmlns:xlink="http://www.w3.org/1999/xlink" x="0px"
	 y="0px" viewBox="0 0 110 110" style="enable-background:new 0 0 110 110;" xml:space="preserve">
<style type="text/css">
	.st0{fill:url(#SVGID_1_);}
	.st1{fill:url(#SVGID_2_);}
	.st2{fill:url(#SVGID_3_);}
	.st3{fill:url(#SVGID_4_);}
	.st4{fill:#FF00CF;stroke:#FF00CF;stroke-width:2;stroke-miterlimit:10;}
</style>
<g>
	<linearGradient id="SVGID_1_" gradientUnits="userSpaceOnUse" x1="0" y1="16.665" x2="33.33" y2="16.665">
		<stop  offset="0" style="stop-color:#FF00CF"/>
		<stop  offset="1" style="stop-color:#FF00CF;stop-opacity:0.4"/>
	</linearGradient>
	<polygon class="st0" points="33.33,0 33.33,15.14 15.14,15.14 15.14,33.33 0,33.33 0,0 	"/>
</g>
<g>
	<linearGradient id="SVGID_2_" gradientUnits="userSpaceOnUse" x1="0" y1="93.335" x2="33.33" y2="93.335">
		<stop  offset="0" style="stop-color:#FF00CF"/>
		<stop  offset="1" style="stop-color:#FF00CF;stop-opacity:0.4"/>
	</linearGradient>
	<polygon class="st1" points="33.33,94.86 33.33,110 0,110 0,76.67 15.14,76.67 15.14,94.86 	"/>
</g>
<g>
	<linearGradient id="SVGID_3_" gradientUnits="userSpaceOnUse" x1="76.67" y1="16.665" x2="110" y2="16.665">
		<stop  offset="0" style="stop-color:#FF00CF"/>
		<stop  offset="1" style="stop-color:#FF00CF;stop-opacity:0.4"/>
	</linearGradient>
	<polygon class="st2" points="110,0 110,33.33 94.86,33.33 94.86,15.14 76.67,15.14 76.67,0 	"/>
</g>
<g>
	<linearGradient id="SVGID_4_" gradientUnits="userSpaceOnUse" x1="76.67" y1="93.335" x2="110" y2="93.335">
		<stop  offset="0" style="stop-color:#FF00CF"/>
		<stop  offset="1" style="stop-color:#FF00CF;stop-opacity:0.4"/>
	</linearGradient>
	<polygon class="st3" points="110,76.67 110,110 76.67,110 76.67,94.86 94.86,94.86 94.86,76.67 	"/>
</g>
<g>
	<path class="st4" d="M35.65,65.74c-1.05,0.51-3.09,1.02-5.7,1.02c-5.88,0-10.62-3.81-10.62-11.55c0-7.38,4.59-11.97,11.28-11.97
		c2.73,0,4.32,0.57,5.04,0.93l-0.66,2.1c-1.05-0.51-2.52-0.93-4.32-0.93c-5.19,0-8.73,3.48-8.73,9.78c0,6,3.24,9.54,8.58,9.54
		c1.74,0,3.45-0.39,4.59-0.93L35.65,65.74z"/>
	<path class="st4" d="M55.63,66.43h-2.64l-2.46-7.41h-7.95l-2.4,7.41h-2.55l7.56-22.86h2.88L55.63,66.43z M50.02,57.04l-2.25-6.78
		c-0.48-1.56-0.87-3-1.17-4.35h-0.09c-0.3,1.38-0.72,2.82-1.14,4.26l-2.28,6.87H50.02z"/>
	<path class="st4" d="M69.16,46.39c-0.66-0.42-2.1-1.05-4.02-1.05c-3.18,0-4.38,1.95-4.38,3.6c0,2.25,1.38,3.39,4.44,4.68
		c3.69,1.56,5.58,3.45,5.58,6.72c0,3.63-2.64,6.42-7.56,6.42c-2.07,0-4.32-0.63-5.46-1.44l0.69-2.07c1.23,0.81,3.06,1.41,4.92,1.41
		c3.06,0,4.86-1.65,4.86-4.11c0-2.25-1.23-3.63-4.2-4.83c-3.45-1.29-5.79-3.3-5.79-6.45c0-3.48,2.82-6.03,6.99-6.03
		c2.16,0,3.81,0.54,4.68,1.08L69.16,46.39z"/>
	<path class="st4" d="M90.67,66.43h-2.49V55.51H77.26v10.92h-2.49V43.6h2.49v9.75h10.92V43.6h2.49V66.43z"/>
</g>
</svg>
