<?xml version="1.0" encoding="utf-8"?>
<!-- Generator: Adobe Illustrator 25.2.0, SVG Export Plug-In . SVG Version: 6.00 Build 0)  -->
<svg version="1.1" id="レイヤー_1" xmlns="http://www.w3.org/2000/svg" xmlns:xlink="http://www.w3.org/1999/xlink" x="0px"
	 y="0px" viewBox="0 0 110 110" style="enable-background:new 0 0 110 110;" xml:space="preserve">
<style type="text/css">
	.st0{fill:url(#SVGID_1_);}
	.st1{fill:url(#SVGID_2_);}
	.st2{fill:url(#SVGID_3_);}
	.st3{fill:url(#SVGID_4_);}
	.st4{fill:#FF00CF;stroke:#FF00CF;stroke-width:2;stroke-miterlimit:10;}
</style>
<g>
	<linearGradient id="SVGID_1_" gradientUnits="userSpaceOnUse" x1="0" y1="16.665" x2="33.33" y2="16.665">
		<stop  offset="0" style="stop-color:#FF00CF"/>
		<stop  offset="1" style="stop-color:#FF00CF;stop-opacity:0.4"/>
	</linearGradient>
	<polygon class="st0" points="33.33,0 33.33,15.14 15.14,15.14 15.14,33.33 0,33.33 0,0 	"/>
</g>
<g>
	<linearGradient id="SVGID_2_" gradientUnits="userSpaceOnUse" x1="0" y1="93.335" x2="33.33" y2="93.335">
		<stop  offset="0" style="stop-color:#FF00CF"/>
		<stop  offset="1" style="stop-color:#FF00CF;stop-opacity:0.4"/>
	</linearGradient>
	<polygon class="st1" points="33.33,94.86 33.33,110 0,110 0,76.67 15.14,76.67 15.14,94.86 	"/>
</g>
<g>
	<linearGradient id="SVGID_3_" gradientUnits="userSpaceOnUse" x1="76.67" y1="16.665" x2="110" y2="16.665">
		<stop  offset="0" style="stop-color:#FF00CF"/>
		<stop  offset="1" style="stop-color:#FF00CF;stop-opacity:0.4"/>
	</linearGradient>
	<polygon class="st2" points="110,0 110,33.33 94.86,33.33 94.86,15.14 76.67,15.14 76.67,0 	"/>
</g>
<g>
	<linearGradient id="SVGID_4_" gradientUnits="userSpaceOnUse" x1="76.67" y1="93.335" x2="110" y2="93.335">
		<stop  offset="0" style="stop-color:#FF00CF"/>
		<stop  offset="1" style="stop-color:#FF00CF;stop-opacity:0.4"/>
	</linearGradient>
	<polygon class="st3" points="110,76.67 110,110 76.67,110 76.67,94.86 94.86,94.86 94.86,76.67 	"/>
</g>
<g>
	<path class="st4" d="M24.11,65.74c-1.05,0.51-3.09,1.02-5.7,1.02c-5.88,0-10.62-3.81-10.62-11.55c0-7.38,4.59-11.97,11.28-11.97
		c2.73,0,4.32,0.57,5.04,0.93l-0.66,2.1c-1.05-0.51-2.52-0.93-4.32-0.93c-5.19,0-8.73,3.48-8.73,9.78c0,6,3.24,9.54,8.58,9.54
		c1.74,0,3.45-0.39,4.59-0.93L24.11,65.74z"/>
	<path class="st4" d="M36.66,55.48c1.77,0.57,2.82,2.28,3.36,4.77c0.72,3.3,1.23,5.31,1.68,6.18h-2.58
		c-0.36-0.66-0.87-2.67-1.47-5.52c-0.66-3.18-1.92-4.59-4.62-4.59h-2.79v10.11h-2.49V43.9c1.41-0.3,3.39-0.48,5.19-0.48
		c2.97,0,4.92,0.6,6.27,1.86c1.08,0.99,1.71,2.55,1.71,4.26c0,3.03-1.83,4.98-4.26,5.85V55.48z M33.17,54.4
		c3.18,0,5.22-1.8,5.22-4.56c0-3.39-2.55-4.44-5.34-4.44c-1.35,0-2.31,0.12-2.82,0.24v8.76H33.17z"/>
	<path class="st4" d="M57.08,66.43H45.02V43.57h11.55v2.1h-9.06v7.74h8.52v2.07h-8.52v8.85h9.57V66.43z"/>
	<path class="st4" d="M60.77,43.87c1.68-0.27,3.63-0.48,5.76-0.48c9.18,0,11.82,5.43,11.82,11.04c0,3.63-0.96,6.72-3.12,8.97
		c-2.01,2.07-5.34,3.21-9.51,3.21c-1.89,0-3.51-0.06-4.95-0.24V43.87z M63.26,64.45c0.75,0.12,1.83,0.15,2.91,0.15
		c6.18,0,9.57-3.51,9.57-10.05c0-5.94-3.18-9.15-9.12-9.15c-1.44,0-2.58,0.15-3.36,0.3V64.45z"/>
	<path class="st4" d="M82.13,43.57h2.49v22.86h-2.49V43.57z"/>
	<path class="st4" d="M103.13,45.7h-6.75v20.73h-2.49V45.7h-6.72v-2.1h15.96V45.7z"/>
</g>
</svg>
