<?xml version="1.0" encoding="utf-8"?>
<!-- Generator: Adobe Illustrator 25.2.0, SVG Export Plug-In . SVG Version: 6.00 Build 0)  -->
<svg version="1.1" id="レイヤー_2" xmlns="http://www.w3.org/2000/svg" xmlns:xlink="http://www.w3.org/1999/xlink" x="0px"
	 y="0px" viewBox="0 0 311.81 311.81" style="enable-background:new 0 0 311.81 311.81;" xml:space="preserve">
<style type="text/css">
	.st0{fill:none;stroke:#9FA0A0;stroke-width:4;stroke-miterlimit:10;}
	.st1{fill:none;stroke:#9FA0A0;stroke-width:4;stroke-miterlimit:10;enable-background:new    ;}
</style>
<g id="レイヤー_2_1_">
	<g>
		<rect x="58.17" y="64.23" class="st0" width="97.74" height="210.46"/>
		<rect x="173.75" y="175.65" class="st0" width="89.27" height="99.04"/>
		<rect x="70.47" y="242.11" class="st0" width="29.32" height="16.29"/>
		<rect x="112.17" y="214.09" class="st0" width="29.32" height="16.29"/>
		<rect x="112.17" y="161.31" class="st0" width="29.32" height="16.29"/>
		<rect x="112.17" y="108.53" class="st0" width="29.32" height="16.29"/>
		<rect x="70.47" y="188.68" class="st0" width="29.32" height="16.29"/>
		<rect x="70.47" y="135.25" class="st0" width="29.32" height="16.29"/>
		<rect x="70.47" y="81.82" class="st0" width="29.32" height="16.29"/>
		<rect x="185.48" y="246.02" class="st0" width="29.32" height="16.29"/>
		<rect x="223.59" y="217.02" class="st0" width="29.32" height="16.29"/>
		<rect x="185.48" y="191.94" class="st0" width="29.32" height="16.29"/>
	</g>
	<path class="st1" d="M291.97,2.83H19.84c-7.04,0-12.76,5.71-12.76,12.76l0,0c0,7.04,5.71,12.76,12.76,12.76h272.13
		c7.04,0,12.76-5.71,12.76-12.76l0,0C304.72,8.55,299.01,2.83,291.97,2.83z"/>
</g>
</svg>
