<?xml version="1.0" encoding="utf-8"?>
<!-- Generator: Adobe Illustrator 25.2.0, SVG Export Plug-In . SVG Version: 6.00 Build 0)  -->
<svg version="1.1" id="レイヤー_1" xmlns="http://www.w3.org/2000/svg" xmlns:xlink="http://www.w3.org/1999/xlink" x="0px"
	 y="0px" viewBox="0 0 110 110" style="enable-background:new 0 0 110 110;" xml:space="preserve">
<style type="text/css">
	.st0{fill:url(#SVGID_1_);}
	.st1{fill:url(#SVGID_2_);}
	.st2{fill:url(#SVGID_3_);}
	.st3{fill:url(#SVGID_4_);}
	.st4{fill:#00FFBC;stroke:#00FFBC;stroke-width:2;stroke-miterlimit:10;}
	.st5{font-family:'KozGoPr6N-Regular-90ms-RKSJ-H';}
	.st6{font-size:30px;}
</style>
<g>
	<linearGradient id="SVGID_1_" gradientUnits="userSpaceOnUse" x1="0" y1="16.665" x2="33.33" y2="16.665">
		<stop  offset="0" style="stop-color:#00FFBC"/>
		<stop  offset="1" style="stop-color:#00FFBC;stop-opacity:0.4"/>
	</linearGradient>
	<polygon class="st0" points="33.33,0 33.33,15.14 15.14,15.14 15.14,33.33 0,33.33 0,0 	"/>
</g>
<g>
	<linearGradient id="SVGID_2_" gradientUnits="userSpaceOnUse" x1="0" y1="93.335" x2="33.33" y2="93.335">
		<stop  offset="0" style="stop-color:#00FFBC"/>
		<stop  offset="1" style="stop-color:#00FFBC;stop-opacity:0.4"/>
	</linearGradient>
	<polygon class="st1" points="33.33,94.86 33.33,110 0,110 0,76.67 15.14,76.67 15.14,94.86 	"/>
</g>
<g>
	<linearGradient id="SVGID_3_" gradientUnits="userSpaceOnUse" x1="76.67" y1="16.665" x2="110" y2="16.665">
		<stop  offset="0" style="stop-color:#00FFBC"/>
		<stop  offset="1" style="stop-color:#00FFBC;stop-opacity:0.4"/>
	</linearGradient>
	<polygon class="st2" points="110,0 110,33.33 94.86,33.33 94.86,15.14 76.67,15.14 76.67,0 	"/>
</g>
<g>
	<linearGradient id="SVGID_4_" gradientUnits="userSpaceOnUse" x1="76.67" y1="93.335" x2="110" y2="93.335">
		<stop  offset="0" style="stop-color:#00FFBC"/>
		<stop  offset="1" style="stop-color:#00FFBC;stop-opacity:0.4"/>
	</linearGradient>
	<polygon class="st3" points="110,76.67 110,110 76.67,110 76.67,94.86 94.86,94.86 94.86,76.67 	"/>
</g>
<text transform="matrix(1 0 0 1 12.7916 66.8331)" class="st4 st5 st6">HOME</text>
</svg>
