<?xml version="1.0" encoding="utf-8"?>
<!-- Generator: Adobe Illustrator 25.2.0, SVG Export Plug-In . SVG Version: 6.00 Build 0)  -->
<svg version="1.1" id="レイヤー_1" xmlns="http://www.w3.org/2000/svg" xmlns:xlink="http://www.w3.org/1999/xlink" x="0px"
	 y="0px" viewBox="0 0 400 100" style="enable-background:new 0 0 400 100;" xml:space="preserve">
<style type="text/css">
	.st0{fill:#00FFBC;}
	.st1{fill:#FF00CF;}
	.st2{fill:#0D47FF;}
	.st3{fill:#10E9FF;}
</style>
<g>
	<path class="st0" d="M26.92,74.08V25.33h7.27v19.92l14.06-19.92h8.91L43.56,44.31l14.77,29.77h-8.44L38.4,50.88l-4.22,5.86v17.34
		H26.92z"/>
	<path class="st1" d="M60.67,73.84l12.19-48.28h8.44l11.95,48.28h-7.73L83.4,63.53H70.74l-2.11,10.31H60.67z M72.38,56.27h9.38
		l-4.69-20.16L72.38,56.27z"/>
	<path class="st2" d="M98.17,74.08V25.33h7.27v19.92l14.06-19.92h8.91l-13.59,18.98l14.77,29.77h-8.44l-11.48-23.2l-4.22,5.86v17.34
		H98.17z"/>
	<path class="st3" d="M133.79,73.84V25.56h26.25v7.27h-18.75v11.95h16.64v7.5h-16.64v14.3h19.22v7.27H133.79z"/>
	<path class="st1" d="M166.13,74.08V25.33h7.73v48.75H166.13z"/>
	<path class="st0" d="M180.67,74.08V25.33h17.58c3.44,0,6.25,1.09,8.44,3.28c2.34,2.34,3.52,5.47,3.52,9.38
		c0,3.28-1.25,6.17-3.75,8.67c-0.63,0.63-1.49,1.25-2.58,1.88c2.5,0.94,4.45,2.73,5.86,5.39c1.25,2.34,1.72,5.24,1.41,8.67
		c-0.31,3.28-1.49,5.94-3.52,7.97c-2.34,2.34-5.47,3.52-9.37,3.52H180.67z M187.7,44.55h9.38c1.56,0,2.97-0.62,4.22-1.88
		c0.94-0.94,1.41-2.34,1.41-4.22s-0.47-3.28-1.41-4.22c-1.25-1.25-2.66-1.88-4.22-1.88h-9.38V44.55z M187.7,66.81h10.08
		c1.56,0,2.89-0.55,3.98-1.64c1.09-1.09,1.64-2.89,1.64-5.39c0-2.5-0.63-4.37-1.88-5.63c-1.09-1.09-2.42-1.64-3.98-1.64h-9.84V66.81
		z"/>
	<path class="st2" d="M216.76,49.94c0-6.72,1.56-12.5,4.69-17.34c3.44-5,7.73-7.5,12.89-7.5c5.31,0,9.53,2.34,12.66,7.03
		c3.28,5,4.92,11.02,4.92,18.05c0,7.19-1.72,13.12-5.16,17.81c-3.13,4.22-7.27,6.33-12.42,6.33s-9.38-2.27-12.66-6.8
		S216.76,57.13,216.76,49.94z M224.96,47.59c-0.31,6.72,0.55,11.95,2.58,15.7c1.56,2.97,3.83,4.45,6.8,4.45
		c2.5,0,4.53-1.17,6.09-3.52c2.03-3.12,3.12-7.11,3.28-11.95c0.15-6.4-0.55-11.25-2.11-14.53c-1.88-3.9-4.14-5.86-6.8-5.86
		c-3.13,0-5.55,1.56-7.27,4.69C225.98,39.55,225.12,43.22,224.96,47.59z"/>
</g>
</svg>
