<?xml version="1.0" encoding="utf-8"?>
<!-- Generator: Adobe Illustrator 25.2.0, SVG Export Plug-In . SVG Version: 6.00 Build 0)  -->
<svg version="1.1" id="レイヤー_1" xmlns="http://www.w3.org/2000/svg" xmlns:xlink="http://www.w3.org/1999/xlink" x="0px"
	 y="0px" viewBox="0 0 400 100" style="enable-background:new 0 0 400 100;" xml:space="preserve">
<style type="text/css">
	.st0{fill:none;stroke:#FF00FF;stroke-width:3;stroke-miterlimit:10;}
	.st1{opacity:0.77;}
	.st2{fill:none;stroke:#FFFFFF;stroke-width:0.25;stroke-miterlimit:10;}
</style>
<g id="レイヤー_1_1_">
	<g>
		<path class="st0" d="M50.9,76.1c-3.1,0-7.4-2.8-13.1-8.4l-9-9.5v0.4l0,16.5c0,2.1-0.9,3.1-2.6,3.1c-1.1,0-2.1-0.5-2.8-1.6
			c-0.6-0.9-0.9-1.8-0.9-2.8c0-4.9,0.1-12.3,0.4-22.1s0.4-17.2,0.4-22.1c0-0.9,0.3-1.7,0.9-2.3s1.3-1,2.1-1c0.9,0,1.6,0.3,2.2,1
			c0.6,0.6,0.9,1.4,0.9,2.3c0,2-0.1,5.2-0.4,9.5c-0.2,4.2-0.4,7.3-0.3,9.6c2.7-2.7,5.8-6,9.2-10.1l8.7-10.5c0.7-0.8,1.5-1.2,2.3-1.2
			c0.8,0,1.5,0.3,2.2,1c0.6,0.6,0.9,1.4,0.9,2.3c0,1.4-2.6,5.1-7.8,11.1c-3.6,4.1-7.3,8.1-11.1,12.1c2.4,2.7,6.2,6.5,11.4,11.4
			l3.2,2.8c1.2,0.9,2.4,1.6,3.7,2.1c1.6,0.6,2.4,1.6,2.4,3.1c0,0.7-0.2,1.4-0.6,2.1C52.5,75.7,51.8,76.1,50.9,76.1z"/>
		<path class="st0" d="M92.2,75.8c-1.8,0-3.5-2.5-4.8-7.4c-0.5-1.9-1.2-5.2-2-9.9c-2.1,0.3-4.8,0.8-8.1,1.6l-8,1.7
			c-1,2.8-2.7,6.8-5.2,12.1c-0.7,1.2-1.5,1.8-2.6,1.8c-0.8,0-1.5-0.3-2.2-0.9c-0.6-0.6-1-1.4-1-2.3c0-1,1.5-4.8,4.6-11.5
			c-0.3-0.5-0.5-1.2-0.5-1.9c0-1.7,1-2.8,3-3.3c2.3-4.5,5.2-9.7,8.7-15.5c4.8-8,7.8-12,8.9-12c1.6,0,2.7,1.2,3.3,3.5l1.9,10.6
			l4.5,21.9l1.7,5c0.6,1.7,0.9,2.8,0.9,3.4c0,0.9-0.3,1.7-0.9,2.3C93.8,75.5,93,75.8,92.2,75.8z M81.6,39.7l-8.7,14.5
			c2.4-0.7,6.1-1.4,11.1-2.4L81.6,39.7z"/>
		<path class="st0" d="M135.2,76.1c-3.1,0-7.4-2.8-13.1-8.4l-9-9.5v0.4l0,16.5c0,2.1-0.9,3.1-2.6,3.1c-1.2,0-2.1-0.5-2.8-1.6
			c-0.6-0.9-0.8-1.8-0.8-2.8c0-4.9,0.1-12.3,0.4-22.1s0.4-17.2,0.4-22.1c0-0.9,0.3-1.7,0.9-2.3s1.3-1,2.1-1c0.9,0,1.6,0.3,2.2,1
			c0.6,0.6,0.9,1.4,0.9,2.3c0,2-0.1,5.2-0.4,9.5c-0.2,4.2-0.3,7.3-0.3,9.6c2.7-2.7,5.8-6,9.2-10.1l8.7-10.5c0.7-0.8,1.4-1.2,2.3-1.2
			c0.8,0,1.5,0.3,2.1,1c0.6,0.6,0.9,1.4,0.9,2.3c0,1.4-2.6,5.1-7.8,11.1c-3.6,4.1-7.3,8.1-11.1,12.1c2.4,2.7,6.2,6.5,11.4,11.4
			l3.2,2.8c1.1,0.9,2.4,1.6,3.7,2.1c1.6,0.6,2.4,1.6,2.4,3.1c0,0.7-0.2,1.4-0.6,2.1C136.7,75.7,136,76.1,135.2,76.1z"/>
		<path class="st0" d="M172.4,32.3c-0.3,0-0.6,0-0.9-0.2c-3.4-1-6.7-1.5-9.9-1.5c-1.6,0-3.5,0.2-5.4,0.5c-2,0.3-4.1,0.8-6.3,1.4
			c0.2,1.4,0.3,2.5,0.3,3.3c0,2.9-0.2,6.9-0.5,12.1l13.2-1.3c3.9-0.4,6.3-0.6,7.2-0.6s1.6,0.3,2.2,0.9c0.6,0.6,0.9,1.4,0.9,2.4
			c0,1.9-0.9,3-2.8,3.2l-7.2,0.7l-14,1.3c-0.1,1.5-0.1,2.9-0.2,4.3s-0.1,2.6-0.1,3.7c0,4.6,0.3,7.4,1,8.2c0.5,0.6,2.1,0.9,4.8,0.9
			c1.3,0,3.1,0,5.6-0.1s4.4-0.1,5.7-0.1c0.4,0,1-0.1,1.8-0.2s1.4-0.2,1.8-0.2c2.1,0,3.2,1.1,3.2,3.3c0,1.8-0.9,2.8-2.6,3.2
			c-1.9,0.4-6,0.6-12.3,0.6c-6.3,0-10.3-0.9-12-2.6c-1.9-1.9-2.9-6.2-2.9-12.9c0-1.3,0-2.8,0.1-4.4c0.1-1.6,0.1-3.3,0.2-5.2
			c-0.2-0.5-0.3-1-0.3-1.5c0-0.7,0.2-1.4,0.6-1.9c0.4-6.1,0.6-10.6,0.6-13.5c0-0.8-0.1-1.9-0.3-3.4c-0.2-1.5-0.3-2.6-0.3-3.4
			c0-2.5,1-3.8,3-3.8c0.9,0,1.6,0.3,2.2,0.9c2.4-0.7,4.7-1.2,6.9-1.5c2.1-0.3,4.2-0.5,6.1-0.5c4.9,0,8.8,0.6,11.7,1.8
			c1.4,0.6,2,1.6,2,3c0,0.8-0.3,1.6-0.8,2.2C174,32,173.3,32.3,172.4,32.3z"/>
		<path class="st0" d="M206.9,35.5c-1.3,0-2.9-0.1-4.9-0.4l-4.9-0.7c-0.5,6.1-0.7,12-0.7,17.5c0,1.5,0,3.3,0.1,5.5s0.1,4,0.1,5.5
			c0,2-0.1,3.8-0.2,5.4l9.5-0.1c0.9,0,1.6,0.3,2.1,0.9s0.9,1.4,0.9,2.3c0,0.9-0.3,1.7-0.9,2.3c-0.6,0.6-1.3,0.9-2.1,0.9
			c-1.1,0-2.8,0-5.1,0.1s-3.9,0.1-5.1,0.1c-1.3,0-3.3,0.2-6,0.6s-4.6,0.6-6,0.6c-0.9,0-1.6-0.3-2.1-0.9s-0.9-1.4-0.9-2.3
			s0.3-1.7,0.9-2.3c0.6-0.6,1.3-0.9,2.1-0.9c1.3,0,3.5-0.2,6.5-0.7c0.2-1.7,0.3-3.7,0.3-5.8c0-1.5-0.1-3.2-0.2-5.3
			c-0.1-2.1-0.2-3.9-0.2-5.3c0-4.9,0.3-10.9,0.9-18.2l-3.9,0.1l-3.9,0.1c-0.9,0-1.6-0.3-2.2-0.9c-0.6-0.6-0.9-1.4-0.9-2.3
			c0-2,0.9-3,2.8-3.2c1.6-0.2,4.7-0.3,9.2-0.3c4,0,9,0.5,15.1,1.4c1.8,0.3,2.7,1.4,2.7,3.4c0,1-0.3,1.8-1,2.4
			C208.3,35.3,207.6,35.5,206.9,35.5z"/>
		<path class="st0" d="M239.1,73.6c-4.5,1.8-10.3,2.8-17.4,2.8c-0.9,0-1.7-0.4-2.5-1.3c-0.8-0.8-1.2-1.7-1.2-2.6v-9.2
			c0-3,0.2-7.3,0.5-12.9c0.4-6,0.6-10.4,0.7-13.1c0-1.9,0.1-4.8,0.3-8.6c0.1-1,0.5-1.8,1-2.1c2.7-0.9,5.9-1.3,9.3-1.3
			c3.6,0,7,1.3,10.2,3.8c3.8,2.9,5.6,6.5,5.6,10.8c0,5.4-2,9.7-6.1,12.8c3,1.3,5.3,2.8,6.8,4.5s2.3,3.4,2.3,5.4c0,2.6-1.3,5-4,7.4
			C243,71.5,241.1,72.8,239.1,73.6z M233.4,57l-3.2-0.5c-0.3,0-0.7,0-1.2,0s-0.9,0-1.2,0c-1.1,0-2.3-0.1-3.5-0.3
			c-0.1,2.7-0.2,5-0.2,7.1v6.5c5.3-0.2,9.6-1,12.9-2.3c1.4-0.6,2.8-1.4,4.1-2.7c1.2-1.1,1.8-1.9,1.8-2.5c0-1-1.3-2.1-3.9-3.3
			C237.1,58.1,235.2,57.4,233.4,57z M230,31.7c-2.2,0-3.7,0.1-4.6,0.2l-0.1,5.5l-0.6,12.2c2.9,0.3,4.4,0.4,4.6,0.3
			c3-0.3,5.5-1.2,7.5-3c2.1-1.9,3.1-4.3,3.1-7.2c0-2-1.1-3.8-3.2-5.6S232.3,31.7,230,31.7z"/>
		<path class="st0" d="M276.1,76.8c-5.7,0-10.5-1.8-14.5-5.3c-4.2-3.8-6.3-8.7-6.3-14.7c0-7.3,2.1-13.9,6.2-19.8
			c4.6-6.6,10.4-9.9,17.3-9.9c6.6,0,11.6,1.6,14.8,4.7c3.4,3.2,5,8.4,5,15.3c0,7.3-1.9,13.8-5.7,19.7
			C288.7,73.4,283,76.8,276.1,76.8z M278.9,33.5c-4.9,0-9.1,2.6-12.5,7.7c-3.2,4.7-4.8,9.9-4.8,15.6c0,4.1,1.4,7.4,4.3,9.9
			c2.8,2.4,6.2,3.6,10.3,3.6c4.9,0,8.9-2.6,12.1-7.7c2.8-4.6,4.3-9.8,4.3-15.5c0-5-1.1-8.6-3.2-10.6
			C287.3,34.5,283.8,33.5,278.9,33.5z"/>
	</g>
</g>
<g id="レイヤー_2_1_">
	<g>
		
			<image style="overflow:visible;enable-background:new    ;" width="352" height="130" xlink:href="331DDDB4.png"  transform="matrix(1 0 0 1 -15 -14)">
		</image>
	</g>
</g>
<g id="レイヤー_3" class="st1">
	<g>
		<path class="st2" d="M50.9,76.1c-3.1,0-7.4-2.8-13.1-8.4l-9-9.5v0.4l0,16.5c0,2.1-0.9,3.1-2.6,3.1c-1.1,0-2.1-0.5-2.8-1.6
			c-0.6-0.9-0.9-1.8-0.9-2.8c0-4.9,0.1-12.3,0.4-22.1s0.4-17.2,0.4-22.1c0-0.9,0.3-1.7,0.9-2.3s1.3-1,2.1-1c0.9,0,1.6,0.3,2.2,1
			c0.6,0.6,0.9,1.4,0.9,2.3c0,2-0.1,5.2-0.4,9.5c-0.2,4.2-0.4,7.3-0.3,9.6c2.7-2.7,5.8-6,9.2-10.1l8.7-10.5c0.7-0.8,1.5-1.2,2.3-1.2
			c0.8,0,1.5,0.3,2.2,1c0.6,0.6,0.9,1.4,0.9,2.3c0,1.4-2.6,5.1-7.8,11.1c-3.6,4.1-7.3,8.1-11.1,12.1c2.4,2.7,6.2,6.5,11.4,11.4
			l3.2,2.8c1.2,0.9,2.4,1.6,3.7,2.1c1.6,0.6,2.4,1.6,2.4,3.1c0,0.7-0.2,1.4-0.6,2.1C52.5,75.7,51.8,76.1,50.9,76.1z"/>
		<path class="st2" d="M92.2,75.8c-1.8,0-3.5-2.5-4.8-7.4c-0.5-1.9-1.2-5.2-2-9.9c-2.1,0.3-4.8,0.8-8.1,1.6l-8,1.7
			c-1,2.8-2.7,6.8-5.2,12.1c-0.7,1.2-1.5,1.8-2.6,1.8c-0.8,0-1.5-0.3-2.2-0.9c-0.6-0.6-1-1.4-1-2.3c0-1,1.5-4.8,4.6-11.5
			c-0.3-0.5-0.5-1.2-0.5-1.9c0-1.7,1-2.8,3-3.3c2.3-4.5,5.2-9.7,8.7-15.5c4.8-8,7.8-12,8.9-12c1.6,0,2.7,1.2,3.3,3.5l1.9,10.6
			l4.5,21.9l1.7,5c0.6,1.7,0.9,2.8,0.9,3.4c0,0.9-0.3,1.7-0.9,2.3C93.8,75.5,93,75.8,92.2,75.8z M81.6,39.7l-8.7,14.5
			c2.4-0.7,6.1-1.4,11.1-2.4L81.6,39.7z"/>
		<path class="st2" d="M135.2,76.1c-3.1,0-7.4-2.8-13.1-8.4l-9-9.5v0.4l0,16.5c0,2.1-0.9,3.1-2.6,3.1c-1.2,0-2.1-0.5-2.8-1.6
			c-0.6-0.9-0.8-1.8-0.8-2.8c0-4.9,0.1-12.3,0.4-22.1s0.4-17.2,0.4-22.1c0-0.9,0.3-1.7,0.9-2.3s1.3-1,2.1-1c0.9,0,1.6,0.3,2.2,1
			c0.6,0.6,0.9,1.4,0.9,2.3c0,2-0.1,5.2-0.4,9.5c-0.2,4.2-0.3,7.3-0.3,9.6c2.7-2.7,5.8-6,9.2-10.1l8.7-10.5c0.7-0.8,1.4-1.2,2.3-1.2
			c0.8,0,1.5,0.3,2.1,1c0.6,0.6,0.9,1.4,0.9,2.3c0,1.4-2.6,5.1-7.8,11.1c-3.6,4.1-7.3,8.1-11.1,12.1c2.4,2.7,6.2,6.5,11.4,11.4
			l3.2,2.8c1.1,0.9,2.4,1.6,3.7,2.1c1.6,0.6,2.4,1.6,2.4,3.1c0,0.7-0.2,1.4-0.6,2.1C136.7,75.7,136,76.1,135.2,76.1z"/>
		<path class="st2" d="M172.4,32.3c-0.3,0-0.6,0-0.9-0.2c-3.4-1-6.7-1.5-9.9-1.5c-1.6,0-3.5,0.2-5.4,0.5c-2,0.3-4.1,0.8-6.3,1.4
			c0.2,1.4,0.3,2.5,0.3,3.3c0,2.9-0.2,6.9-0.5,12.1l13.2-1.3c3.9-0.4,6.3-0.6,7.2-0.6s1.6,0.3,2.2,0.9c0.6,0.6,0.9,1.4,0.9,2.4
			c0,1.9-0.9,3-2.8,3.2l-7.2,0.7l-14,1.3c-0.1,1.5-0.1,2.9-0.2,4.3s-0.1,2.6-0.1,3.7c0,4.6,0.3,7.4,1,8.2c0.5,0.6,2.1,0.9,4.8,0.9
			c1.3,0,3.1,0,5.6-0.1s4.4-0.1,5.7-0.1c0.4,0,1-0.1,1.8-0.2s1.4-0.2,1.8-0.2c2.1,0,3.2,1.1,3.2,3.3c0,1.8-0.9,2.8-2.6,3.2
			c-1.9,0.4-6,0.6-12.3,0.6c-6.3,0-10.3-0.9-12-2.6c-1.9-1.9-2.9-6.2-2.9-12.9c0-1.3,0-2.8,0.1-4.4c0.1-1.6,0.1-3.3,0.2-5.2
			c-0.2-0.5-0.3-1-0.3-1.5c0-0.7,0.2-1.4,0.6-1.9c0.4-6.1,0.6-10.6,0.6-13.5c0-0.8-0.1-1.9-0.3-3.4c-0.2-1.5-0.3-2.6-0.3-3.4
			c0-2.5,1-3.8,3-3.8c0.9,0,1.6,0.3,2.2,0.9c2.4-0.7,4.7-1.2,6.9-1.5c2.1-0.3,4.2-0.5,6.1-0.5c4.9,0,8.8,0.6,11.7,1.8
			c1.4,0.6,2,1.6,2,3c0,0.8-0.3,1.6-0.8,2.2C174,32,173.3,32.3,172.4,32.3z"/>
		<path class="st2" d="M206.9,35.5c-1.3,0-2.9-0.1-4.9-0.4l-4.9-0.7c-0.5,6.1-0.7,12-0.7,17.5c0,1.5,0,3.3,0.1,5.5s0.1,4,0.1,5.5
			c0,2-0.1,3.8-0.2,5.4l9.5-0.1c0.9,0,1.6,0.3,2.1,0.9s0.9,1.4,0.9,2.3c0,0.9-0.3,1.7-0.9,2.3c-0.6,0.6-1.3,0.9-2.1,0.9
			c-1.1,0-2.8,0-5.1,0.1s-3.9,0.1-5.1,0.1c-1.3,0-3.3,0.2-6,0.6s-4.6,0.6-6,0.6c-0.9,0-1.6-0.3-2.1-0.9s-0.9-1.4-0.9-2.3
			s0.3-1.7,0.9-2.3c0.6-0.6,1.3-0.9,2.1-0.9c1.3,0,3.5-0.2,6.5-0.7c0.2-1.7,0.3-3.7,0.3-5.8c0-1.5-0.1-3.2-0.2-5.3
			c-0.1-2.1-0.2-3.9-0.2-5.3c0-4.9,0.3-10.9,0.9-18.2l-3.9,0.1l-3.9,0.1c-0.9,0-1.6-0.3-2.2-0.9c-0.6-0.6-0.9-1.4-0.9-2.3
			c0-2,0.9-3,2.8-3.2c1.6-0.2,4.7-0.3,9.2-0.3c4,0,9,0.5,15.1,1.4c1.8,0.3,2.7,1.4,2.7,3.4c0,1-0.3,1.8-1,2.4
			C208.3,35.3,207.6,35.5,206.9,35.5z"/>
		<path class="st2" d="M239.1,73.6c-4.5,1.8-10.3,2.8-17.4,2.8c-0.9,0-1.7-0.4-2.5-1.3c-0.8-0.8-1.2-1.7-1.2-2.6v-9.2
			c0-3,0.2-7.3,0.5-12.9c0.4-6,0.6-10.4,0.7-13.1c0-1.9,0.1-4.8,0.3-8.6c0.1-1,0.5-1.8,1-2.1c2.7-0.9,5.9-1.3,9.3-1.3
			c3.6,0,7,1.3,10.2,3.8c3.8,2.9,5.6,6.5,5.6,10.8c0,5.4-2,9.7-6.1,12.8c3,1.3,5.3,2.8,6.8,4.5s2.3,3.4,2.3,5.4c0,2.6-1.3,5-4,7.4
			C243,71.5,241.1,72.8,239.1,73.6z M233.4,57l-3.2-0.5c-0.3,0-0.7,0-1.2,0s-0.9,0-1.2,0c-1.1,0-2.3-0.1-3.5-0.3
			c-0.1,2.7-0.2,5-0.2,7.1v6.5c5.3-0.2,9.6-1,12.9-2.3c1.4-0.6,2.8-1.4,4.1-2.7c1.2-1.1,1.8-1.9,1.8-2.5c0-1-1.3-2.1-3.9-3.3
			C237.1,58.1,235.2,57.4,233.4,57z M230,31.7c-2.2,0-3.7,0.1-4.6,0.2l-0.1,5.5l-0.6,12.2c2.9,0.3,4.4,0.4,4.6,0.3
			c3-0.3,5.5-1.2,7.5-3c2.1-1.9,3.1-4.3,3.1-7.2c0-2-1.1-3.8-3.2-5.6S232.3,31.7,230,31.7z"/>
		<path class="st2" d="M276.1,76.8c-5.7,0-10.5-1.8-14.5-5.3c-4.2-3.8-6.3-8.7-6.3-14.7c0-7.3,2.1-13.9,6.2-19.8
			c4.6-6.6,10.4-9.9,17.3-9.9c6.6,0,11.6,1.6,14.8,4.7c3.4,3.2,5,8.4,5,15.3c0,7.3-1.9,13.8-5.7,19.7
			C288.7,73.4,283,76.8,276.1,76.8z M278.9,33.5c-4.9,0-9.1,2.6-12.5,7.7c-3.2,4.7-4.8,9.9-4.8,15.6c0,4.1,1.4,7.4,4.3,9.9
			c2.8,2.4,6.2,3.6,10.3,3.6c4.9,0,8.9-2.6,12.1-7.7c2.8-4.6,4.3-9.8,4.3-15.5c0-5-1.1-8.6-3.2-10.6
			C287.3,34.5,283.8,33.5,278.9,33.5z"/>
	</g>
</g>
</svg>
