<?xml version="1.0" encoding="utf-8"?>
<!-- Generator: Adobe Illustrator 25.2.0, SVG Export Plug-In . SVG Version: 6.00 Build 0)  -->
<svg version="1.1" id="レイヤー_1" xmlns="http://www.w3.org/2000/svg" xmlns:xlink="http://www.w3.org/1999/xlink" x="0px"
	 y="0px" viewBox="0 0 110 110" style="enable-background:new 0 0 110 110;" xml:space="preserve">
<style type="text/css">
	.st0{fill:url(#SVGID_1_);}
	.st1{fill:url(#SVGID_2_);}
	.st2{fill:url(#SVGID_3_);}
	.st3{fill:url(#SVGID_4_);}
	.st4{fill:#FF00CF;stroke:#FF00CF;stroke-width:2;stroke-miterlimit:10;}
</style>
<g>
	<linearGradient id="SVGID_1_" gradientUnits="userSpaceOnUse" x1="0" y1="16.665" x2="33.33" y2="16.665">
		<stop  offset="0" style="stop-color:#FF00CF"/>
		<stop  offset="1" style="stop-color:#FF00CF;stop-opacity:0.4"/>
	</linearGradient>
	<polygon class="st0" points="33.33,0 33.33,15.14 15.14,15.14 15.14,33.33 0,33.33 0,0 	"/>
</g>
<g>
	<linearGradient id="SVGID_2_" gradientUnits="userSpaceOnUse" x1="0" y1="93.335" x2="33.33" y2="93.335">
		<stop  offset="0" style="stop-color:#FF00CF"/>
		<stop  offset="1" style="stop-color:#FF00CF;stop-opacity:0.4"/>
	</linearGradient>
	<polygon class="st1" points="33.33,94.86 33.33,110 0,110 0,76.67 15.14,76.67 15.14,94.86 	"/>
</g>
<g>
	<linearGradient id="SVGID_3_" gradientUnits="userSpaceOnUse" x1="76.67" y1="16.665" x2="110" y2="16.665">
		<stop  offset="0" style="stop-color:#FF00CF"/>
		<stop  offset="1" style="stop-color:#FF00CF;stop-opacity:0.4"/>
	</linearGradient>
	<polygon class="st2" points="110,0 110,33.33 94.86,33.33 94.86,15.14 76.67,15.14 76.67,0 	"/>
</g>
<g>
	<linearGradient id="SVGID_4_" gradientUnits="userSpaceOnUse" x1="76.67" y1="93.335" x2="110" y2="93.335">
		<stop  offset="0" style="stop-color:#FF00CF"/>
		<stop  offset="1" style="stop-color:#FF00CF;stop-opacity:0.4"/>
	</linearGradient>
	<polygon class="st3" points="110,76.67 110,110 76.67,110 76.67,94.86 94.86,94.86 94.86,76.67 	"/>
</g>
<g>
	<path class="st4" d="M30.09,43.95c1.32-0.24,3.06-0.45,5.19-0.45c7.38,0,7.98,4.74,7.98,6.54c0,5.37-4.29,7.29-8.34,7.29
		c-0.87,0-1.65-0.03-2.34-0.21v9.39h-2.49V43.95z M32.58,55.05c0.63,0.18,1.44,0.24,2.4,0.24c3.6,0,5.79-1.8,5.79-5.07
		c0-3.27-2.34-4.71-5.46-4.71c-1.26,0-2.19,0.12-2.73,0.24V55.05z"/>
	<path class="st4" d="M63.54,66.5H60.9l-2.46-7.41h-7.95l-2.4,7.41h-2.55l7.56-22.86h2.88L63.54,66.5z M57.93,57.11l-2.25-6.78
		c-0.48-1.56-0.87-3-1.17-4.35h-0.09c-0.3,1.38-0.72,2.82-1.14,4.26L51,57.11H57.93z"/>
	<path class="st4" d="M81.6,43.65L74.25,56.7v9.81h-2.49v-9.75L64.8,43.65h2.85l3.18,6.39c0.87,1.71,1.59,3.18,2.28,4.83h0.09
		c0.63-1.53,1.41-3.09,2.31-4.86l3.3-6.36H81.6z"/>
</g>
</svg>
