<?xml version="1.0" encoding="utf-8"?>
<!-- Generator: Adobe Illustrator 25.2.0, SVG Export Plug-In . SVG Version: 6.00 Build 0)  -->
<svg version="1.1" id="レイヤー_2" xmlns="http://www.w3.org/2000/svg" xmlns:xlink="http://www.w3.org/1999/xlink" x="0px"
	 y="0px" viewBox="0 0 311.81 311.81" style="enable-background:new 0 0 311.81 311.81;" xml:space="preserve">
<style type="text/css">
	.st0{fill:none;stroke:#9FA0A0;stroke-width:4;stroke-miterlimit:10;}
</style>
<path class="st0" d="M291.97,28.35H19.84c-7.04,0-12.76-5.71-12.76-12.76v0c0-7.04,5.71-12.76,12.76-12.76h272.13
	c7.04,0,12.76,5.71,12.76,12.76v0C304.72,22.64,299.01,28.35,291.97,28.35z"/>
<g>
	<rect x="34.07" y="95.78" class="st0" width="243.67" height="120.25"/>
	<circle class="st0" cx="165.55" cy="118.92" r="9.65"/>
	
		<rect x="147.88" y="131.11" transform="matrix(0.9827 0.1852 -0.1852 0.9827 30.1118 -26.7048)" class="st0" width="20.2" height="33.39"/>
	<line class="st0" x1="170.56" y1="133.21" x2="188.8" y2="148.85"/>
	<line class="st0" x1="164.57" y1="166.08" x2="199.57" y2="216.03"/>
	<line class="st0" x1="144.96" y1="162.34" x2="145.14" y2="192.22"/>
	<line class="st0" x1="143.99" y1="191.18" x2="109.36" y2="188.95"/>
	<line class="st0" x1="187.78" y1="147.81" x2="213.04" y2="145.1"/>
	<line class="st0" x1="153.1" y1="129.76" x2="125.13" y2="129.76"/>
	<line class="st0" x1="125.13" y1="128.57" x2="113.4" y2="151.86"/>
</g>
</svg>
