<?xml version="1.0" encoding="utf-8"?>
<!-- Generator: Adobe Illustrator 25.2.0, SVG Export Plug-In . SVG Version: 6.00 Build 0)  -->
<svg version="1.1" id="レイヤー_1" xmlns="http://www.w3.org/2000/svg" xmlns:xlink="http://www.w3.org/1999/xlink" x="0px"
	 y="0px" viewBox="0 0 110 110" style="enable-background:new 0 0 110 110;" xml:space="preserve">
<style type="text/css">
	.st0{fill:url(#SVGID_1_);}
	.st1{fill:url(#SVGID_2_);}
	.st2{fill:url(#SVGID_3_);}
	.st3{fill:url(#SVGID_4_);}
	.st4{fill:#FF00CF;stroke:#FF00CF;stroke-width:2;stroke-miterlimit:10;}
</style>
<g>
	<linearGradient id="SVGID_1_" gradientUnits="userSpaceOnUse" x1="0" y1="16.665" x2="33.33" y2="16.665">
		<stop  offset="0" style="stop-color:#FF00CF"/>
		<stop  offset="1" style="stop-color:#FF00CF;stop-opacity:0.4"/>
	</linearGradient>
	<polygon class="st0" points="33.33,0 33.33,15.14 15.14,15.14 15.14,33.33 0,33.33 0,0 	"/>
</g>
<g>
	<linearGradient id="SVGID_2_" gradientUnits="userSpaceOnUse" x1="0" y1="93.335" x2="33.33" y2="93.335">
		<stop  offset="0" style="stop-color:#FF00CF"/>
		<stop  offset="1" style="stop-color:#FF00CF;stop-opacity:0.4"/>
	</linearGradient>
	<polygon class="st1" points="33.33,94.86 33.33,110 0,110 0,76.67 15.14,76.67 15.14,94.86 	"/>
</g>
<g>
	<linearGradient id="SVGID_3_" gradientUnits="userSpaceOnUse" x1="76.67" y1="16.665" x2="110" y2="16.665">
		<stop  offset="0" style="stop-color:#FF00CF"/>
		<stop  offset="1" style="stop-color:#FF00CF;stop-opacity:0.4"/>
	</linearGradient>
	<polygon class="st2" points="110,0 110,33.33 94.86,33.33 94.86,15.14 76.67,15.14 76.67,0 	"/>
</g>
<g>
	<linearGradient id="SVGID_4_" gradientUnits="userSpaceOnUse" x1="76.67" y1="93.335" x2="110" y2="93.335">
		<stop  offset="0" style="stop-color:#FF00CF"/>
		<stop  offset="1" style="stop-color:#FF00CF;stop-opacity:0.4"/>
	</linearGradient>
	<polygon class="st3" points="110,76.67 110,110 76.67,110 76.67,94.86 94.86,94.86 94.86,76.67 	"/>
</g>
<g>
	<path class="st4" d="M35.12,31.83c-0.66-0.42-2.1-1.05-4.02-1.05c-3.18,0-4.38,1.95-4.38,3.6c0,2.25,1.38,3.39,4.44,4.68
		c3.69,1.56,5.58,3.45,5.58,6.72c0,3.63-2.64,6.42-7.56,6.42c-2.07,0-4.32-0.63-5.46-1.44l0.69-2.07c1.23,0.81,3.06,1.41,4.92,1.41
		c3.06,0,4.86-1.65,4.86-4.11c0-2.25-1.23-3.63-4.2-4.83c-3.45-1.29-5.79-3.3-5.79-6.45c0-3.48,2.82-6.03,6.99-6.03
		c2.16,0,3.81,0.54,4.68,1.08L35.12,31.83z"/>
	<path class="st4" d="M52.79,51.87H40.73V29.01h11.55v2.1h-9.06v7.74h8.52v2.07h-8.52v8.85h9.57V51.87z"/>
	<path class="st4" d="M69.86,31.14h-6.75v20.73h-2.49V31.14H53.9v-2.1h15.96V31.14z"/>
	<path class="st4" d="M38.3,56.14h-6.75v20.73h-2.49V56.14h-6.72v-2.1H38.3V56.14z"/>
	<path class="st4" d="M40.79,54.01h2.49v22.86h-2.49V54.01z"/>
	<path class="st4" d="M64.52,76.87h-2.49l-7.29-12.03c-1.53-2.55-3-5.1-4.11-7.62l-0.12,0.03c0.21,2.91,0.24,5.58,0.24,9.54v10.08
		h-2.34V54.01h2.61l7.38,12.03c1.62,2.73,2.94,5.1,3.99,7.47l0.06-0.03c-0.24-3.18-0.3-5.91-0.3-9.51v-9.96h2.37V76.87z"/>
	<path class="st4" d="M85.91,75.94c-1.23,0.48-3.63,1.17-6.51,1.17c-8.97,0-11.1-6.69-11.1-11.52c0-6.96,4.53-11.79,11.7-11.79
		c2.19,0,4.14,0.42,5.28,0.96l-0.66,2.07c-1.11-0.51-2.55-0.93-4.68-0.93c-5.4,0-9.03,3.48-9.03,9.54c0,6.18,3.45,9.63,8.67,9.63
		c1.92,0,3.21-0.3,3.87-0.66v-7.32h-4.62v-2.01h7.08V75.94z"/>
</g>
</svg>
