<?xml version="1.0" encoding="utf-8"?>
<!-- Generator: Adobe Illustrator 25.2.0, SVG Export Plug-In . SVG Version: 6.00 Build 0)  -->
<svg version="1.1" id="レイヤー_2" xmlns="http://www.w3.org/2000/svg" xmlns:xlink="http://www.w3.org/1999/xlink" x="0px"
	 y="0px" viewBox="0 0 100 100" style="enable-background:new 0 0 100 100;" xml:space="preserve">
<style type="text/css">
	.st0{fill:#FFD6AB;stroke:#000000;stroke-miterlimit:10;}
	.st1{fill:none;stroke:#000000;stroke-miterlimit:10;}
	.st2{fill:#00FFE5;stroke:#000000;stroke-miterlimit:10;}
	.st3{stroke:#000000;stroke-miterlimit:10;}
	.st4{fill:#FF5CE9;stroke:#000000;stroke-miterlimit:10;}
	.st5{fill:#FF5CEC;stroke:#000000;stroke-miterlimit:10;}
	.st6{fill:#00C4FF;stroke:#000000;stroke-miterlimit:10;}
	.st7{fill:#0084FF;stroke:#000000;stroke-miterlimit:10;}
	.st8{fill:#FF5CE7;stroke:#000000;stroke-miterlimit:10;}
	.st9{fill:#FFFFFF;stroke:#FFFFFF;stroke-miterlimit:10;}
</style>
<path class="st0" d="M20.35,48.62c-2.73,3.76-4.02,8.54-3.54,13.17c0.48,4.62,2.72,9.04,6.16,12.16c3.46,3.13,7.97,4.9,12.52,5.93
	c9.89,2.24,20.27,1.28,30.17-0.96c1.98-0.45,4.05-0.99,5.55-2.36c1.51-1.37,2.25-3.41,2.52-5.43c0.5-3.74-0.48-7.59-2.33-10.87
	c-1.85-3.29-4.54-6.04-7.54-8.33c-10.07-7.72-23.8-10.22-36.09-7.08C24.22,45.73,20.38,47.45,20.35,48.62z"/>
<path class="st1" d="M27.85,44.78"/>
<path class="st2" d="M20.05,47.82c-1.72-2.84-0.56-6.59,1.42-9.26c2.64-3.57,6.59-6.04,10.81-7.41s8.72-1.7,13.16-1.55
	c7.65,0.26,15.36,1.98,21.94,5.88s11.96,10.11,13.99,17.49c1.03,3.76,1.17,7.82-0.08,11.51c-1.25,3.69-3.98,6.95-7.69,8.3
	c1.29-3.16,1.03-6.81-0.21-9.99c-1.24-3.18-3.39-5.93-5.82-8.33C57.47,44.46,42,40.25,28.23,43.74c-2.69,0.68-5.32,1.64-7.73,3.03
	c-0.31,0.18-0.64,0.39-0.77,0.73s0.07,0.81,0.43,0.81C19.95,48.03,20.05,47.55,20.05,47.82z"/>
<path class="st1" d="M43.36,32.22"/>
<path class="st3" d="M17.81,58.61c-0.35-1.12-0.7-2.27-0.7-3.44c-0.01-1.18,0.38-2.41,1.28-3.17c0.84-0.71,1.99-0.9,3.08-1.03
	c3.73-0.46,7.51-0.56,11.27-0.29c1.01,0.07,2.12,0.22,2.79,0.99c0.84,0.97,0.58,2.44,0.27,3.68c-0.23,0.93-0.52,1.94-1.3,2.49
	c-0.6,0.42-1.37,0.48-2.1,0.53c-2.95,0.19-5.91,0.38-8.86,0.57C21.42,59.08,19.24,59.2,17.81,58.61z"/>
<path class="st3" d="M43.03,58.87c-0.14-1.34-0.28-2.71-0.02-4.03c0.26-1.32,1-2.62,2.2-3.23c1.01-0.52,2.21-0.49,3.34-0.44
	c3.55,0.16,7.09,0.42,10.62,0.77c0.82,0.08,1.7,0.2,2.3,0.75c0.96,0.88,0.81,2.4,0.59,3.67c-0.23,1.34-0.56,2.83-1.69,3.59
	c-0.93,0.63-2.14,0.58-3.26,0.5c-4.2-0.29-8.41-0.57-12.61-0.86c-0.42-0.03-0.85-0.06-1.22-0.27C42.9,59.13,42.63,58.7,43.03,58.87z
	"/>
<path class="st1" d="M62.17,56.14c0.92,0.01,1.81-0.34,2.67-0.67c0.86-0.33,1.77-0.65,2.69-0.58c0.92,0.07,1.87,0.64,2.09,1.54"/>
<path class="st1" d="M36.14,54.65c2.15,0.21,4.31,0.41,6.46,0.62"/>
<path class="st1" d="M51.97,51.66c-2.93,2.05-5.86,4.1-8.8,6.16"/>
<path class="st4" d="M35.77,71.05c5.78-1.91,11.36-4.46,16.59-7.59c0.97,2.37,0.1,5.25-1.75,7.01c-1.85,1.76-4.52,2.5-7.08,2.42
	C40.97,72.81,38.5,71.97,35.77,71.05z"/>
<path class="st1" d="M49.01,66.73c0.38,1.49,0.55,3.03,0.48,4.57"/>
<path class="st1" d="M47.26,68.8c0.26,1.2,0.24,2.46-0.04,3.65"/>
<path class="st5" d="M20.71,71.68c-1.94,0.5-3.5,2.22-3.8,4.2c1.3-0.3,2.61-0.6,3.91-0.91c0.06,1.31-0.41,2.63-1.28,3.61
	c2.16,0.16,4.36-1.11,5.31-3.06"/>
<path class="st5" d="M59.61,80.09c-1.17,1-1.97,2.41-2.26,3.93c1.06-0.48,2.11-0.97,3.17-1.45c-0.07,0.92-0.31,1.83-0.72,2.66
	c1.4-0.15,2.82-0.76,3.63-1.91c0.82-1.15,0.87-2.88-0.1-3.9"/>
<path class="st6" d="M27.77,32.6c0.1-4.1,3.07-7.73,6.71-9.62s7.86-2.33,11.96-2.41c9.02-0.17,18.31,1.31,26.02,5.98
	s13.6,12.94,13.8,21.96c0.09,3.93-1.03,8.1-3.99,10.69c-0.09-7.88-4.73-15.24-10.6-20.5c-5.86-5.26-13.84-7.77-21.68-8.64
	s-14.76-0.44-22.23,2.07C27.73,32.14,27.69,32.14,27.77,32.6z"/>
<path class="st6" d="M93.47,22.43"/>
<path class="st7" d="M43.58,20.39c6.62-0.51,12.89-0.23,18.64,1.29c8.23,2.17,13.39,5.89,17.72,10.92
	c4.33,5.03,6.93,11.65,6.78,18.24c1.51-3.22,1.84-6.93,1.25-10.44c-0.59-3.51-2.06-6.83-3.96-9.84
	c-4.66-7.35-12.08-12.91-20.44-15.34c-3.38-0.98-6.94-1.46-10.42-0.96c-3.48,0.5-6.87,2.05-9.22,4.67c-0.36,0.4-0.7,0.99-0.38,1.42
	c0.65,0.87,2.34-0.79,3.01,0.07C45.82,20.39,45.08,20.37,43.58,20.39z"/>
<path class="st8" d="M55.26,13.78c7.62,0.22,15.14,3.01,21.05,7.82S86.48,33.2,88.24,40.69c0.46-3.43-0.14-6.94-1.2-10.24
	c-1.84-5.73-5.15-11.08-9.92-14.75s-11.08-5.49-16.97-4.27c-1.81,0.37-3.61,1.05-5.01,2.26C55.33,13.75,55.52,13.8,55.26,13.78z"/>
<path class="st9" d="M22.84,24.6"/>
<path class="st9" d="M29.55,50.29c-2.32,3.16-4.82,6.19-7.47,9.08"/>
<path class="st9" d="M32.88,50.44c-2.22,2.88-4.44,5.76-6.67,8.64"/>
<path class="st9" d="M29.28,50.43c1.22,0.11,2.45,0.21,3.67,0.32c-0.44,0.01-0.89-0.02-1.33-0.09"/>
<path class="st9" d="M22.06,59c1.5-0.06,2.99-0.12,4.49-0.17"/>
<path class="st9" d="M23.91,58.45c2.03-2.59,4.12-5.13,6.26-7.63"/>
<path class="st9" d="M31.32,50.67c-2.32,2.57-4.51,5.25-6.57,8.04"/>
<path class="st9" d="M25.79,58.73c2.01-2.62,4.11-5.18,6.28-7.66"/>
<path class="st9" d="M23.27,58.82c0.42-0.4,0.85-0.79,1.27-1.19"/>
<path class="st9" d="M59.56,51.68c-1.79,3.02-3.76,5.92-5.91,8.69"/>
<path class="st9" d="M61.54,52.5c-1.85,2.71-3.7,5.42-5.56,8.13"/>
<path class="st9" d="M53.68,60.35c0.96,0.02,1.92,0.05,2.87,0.07"/>
<path class="st9" d="M54.81,60.02c1.67-2.38,3.34-4.75,5.01-7.13"/>
<path class="st9" d="M59.34,51.83c0.9,0.08,1.77,0.49,2.4,1.15"/>
<path class="st9" d="M55.66,59.98c1.75-2.44,3.5-4.88,5.24-7.33"/>
<path class="st9" d="M59.32,53.4c0.29-0.34,0.57-0.69,0.86-1.03C60.25,52.35,60.31,52.34,59.32,53.4z"/>
<path class="st9" d="M89.04,3.21"/>
</svg>
