<?xml version="1.0" encoding="utf-8"?>
<!-- Generator: Adobe Illustrator 25.2.0, SVG Export Plug-In . SVG Version: 6.00 Build 0)  -->
<svg version="1.1" id="レイヤー_2" xmlns="http://www.w3.org/2000/svg" xmlns:xlink="http://www.w3.org/1999/xlink" x="0px"
	 y="0px" viewBox="0 0 221 205" style="enable-background:new 0 0 221 205;" xml:space="preserve">
<style type="text/css">
	.st0{fill:#EDDDC9;stroke:#231815;stroke-width:2;stroke-miterlimit:10;}
	.st1{fill:#00ABEB;}
	.st2{fill:none;stroke:#231815;stroke-width:2;stroke-miterlimit:10;}
	.st3{fill:#FF00CF;stroke:#231815;stroke-width:2;stroke-miterlimit:10;}
	.st4{fill:#FF00CF;stroke:#FF00CF;stroke-width:2;stroke-miterlimit:10;}
	.st5{fill:#00FFBC;stroke:#231815;stroke-width:2;stroke-miterlimit:10;}
	.st6{fill:#10E9FF;stroke:#231815;stroke-width:2;stroke-miterlimit:10;}
	.st7{fill:#0D47FF;stroke:#231815;stroke-width:2;stroke-miterlimit:10;}
	.st8{fill:#231815;stroke:#231815;stroke-width:0.5;stroke-miterlimit:10;}
	.st9{fill:none;stroke:#231815;stroke-width:0.5;stroke-miterlimit:10;}
	.st10{fill:#231815;stroke:#231815;stroke-width:2;stroke-miterlimit:10;}
	.st11{fill:none;stroke:#FFFFFF;stroke-width:2;stroke-miterlimit:10;}
</style>
<path class="st0" d="M46.86,126.23c0.57,14.48,11.2,27.16,24.15,33.66c12.95,6.5,27.89,7.74,42.38,7.49
	c10.29-0.18,20.56-1.06,30.73-2.63c6.73-1.04,13.56-2.43,19.49-5.79c7.34-4.15,12.92-11.3,15.17-19.42
	c2.25-8.12,1.15-17.12-3.39-24.3c-5.57-11.17-16.61-18.95-28.53-22.65c-11.92-3.7-24.69-3.7-37.1-2.37
	c-12.73,1.36-25.48,4.14-36.87,9.99c-11.39,5.85-21.4,14.98-26.27,26.81C46.57,127.06,46.53,127.09,46.86,126.23z"/>
<path class="st1" d="M47.64,14.6"/>
<path class="st2" d="M111.56,99.38c5.53-1.14,11.18-1.69,16.83-1.63"/>
<path class="st2" d="M50.69,120.12c-0.15-2.28,2.21-3.81,4.25-4.83c7.61-3.8,15.22-7.6,22.83-11.41"/>
<path class="st3" d="M106.83,152.07c-3.16-2.73-5.21-6.71-5.61-10.87c-0.13-1.35,0.07-3,1.29-3.6c0.86-0.43,1.9-0.14,2.8,0.19
	c10.58,3.75,20.19,11.04,31.4,11.62C128.3,156.16,114.62,158.81,106.83,152.07z"/>
<path class="st2" d="M105.45,149.9c-0.96-3.6,0.5-7.72,3.5-9.92"/>
<path class="st2" d="M111.19,154.1c-1.58-3.12-0.84-7.24,1.73-9.62"/>
<path class="st4" d="M64.32,127.36c-2.21-2.19-3.62-5.18-3.9-8.28s0.57-6.29,2.36-8.84c1.66,2.09,3.32,4.18,4.98,6.27
	c0.78-1.82,1.89-3.5,3.27-4.92c1.81,3.06,2.48,6.91,1.23,10.24S67.65,127.75,64.32,127.36z"/>
<path class="st5" d="M47.7,123.42c4.26-5.93,8.6-11.94,14.25-16.57c8.19-6.71,18.58-10.07,28.85-12.64
	c14.96-3.75,30.55-6.13,45.79-3.82s30.21,9.84,38.81,23.19c3.3,5.55,4.79,12.16,4.95,18.83c3.18-9.55,3.36-20.08,0.51-29.73
	s-8.71-18.4-16.57-24.69c-7.35-5.9-16.27-9.59-25.4-11.92s-18.54-3.33-27.93-4.32C88.9,61.87,67.15,72.65,53.7,90.12
	c-3.93,5.11-7.22,10.82-8.77,17.08c-1.55,6.26-1.26,13.1,1.63,18.86C47.27,124.16,48.36,122.41,47.7,123.42z"/>
<path class="st6" d="M46.33,101.84c-3.99-8.92-1.32-19.59,3.87-27.87c8.34-13.28,22.67-22.13,37.89-25.89s31.3-2.8,46.65,0.37
	c8.14,2.45,15.59,6.81,22.43,11.86c4.72,3.48,9.23,7.36,12.6,12.16c3.37,4.79,5.55,10.6,4.9,16.64
	c-6.41-9.96-16.81-16.87-27.92-20.98s-22.99-5.67-35.04-6.58c-13.63-0.53-27.4,3.06-39.04,10.19
	C61.04,78.86,51.58,89.49,46.33,101.84z"/>
<path class="st7" d="M48.36,75.19c-0.63-7.63,3.1-15.03,8.08-20.84c9.81-11.45,24.71-18.1,39.77-18.73s30.13,4.54,42.25,13.5
	c-0.04,0.23-0.43,0.26-0.51,0.05c-0.08-0.21,0.22-0.45,0.41-0.15c-16.39-3.65-33.59-4.96-49.92-1.04S56.71,61.45,48.36,75.19z"/>
<path class="st3" d="M57.44,51.8c-0.81-2.22-0.27-4.76,0.96-6.78c1.23-2.02,3.08-3.58,4.99-4.96c7.22-5.19,15.94-8.25,24.82-8.72
	s17.87,1.66,25.6,6.06c-10.02-2.48-20.66-2.35-30.62,0.37S64,45.79,57.44,51.8z"/>
<path class="st8" d="M103.71,123.11c-0.89-0.22-1.86,0.21-2.4,0.95c-0.54,0.74-0.67,1.72-0.48,2.62c0.13,0.61,0.43,1.22,0.96,1.54
	c0.42,0.25,0.93,0.29,1.42,0.25c0.73-0.06,1.47-0.3,1.99-0.82c0.61-0.61,0.83-1.53,0.78-2.39c-0.03-0.56-0.17-1.14-0.56-1.54
	c-0.56-0.59-1.47-0.65-2.29-0.67C103.09,123.05,103.04,123.06,103.71,123.11z"/>
<path class="st8" d="M133.08,130c-0.62-0.66-0.99-1.56-0.98-2.47c0.02-0.91,0.44-1.81,1.16-2.36c0.72-0.55,1.73-0.72,2.57-0.4
	c0.85,0.33,1.48,1.16,1.53,2.07c0.05,1.04-0.63,1.99-1.45,2.62c-0.42,0.32-0.88,0.58-1.39,0.69C134,130.27,133.37,130.31,133.08,130
	z"/>
<path class="st9" d="M183.01,179.51"/>
<path class="st2" d="M157.02,100.76c7.61,1.07,15.22,2.14,22.83,3.21"/>
<path class="st4" d="M166.75,110.66c-0.6-4.04,0.91-8.34,3.91-11.13c0.65,2.63,1.01,5.33,1.07,8.04c1.77-1.09,3.54-2.19,5.32-3.28
	c-0.09,1.94-0.24,3.9-0.81,5.77c-0.57,1.86-1.6,3.63-3.16,4.79c-1.56,1.16-3.71,1.63-5.52,0.91
	C166.63,113.98,166.94,111.91,166.75,110.66z"/>
<path class="st10" d="M129.6,103.98c-0.22-4.64-0.44-9.28-0.66-13.92c9.21-0.06,18.42,0.5,27.56,1.67
	c0.41,4.73,0.02,9.53-1.15,14.13c-7.4-0.11-14.8-0.21-22.2-0.32C131.52,105.52,129.67,105.34,129.6,103.98z"/>
<g>
	<path class="st11" d="M128.94,101.24c6.38-3.71,12.99-7.11,19.79-10.19c-0.42,0.21-0.84,0.41-1.27,0.62"/>
	<path class="st11" d="M129.82,102.15c6.59-3.71,13.35-7.18,20.26-10.4"/>
	<path class="st11" d="M130.84,102.89c6.88-4.03,13.97-7.78,21.24-11.23"/>
	<path class="st11" d="M129.63,100.49c0.28,0.54,0.61,1.07,0.99,1.56c0.24,0.31,0.5,0.62,0.85,0.83c0.35,0.21,0.82,0.3,1.21,0.15
		c6.71-3.97,13.8-7.7,21.09-11.1c0.32-0.15,0.2-0.56-0.15-0.57c-1.79-0.04-3.62-0.49-5.37-0.14"/>
</g>
<path class="st10" d="M79.08,107.04c-0.1-2.01-1.32-3.76-2.17-5.6c-0.84-1.83-1.23-4.21,0.14-5.69c0.82-0.89,2.06-1.22,3.24-1.49
	c9.33-2.18,18.86-3.53,28.44-4.02c0.96-0.05,2.06-0.04,2.7,0.67c0.61,0.67,0.57,1.69,0.47,2.59c-0.4,3.75-1.17,7.46-2.27,11.06
	C99.39,105.44,89.14,106.31,79.08,107.04z"/>
<g>
	<path class="st11" d="M78.4,104.42c7.62-5,15.51-9.57,23.62-13.71c-0.5,0.28-1.01,0.56-1.51,0.83"/>
	<path class="st11" d="M79.44,105.64c7.86-4.99,15.93-9.66,24.18-13.99"/>
	<path class="st11" d="M80.66,106.64c8.21-5.42,16.67-10.47,25.35-15.11"/>
	<path class="st11" d="M79.22,103.42c0.34,0.73,0.73,1.44,1.18,2.11c0.28,0.42,0.59,0.84,1.01,1.12s0.98,0.4,1.44,0.2
		c8.01-5.34,16.48-10.36,25.17-14.94c0.38-0.2,0.24-0.75-0.18-0.76c-2.14-0.06-4.32-0.65-6.41-0.2"/>
</g>
</svg>
