<?xml version="1.0" encoding="utf-8"?>
<!-- Generator: Adobe Illustrator 25.2.0, SVG Export Plug-In . SVG Version: 6.00 Build 0)  -->
<svg version="1.1" id="レイヤー_1" xmlns="http://www.w3.org/2000/svg" xmlns:xlink="http://www.w3.org/1999/xlink" x="0px"
	 y="0px" viewBox="0 0 500 500" style="enable-background:new 0 0 500 500;" xml:space="preserve">
<style type="text/css">
	.st0{fill:#FFBD76;}
	.st1{fill:#00FFBC;stroke:#000000;stroke-width:2;stroke-linecap:round;stroke-linejoin:round;stroke-miterlimit:10;}
	.st2{fill:#FF00CF;stroke:#FF00CF;stroke-width:2;stroke-linecap:round;stroke-linejoin:round;stroke-miterlimit:10;}
	.st3{fill:none;stroke:#9E640D;stroke-width:3;stroke-linecap:round;stroke-linejoin:round;stroke-miterlimit:10;}
	.st4{fill:#9E640D;stroke:#8F5600;stroke-width:3;stroke-linecap:round;stroke-linejoin:round;stroke-miterlimit:10;}
	.st5{fill:#FF5F4A;stroke:#000000;stroke-width:2;stroke-linecap:round;stroke-linejoin:round;stroke-miterlimit:10;}
	.st6{fill:none;stroke:#000000;stroke-width:2;stroke-linecap:round;stroke-linejoin:round;stroke-miterlimit:10;}
	.st7{fill:#EFDFCA;stroke:#000000;stroke-width:2;stroke-linecap:round;stroke-linejoin:round;stroke-miterlimit:10;}
	.st8{fill:#FF00CF;stroke:#000000;stroke-width:2;stroke-linecap:round;stroke-linejoin:round;stroke-miterlimit:10;}
	.st9{stroke:#000000;stroke-width:2;stroke-linecap:round;stroke-linejoin:round;stroke-miterlimit:10;}
	.st10{fill:#10E9FF;stroke:#000000;stroke-width:2;stroke-linecap:round;stroke-linejoin:round;stroke-miterlimit:10;}
	.st11{fill:#0D47FF;stroke:#000000;stroke-width:2;stroke-linecap:round;stroke-linejoin:round;stroke-miterlimit:10;}
	.st12{fill:none;stroke:#744600;stroke-width:3;stroke-linecap:round;stroke-linejoin:round;stroke-miterlimit:10;}
	.st13{fill:none;stroke:#000000;stroke-width:3;stroke-linecap:round;stroke-linejoin:round;stroke-miterlimit:10;}
	.st14{fill:#FFFFFF;stroke:#000000;stroke-width:2;stroke-linecap:round;stroke-linejoin:round;stroke-miterlimit:10;}
	.st15{fill:#FF9FF8;stroke:#000000;stroke-width:3;stroke-linecap:round;stroke-linejoin:round;stroke-miterlimit:10;}
	.st16{fill:#ACEA00;stroke:#000000;stroke-width:2;stroke-linecap:round;stroke-linejoin:round;stroke-miterlimit:10;}
	.st17{fill:#FF5F4A;stroke:#000000;stroke-linecap:round;stroke-linejoin:round;stroke-miterlimit:10;}
</style>
<path class="st0" d="M487.28,390.05c-26.51,8.62-55.02,11.01-82.59,6.93c-25.08-3.71-49.6-12.69-74.94-11.83
	c-23.19,0.79-45.27,9.79-68.19,13.44c-29.29,4.66-59.94,0.31-86.78-12.31c-22.34-10.51-42.65-26.77-67.04-30.6
	c-15.8-2.48-32.02,0.53-47.9-1.37c-15.88-1.89-32.96-11.05-35.88-26.78c-1.11-5.99-0.01-12.18-0.55-18.25
	c-0.98-11.01-7.22-20.75-11.06-31.12c-3.85-10.37-4.71-23.5,3.31-31.1c6.64-6.3,16.76-6.47,25.74-8.25
	c8.98-1.78,19.07-7.77,18.57-16.91c-0.25-4.5-3.1-8.4-4.32-12.73c-3.93-13.95,15.97-30.36,20.36-34.05
	C100.39,154.66,300.4,52.03,451.44,158c13.37,9.38,84.08,58.99,80.43,110.63c-1.19,16.83-10.04,29.82-12.38,67
	c-0.56,8.81-0.89,20.99-8.6,33.4C504.93,378.62,496.16,387.17,487.28,390.05z"/>
<path class="st1" d="M354.41,188.94c-2.9-3.1-5.81-6.2-8.71-9.3c-0.75-0.8-1.52-1.65-1.77-2.71c-0.35-1.56,0.57-3.19,1.86-4.13
	c1.29-0.95,2.89-1.35,4.45-1.7c0.02-0.02,0.03-0.03,0.08-0.18c3.73,0.92,7.09,2.95,10.19,5.22c4.42,3.24,8.46,7.06,11.47,11.63
	c3.02,4.57,4.98,9.91,5.09,15.39c0.11,5.47-1.74,11.06-5.49,15.04c0-0.02,0-0.03,0.01,0.03c-1.84,0.22-3.76-0.24-5.3-1.29
	c-0.03,0.05-0.07,0.1-0.13,0.13c0-0.02,0-0.03,0.08-0.11c-0.3-4.5-0.6-9.01-0.9-13.51c-0.17-2.55-0.37-5.21-1.7-7.39
	c-1.22-2-3.24-3.36-5.19-4.65C357.07,190.49,355.37,189.97,354.41,188.94z"/>
<path class="st2" d="M317.01,191.02c-2.26-1.49-3.4-4.21-3.98-6.86c-1.06-4.88-0.62-10.08,1.37-14.73
	c2.01,4.41,4.51,8.59,7.53,12.44c1.83-2.7,3.49-5.52,4.93-8.39c1.63,3.22,2.21,7.04,1.2,10.51c-1.01,3.47-3.72,6.48-7.19,7.48
	C319.59,191.82,318.12,191.75,317.01,191.02z"/>
<path class="st3" d="M280.36,207.11c32.02,3.07,63.94,7.15,95.7,12.24"/>
<path class="st4" d="M376.4,219.49c10.25,1.35,20.5,2.7,30.76,4.05c3,0.39,6.39,1.03,8,3.59c2.03,3.21,0.06,7.39-2.01,10.57
	c-6.96,10.73-15.22,20.62-24.75,28.84c-34.75,14.56-75.05,15.32-110.67,3.37c-21.81-2.23-43.62-4.46-65.9-7
	c-34.05,0.54-68.15-2.38-101.71-8.17c-2.65-0.79-5.11-2.17-7.28-3.99c-2.01-3.12-4.06-6.28-6.89-8.69
	c-3.27-2.78-7.36-4.37-11.66-5.9c-1.79-4.63-3.58-9.25-5.37-13.88c-0.76-1.97-1.54-4.01-1.39-6.11c0.13-1.91,1.01-3.69,1.61-5.55
	c-0.07,0.03-0.15,0.07-0.22,0.1c-0.05-0.02-0.11-0.04,0.05,1.78c37.61-5.45,75.38-10.9,113.38-10.7c18.96,0.1,37.89,1.61,56.79,3.13
	c10.37,0.83,20.74,1.66,31.09,2.46c0.02,0.04,0.03,0.07,0.05,0.11"/>
<path class="st5" d="M145.11,227.96c-8.92-2.91-17.95-5.86-25.86-10.92s-14.69-12.53-16.92-21.64c-1.83-7.48-0.45-15.45,2.4-22.61
	c2.85-7.15,7.21-13.78,13.12-18.71c7.93-6.61,18.19-9.82,28.39-11.45c12.5-1.99,25.61-1.77,37.43,2.74
	c11.82,4.51,22.21,13.72,26.24,25.72c2.49,7.41,2.48,15.42,1.96,23.22c-0.38,5.78-1.15,11.86-4.67,16.45
	c-3.06,3.98-7.76,6.28-12.29,8.43c-7.89,3.76-15.86,7.55-24.35,9.63C162.07,230.91,153.13,230.57,145.11,227.96z"/>
<path class="st5" d="M222.99,201.24c1.35-1.38,3.32-2.03,5.25-2.1s3.84,0.39,5.68,0.97c4.84,1.52,9.41,3.91,13.5,6.95
	c-5.26,0.32-10.52,0.64-15.78,0.99c3.01,3.65,6.01,7.3,9.04,10.94c0,0.01,0,0.02-0.01,0.03c-1.58,0.55-3.17,1.1-4.82,1.35
	c-1.65,0.25-3.39,0.2-4.93-0.44c-0.95-0.39-1.81-0.99-2.76-1.37c-1.32-0.53-2.76-0.62-4.12-1.03c-2.27-0.68-4.25-2.25-5.43-4.3
	c-1.18-2.05-1.53-4.56-1.18-6.9c-2.05-2.22-4.2-4.35-6.43-6.35c0.06-0.08,0.12-0.17,0.18-0.25c0.15-1.45,0.45-2.89,0.98-4.38
	c2.32,1.68,4.63,3.36,6.95,5.04c0.69,0.5,1.4,1.01,2.23,1.2C222.14,201.78,223.12,201.58,222.99,201.24z"/>
<path class="st5" d="M106.24,216.72c3.07,3.18,4.77,7.64,4.6,12.05c-0.16,4.42-2.19,8.73-5.44,11.68
	c-2.28-5.22-4.29-10.56-6.07-15.94c-2.68,1.38-4.86,3.71-6.05,6.47c-1.19,2.78-1.42,5.94-3.15,8.54
	c-2.65-6.66-1.76-14.62,2.23-20.61c2.67-2.05,5.9-3.36,9.26-3.83c1.77-3.02,3.54-6.03,5.26-9.09c0.51-0.13,0.95,0.34,1.26,0.77
	c0.76,1.05,1.52,2.1,2.35,3.03c-1.24,2.35-2.55,4.65-3.95,6.9C106.63,216.66,106.72,216.62,106.24,216.72z"/>
<path class="st6" d="M197.43,164.57"/>
<path class="st7" d="M340.46,177.15c-4.09-1.25-8.57,0.44-11.98,3.03s-6.06,6.02-9.15,8.98c-3.34,3.2-7.43,6.21-8.42,10.72
	c-0.82,3.75,0.77,7.59,2.63,10.94c3.6,6.5,8.47,12.42,14.72,16.43c6.25,4.01,13.97,5.99,21.26,4.57c7.29-1.42,13.97-6.5,16.51-13.5
	c-0.29-3.95-0.58-7.89-0.86-11.84c-0.25-3.42-0.55-7-2.34-9.92c-2.73-4.46-8.23-6.35-11.83-10.15c-1.69-1.78-2.92-3.93-4.54-5.77
	C344.84,178.82,342.53,177.78,340.46,177.15z"/>
<path class="st8" d="M325.57,203.3c0.22,0.81,0.9,1.44,1.67,1.8c0.76,0.36,1.61,0.49,2.45,0.61c4.42,0.66,8.84,1.32,13.26,1.98
	c0.54,0.08,1.22,0.29,1.26,0.84c0.03,0.32-0.18,0.6-0.39,0.84c-1.13,1.35-2.36,2.63-3.85,3.55c-1.49,0.92-3.27,1.47-5.01,1.24
	c-2.5-0.32-4.51-2.12-6.36-3.84c-0.98-0.91-1.98-1.84-2.66-2.99c-0.69-1.15-1.03-2.58-0.61-3.85
	C325.3,203.57,325.28,203.66,325.57,203.3z"/>
<path class="st6" d="M339.76,208.55c0.23,1.51-0.06,3.09-0.81,4.42"/>
<path class="st6" d="M336.57,210.2c-0.14,1.42-0.84,2.78-1.93,3.72"/>
<path class="st2" d="M354.95,224.36c-1.31-0.57-2.29-1.76-2.85-3.07c-0.56-1.32-0.73-2.76-0.78-4.19c-0.11-3.8,0.72-7.62,2.41-11.03
	c-0.02,0.01-0.03,0.03,0.05-0.02c1.93,3.28,3.68,6.67,5.23,10.15c2.07-1.85,3.98-3.88,5.85-5.94c1.16,3.07,1.08,6.66-0.5,9.54
	c-1.58,2.88-4.73,4.92-8.02,4.89C355.69,224.69,354.97,224.57,354.95,224.36z"/>
<path class="st9" d="M335.29,176.64c0.87-2.18,2-4.26,3.39-6.19c3.07,2.37,6.13,4.75,9.24,7.1c-0.77,2.01-1.8,3.92-3.12,5.83
	C341.29,181.89,338.1,179.68,335.29,176.64z"/>
<path class="st9" d="M351.64,190.31c1.48-1.75,2.96-3.5,4.37-5.29c2.92,2.03,5.7,4.27,8.26,6.66c-1.04,2.13-2.5,4.06-4.41,5.62
	c-2.76-2.13-5.52-4.26-8.28-6.39C351.42,190.79,351.4,190.59,351.64,190.31z"/>
<path class="st6" d="M346.9,180.36c2.48,2.03,4.72,4.34,6.69,6.87"/>
<path class="st6" d="M335.64,193.37c-0.19-0.01-0.36-0.17-0.41-0.35s0-0.39,0.1-0.55c0.1-0.16,0.25-0.29,0.41-0.4
	c0.18-0.13,0.4-0.24,0.6-0.16c0.13,0.05,0.22,0.18,0.25,0.32s0,0.28-0.05,0.42c-0.13,0.33-0.4,0.6-0.74,0.71
	c-0.09,0.03-0.19,0.05-0.28,0.02c-0.1-0.04-0.18-0.13-0.21-0.24c-0.03-0.1-0.03-0.22-0.02-0.33"/>
<path class="st6" d="M343.82,202.26c-0.2-0.15-0.29-0.42-0.28-0.67c0.01-0.25,0.11-0.49,0.23-0.71c0.13-0.24,0.31-0.47,0.56-0.6
	c0.25-0.12,0.58-0.11,0.77,0.1c0.11,0.12,0.15,0.29,0.15,0.45c0,0.16-0.05,0.32-0.1,0.48c-0.1,0.3-0.24,0.61-0.48,0.81
	c-0.24,0.21-0.61,0.29-0.89,0.13C343.78,202.2,343.79,202.16,343.82,202.26z"/>
<path class="st6" d="M439.18,116.15"/>
<path class="st10" d="M348.56,171.23c-0.99-0.03-1.72-1.13-1.58-2.11c0.14-0.98,0.96-1.76,1.89-2.11c0.93-0.35,1.95-0.35,2.94-0.28
	c7.33,0.52,14.21,4.4,19.12,9.88c4.91,5.48,7.95,12.44,9.53,19.62c0.43,1.94,0.75,3.96,0.38,5.91c-0.37,1.95-1.56,3.86-3.4,4.6
	c0.16-0.08,0.32-0.15,0.49-0.23c-0.33,0.06-0.66,0.11-1,0.17c1.03-6.98-1.19-14.21-5.21-20.01s-9.72-10.28-15.87-13.74
	C353.54,171.62,350.83,170.42,348.56,171.23z"/>
<path class="st11" d="M364.45,170.71c-0.02-0.79,0.57-1.51,1.3-1.84c0.73-0.32,1.56-0.31,2.35-0.18c2.4,0.39,4.53,1.75,6.43,3.27
	c4.03,3.21,7.47,7.35,9.01,12.26s0.95,10.64-2.27,14.7C379.55,187.85,373.41,177.53,364.45,170.71z"/>
<path class="st8" d="M380.64,177.16c1.57,0.68,2.9,1.86,3.94,3.22s1.8,2.92,2.44,4.51c0.73,1.81,1.32,3.77,0.98,5.69
	c-0.35,1.92-1.91,3.74-4.06,3.91c1.17-2.84,1-6.09,0.15-9.04C383.23,182.51,381.73,179.8,380.64,177.16z"/>
<path class="st12" d="M243.9,242.44c50.18,1.88,100.29,5.51,150.22,10.88"/>
<path class="st12" d="M288.58,256.85c27.15,0.51,54.28,2.86,81.11,7.03"/>
<path class="st12" d="M310.88,269.65c8.65,0.71,17.3,1.42,25.95,2.14"/>
<path class="st13" d="M245.89,75.51"/>
<path class="st14" d="M173.82,178.68c-1.61-1.54-2.64-3.68-2.84-5.9s0.43-4.51,1.74-6.31c1.72-2.36,4.44-3.79,7.21-4.73
	c1.54-0.53,3.19-0.94,4.8-0.65c1.64,0.29,3.08,1.27,4.37,2.32c1.27,1.03,2.49,2.16,3.38,3.53c0.89,1.37,1.45,3.01,1.3,4.64
	c-0.19,2.08-1.5,3.94-3.2,5.15c-1.7,1.21-3.74,1.84-5.79,2.23C181.27,179.62,177.63,179.6,173.82,178.68z"/>
<path class="st14" d="M142.42,179.46c-4.54-2.55-6.03-9-3.68-13.65c2.34-4.65,7.78-7.28,12.98-7.03c3.15,0.15,6.32,1.28,8.53,3.52
	c2.96,2.98,3.84,7.75,2.4,11.7c-1.45,3.94-5.06,6.95-9.15,7.91C149.4,182.87,145.45,181.16,142.42,179.46z"/>
<path class="st15" d="M164.4,207.05c-2.28-0.81-4.41-2.26-5.6-4.36c-1.19-2.1-1.27-4.91,0.17-6.85c1.12-1.5,2.95-2.29,4.75-2.79
	c2.55-0.71,5.21-0.99,7.85-0.81c2.34,0.16,4.72,0.7,6.64,2.06c1.91,1.36,3.27,3.65,3.05,5.99c-0.17,1.77-1.21,3.37-2.49,4.61
	c-3.75,3.63-9.89,4.49-14.49,2.03c0.04-0.1-0.08-0.21-0.17-0.17S164.01,206.96,164.4,207.05z"/>
<path class="st6" d="M154.7,166.5c-0.36,0.04-0.71-0.17-0.9-0.48c-0.19-0.3-0.22-0.68-0.15-1.04c0.05-0.27,0.16-0.53,0.35-0.73
	c0.29-0.3,0.77-0.42,1.17-0.28s0.7,0.52,0.75,0.94s-0.17,0.86-0.54,1.07c-0.12,0.07-0.27,0.12-0.41,0.09
	c-0.19-0.05-0.3-0.23-0.36-0.42c-0.06-0.18-0.06-0.42,0.11-0.52c0.18-0.11,0.42,0.07,0.45,0.28
	C155.19,165.63,155.07,165.83,154.7,166.5z"/>
<path class="st6" d="M184.26,167.44c-0.54,0.02-1.1-0.23-1.4-0.68s-0.27-1.11,0.11-1.5c0.36-0.37,0.95-0.42,1.45-0.31
	c0.31,0.07,0.62,0.19,0.84,0.43c0.39,0.4,0.4,1.1,0.03,1.52c-0.37,0.42-1.06,0.5-1.51,0.17c-0.21-0.15-0.37-0.43-0.25-0.66
	c0.1-0.2,0.37-0.27,0.59-0.24c0.16,0.02,0.33,0.08,0.39,0.23S184.42,166.74,184.26,167.44z"/>
<path class="st16" d="M133.71,145.47c0.25-5.17,2.22-10.25,5.53-14.23c3.31-3.98,7.94-6.85,13.11-8.3c-1.31-2.96,0.06-6.8,2.91-8.34
	s6.75-0.64,8.7,1.95c1.95,2.58,1.78,6.52-0.31,8.98c-2.1,2.47-5.88,3.28-8.69,2.13c-3.15,1.8-6.34,3.63-8.96,6.16
	c-2.61,2.52-4.64,5.85-4.6,9.52C138.82,143.81,136.31,144.59,133.71,145.47z"/>
<path class="st16" d="M174.73,142.78c0.81-6.52,5.39-12.43,11.3-14.92c-0.89-2.07-0.87-4.53,0.15-6.53c1.02-2,3.07-3.48,5.3-3.7
	c2.3-0.22,4.67,0.93,5.92,2.86c1.25,1.94,1.32,4.58,0.17,6.58c-1.15,2-3.46,3.27-5.78,3.39c0,0.02,0,0.04-0.05-0.02
	c-4.74,3.41-8.08,8.72-9.09,14.47c-2.37-1.13-4.94-1.82-7.56-2.02c-0.18,0.53,0.71,0.98,1.03,0.52
	C176.44,142.97,175.72,142.29,174.73,142.78z"/>
<path class="st17" d="M147.6,228.53c4.16-4.48,9.49-7.86,15.31-9.72c-0.68,6.62-1.36,13.25-2.04,19.87
	c3.78,1.43,7.08,4.12,9.24,7.54c-3.05-1.99-6.46-3.45-10-4.29c-1.32-0.31-2.89-0.74-3.28-2.04c-0.21-0.7,0.01-1.46,0.2-2.17
	c1.05-3.86,1.18-7.96,0.38-12.06c-1.94,0.69-3.63,2.05-4.76,3.77c0,0.03,0,0.05-0.08,0.06C150.93,229.57,149.27,229.3,147.6,228.53z
	"/>
<path class="st17" d="M117.11,215.45c0.3-3.17,2.24-6.14,5.03-7.68c1.01,8.22,2.02,16.43,3.03,24.65c0.13,1.08,0.28,2.19,0.85,3.11
	c0.85,1.36,2.46,2.01,3.9,2.71c1.45,0.7,2.96,1.72,3.27,3.3c-3.08,0.51-6.31,0.09-9.22-1.13c-0.55-1.39-0.59-2.98-0.1-4.4
	c-2.38-6.43-3.44-13.35-3.22-20.24c-0.67,2.11-1.84,4.06-3.54,5.48C115.62,219.72,115.67,216.96,117.11,215.45z"/>
<path class="st17" d="M207.47,210.48c-0.88-0.19-1.47-1.09-1.54-1.98c-0.07-0.89,0.29-1.77,0.73-2.55c0.81-1.39,1.95-2.59,3.3-3.47
	c0.81-0.53,2-0.9,2.67-0.19c0.31,0.33,0.4,0.8,0.48,1.24c1.37,7.75,2.73,15.49,3.69,23.32c0-0.02,0-0.03,0-0.22
	c3.6,0.08,7.12,1.95,9.29,4.99c-2.68,1.56-5.9,2.15-8.95,1.65c-3.05-0.5-5.92-2.1-8.08-4.32c-0.02-0.05-0.03-0.09-0.19-0.33
	c1.97-1.68,2.63-4.44,2.81-7.03c0.27-3.76-0.21-7.54-0.7-11.34c-1.1-0.06-2.21,0.08-3.25,0.42
	C207.68,210.5,207.85,210.31,207.47,210.48z"/>
<path class="st17" d="M211.34,198.07c-0.43-0.83-0.23-1.88,0.32-2.64c0.55-0.75,1.39-1.24,2.27-1.57c0.67-0.26,1.39-0.43,2.11-0.37
	c0.72,0.06,1.44,0.37,1.88,0.94c0.36,0.46,0.5,1.05,0.64,1.62c0.83,3.46,1.66,6.93,2.35,10.42c0.82,4.2,1.43,8.43,2.26,12.63
	c0,0.01,0,0.02-0.01,0.22c1.91,0.52,3.83,1.04,5.74,1.56c0.61,0.17,1.22,0.33,1.78,0.64c0.55,0.31,1.04,0.77,1.26,1.36
	c-0.03,0.11-0.07,0.22-0.13,0.33c-0.01-0.01-0.02-0.02-0.01,0c-1.74,0.86-3.78,0.96-5.69,0.63c-1.91-0.33-3.73-1.05-5.54-1.72
	c0-0.01,0-0.02-0.09-0.02c-0.47-3.67-0.94-7.34-1.41-11.01c-0.29-2.28-0.58-4.56-1.06-6.81c-0.2-0.96-0.44-1.92-0.89-2.78
	s-1.15-1.64-2.06-2.01c-0.65-0.26-1.36-0.31-2.03-0.5C212.38,198.79,211.56,198.51,211.34,198.07z"/>
<path class="st0" d="M540.99,408.07"/>
<path class="st0" d="M527.31,193.7"/>
</svg>
