<?xml version="1.0" encoding="utf-8"?>
<!-- Generator: Adobe Illustrator 25.2.0, SVG Export Plug-In . SVG Version: 6.00 Build 0)  -->
<svg version="1.1" id="レイヤー_2" xmlns="http://www.w3.org/2000/svg" xmlns:xlink="http://www.w3.org/1999/xlink" x="0px"
	 y="0px" viewBox="0 0 300 300" style="enable-background:new 0 0 300 300;" xml:space="preserve">
<style type="text/css">
	.st0{fill:#00FFBC;stroke:#000000;stroke-width:2;stroke-miterlimit:10;}
	.st1{fill:#EFDFCA;stroke:#000000;stroke-width:2;stroke-miterlimit:10;}
	.st2{stroke:#000000;stroke-width:2;stroke-miterlimit:10;}
	.st3{fill:none;stroke:#000000;stroke-width:2;stroke-miterlimit:10;}
	.st4{fill:#10E9FF;stroke:#000000;stroke-width:2;stroke-miterlimit:10;}
	.st5{fill:#0D47FF;stroke:#000000;stroke-width:2;stroke-miterlimit:10;}
	.st6{fill:#FF00CF;stroke:#000000;stroke-width:2;stroke-miterlimit:10;}
	.st7{fill:none;stroke:#FFB85C;stroke-width:3;stroke-linecap:round;stroke-linejoin:round;stroke-miterlimit:10;}
	.st8{fill:#7D5E00;stroke:#7D5E00;stroke-width:3;stroke-linecap:round;stroke-linejoin:round;stroke-miterlimit:10;}
	.st9{fill:#FF00CF;stroke:#FF00CF;stroke-width:2;stroke-miterlimit:10;}
	.st10{stroke:#000000;stroke-linecap:round;stroke-linejoin:round;stroke-miterlimit:10;}
	.st11{fill:#FF0095;stroke:#FF0095;stroke-width:3;stroke-linecap:round;stroke-linejoin:round;stroke-miterlimit:10;}
</style>
<path class="st0" d="M104.37,85.54c0.45-4.87,1.19-10.1,4.59-13.61c2.34-2.42,5.64-3.65,8.9-4.48c11.29-2.84,23.6-1.4,34.1,3.66
	c0.02,0,0.05,0,0.07,0.06c7,0.53,13.87,2.68,19.93,6.23c4.63,2.71,8.91,6.39,11.09,11.3c2.17,4.9,1.81,11.18-1.89,14.88
	c-0.08-2.86-1.71-5.52-3.87-7.4c-2.16-1.89-4.8-3.11-7.45-4.21c-8.52-3.55-17.46-6.06-26.54-7.75
	C130.33,81.8,116.75,81.11,104.37,85.54z"/>
<path class="st1" d="M104.43,85.93c-5.49,6.12-9.1,14.12-9.06,22.34s3.99,16.54,10.88,21.01c4.56,2.96,10.05,4.13,15.45,4.76
	c10.85,1.26,21.92,0.56,32.52-2.08c5.03-1.25,9.99-2.95,14.43-5.61c4.45-2.66,8.37-6.33,10.6-11.03c1.3-5.44,1.62-11.11,0.44-16.54
	c-0.99-2.16-3.1-3.61-5.3-4.51c-2.2-0.9-4.55-1.37-6.78-2.19c-3.11-1.14-5.96-2.98-8.76-4.48c-16.44-3.2-33.23-6.42-49.82-4.18
	c-1.25,0.17-2.53,0.38-3.61,1.03c-1.08,0.65-1.92,1.85-1.8,3.1C103.18,87.81,102.75,88.06,104.43,85.93z"/>
<path class="st2" d="M105.61,87.34c-0.55-2.38-0.87-4.81-0.93-7.25c3.55-0.27,7.11-0.27,10.66-0.02c0.98,0.07,2.02,0.18,2.83,0.73
	c0.96,0.66,1.44,1.85,1.52,3c0.08,1.16-0.19,2.31-0.45,3.44c-4.11,0.32-8.23,0.41-12.35,0.26
	C106.37,87.79,105.74,87.89,105.61,87.34z"/>
<path class="st2" d="M129.88,87.63c-0.42-1.23-0.84-2.48-0.83-3.78c0.01-1.3,0.53-2.66,1.62-3.35c1.1-0.69,2.51-0.58,3.8-0.44
	c2.9,0.32,5.81,0.63,8.71,0.95c0.88,0.1,1.81,0.22,2.47,0.81c0.87,0.79,0.94,2.11,0.94,3.29c0,1-0.08,2.15-0.89,2.73
	c-0.54,0.39-1.26,0.39-1.92,0.38C139.02,88.15,134.27,88.07,129.88,87.63z"/>
<path class="st3" d="M120.38,83.3c2.85,0.17,5.69,0.33,8.54,0.5"/>
<path class="st4" d="M121.95,66.15c-2-1.89-1.39-5.45,0.58-7.38c1.97-1.92,4.83-2.59,7.56-3c13.39-2.02,27.45,0.38,39.28,6.97
	c3.25,1.81,6.39,3.98,8.59,6.98c3.61,4.91,4.24,11.35,4.49,17.46c-3.54-5.35-8.91-9.28-14.68-12.07
	c-5.78-2.79-11.99-4.52-18.17-6.23c-4.47-1.24-8.97-2.49-13.57-3.1C131.42,65.15,126.67,65.19,121.95,66.15z"/>
<path class="st5" d="M182.24,78.28c1.33-1.44,1.7-3.53,1.67-5.5c-0.07-4.25-1.75-8.36-4.21-11.83c-2.46-3.47-5.67-6.33-9.04-8.91
	c-3.67-2.81-7.68-5.36-12.19-6.39c-4.94-1.13-10.11-0.34-15.08,0.71c-1.4,0.3-2.81,0.62-4.04,1.35s-2.25,1.94-2.4,3.36
	c-0.16,1.42,0.78,2.98,2.17,3.37c10.68,0.14,21.32,3.08,30.56,8.45c2.96,1.72,5.82,3.72,8.05,6.32
	C179.97,71.8,181.56,75.06,182.24,78.28z"/>
<path class="st6" d="M160.16,45.69c-0.29-1.18,0.47-2.42,1.51-3.05c1.04-0.63,2.3-0.75,3.52-0.77c5.23-0.08,10.48,1.66,14.39,5.15
	c2.19,2.74,4.12,5.68,5.64,8.82c0.78,4.24,0.36,8.7-1.17,12.68C179.45,58.15,170.67,49.71,160.16,45.69z"/>
<path class="st3" d="M116.1,111.9c5.75,1.58,11.89,0.63,17.64-0.96s11.32-3.84,17.18-4.92"/>
<path class="st7" d="M47.62,140.49c1.58,1.42,3.17,2.84,4.75,4.25c1.38,1.24,2.77,2.48,4.35,3.45c1.42,0.87,2.99,1.52,4.23,2.63
	c0.88,0.79,1.56,1.78,2.48,2.51c1.72,1.38,4.02,1.72,6.2,2.01"/>
<path class="st8" d="M49.08,141.1c-0.24-1.76-0.48-3.51-0.72-5.27c0.21-0.11,0.42-0.22,0.71-0.19c11.48-6.04,23.02-11.97,34.75-17.5
	c1.39,0.08,2.77,0.43,4.01,1.05c-0.91,1.11-1.83,2.23-2.72,3.42C72.56,127.91,60.41,134.15,49.08,141.1z"/>
<path class="st9" d="M92.65,114.62c-0.8-1.3-2.44-1.81-3.96-1.97c-4.15-0.45-8.46,1.02-11.41,4.02c3.93,0.38,7.82,1.15,11.6,2.41
	c-1.84,2.1-3.68,4.19-5.47,6.48c2.34-0.45,4.63-1.14,6.86-1.97c1.22-0.45,2.46-0.96,3.44-1.82c0.98-0.86,1.7-2.12,1.58-3.42
	C95.13,116.55,93.23,115.56,92.65,114.62z"/>
<path class="st7" d="M39.67,149.31c2.99,2.24,6.17,4.22,9.49,5.93c4.9,2.51,10.2,4.48,14.3,8.14c0.76,0.68,1.48,1.42,2.37,1.91
	c1.64,0.92,3.62,0.9,5.5,0.86"/>
<path class="st7" d="M78.24,156.92c-0.6,0.61-1.2,1.23-1.56,2s-0.43,1.73,0.04,2.44"/>
<path class="st7" d="M82.87,156.66c-0.06,1.56-0.63,3.1-1.6,4.33"/>
<path class="st7" d="M34.3,167.7c3.25,1.2,6.95,1.14,10.16-0.16c3.21-1.3,5.91-3.83,7.4-6.96"/>
<path class="st7" d="M72.84,174.91c-0.25,0.57,0.16,1.26,0.72,1.55c0.56,0.28,1.22,0.27,1.85,0.28c0.63,0.01,1.3,0.06,1.8,0.44
	c0.61,0.46,0.85,1.29,1.46,1.74c0.67,0.49,1.61,0.39,2.39,0.67c0.76,0.27,1.35,0.87,2.01,1.34c2.05,1.45,4.74,1.53,7.25,1.56"/>
<path class="st7" d="M107.01,184.47c-0.01,0.76,1.53-2.04,2.22-2.37c0.69-0.33,1.07-1.08,1.35-1.79c0.72-1.81,1.18-3.73,1.36-5.67
	c0.07-0.78,0.13-1.64,0.69-2.18c0.63-0.61,1.62-0.56,2.49-0.47c1.52,0.15,3.04,0.31,4.56,0.46c0.7,0.07,1.48,0.18,1.93,0.73
	c0.38,0.47,0.41,1.12,0.41,1.73c0.01,2.5-0.02,5.01-0.1,7.51c-0.06,1.79-0.15,3.63-0.78,5.3c-0.71,1.87-2.05,3.42-3.37,4.93
	c-0.81,0.93-1.63,1.86-2.65,2.55c-1.19,0.8-2.59,1.23-3.86,1.89c-1.27,0.66-2.5,1.66-2.84,3.06"/>
<path class="st7" d="M141.59,175.33c0.26,0.38,0.52,0.76,0.77,1.14c2.76-2.06,6.73-1,9.98-2.11c1.24-0.42,2.51-1.17,3.76-0.78
	c1.51,0.47,2.04,2.28,2.35,3.83c0.38,1.9,0.74,3.96-0.06,5.72c-1.08,2.38-3.96,3.43-6.58,3.42c-1.18-0.01-2.62-0.41-2.84-1.56"/>
<path class="st7" d="M147.03,169.53c0.63,6.14-0.1,12.41-2.1,18.24"/>
<path class="st7" d="M156.08,162.09c1.41,0.07,2.63,1.05,3.48,2.17c0.85,1.12,1.45,2.43,2.3,3.55c0.85,1.13,2.05,2.12,3.46,2.21"/>
<path class="st7" d="M166.06,163.58c0.6,1.96,2.02,3.66,3.84,4.6"/>
<path class="st7" d="M171.96,162.69c-0.04,1.01,0.58,2.01,1.5,2.41"/>
<path class="st7" d="M151.75,210.8c0.3-0.77,0.6-1.53,0.9-2.3c4.25-0.07,8.45-1.95,11.34-5.08"/>
<path class="st7" d="M158.22,201.46c0.19,8.39,2.22,16.73,5.89,24.28"/>
<path class="st7" d="M169.4,207.86c-1.14,5.48-3.76,10.64-7.51,14.78c-0.66,0.73-1.38,1.44-2.27,1.86s-2.01,0.48-2.83-0.07
	c-0.89-0.59-1.24-1.76-1.14-2.83c0.1-1.06,0.59-2.05,1.08-3c1.07-2.1,2.42-4.36,4.68-5.02c1.55-0.45,3.21-0.03,4.76,0.42
	c1.58,0.46,3.21,0.98,4.44,2.07c1.24,1.09,1.98,2.91,1.36,4.43"/>
<path class="st7" d="M182.48,206.35c-0.41,1.99,0.42,4.19,2.05,5.41"/>
<path class="st7" d="M190.29,201.03c3.07,2.66,5.04,6.54,5.39,10.58c0.34,4.04-0.95,8.2-3.52,11.34"/>
<path class="st7" d="M208.69,201.41c1.01,0.78,2.45,0.38,3.65-0.06c2.71-0.98,5.42-1.96,8.12-2.94"/>
<path class="st7" d="M211.22,208.65c1.48,0.31,2.95-0.43,4.27-1.15c2.36-1.28,4.73-2.57,6.85-4.22"/>
<path class="st7" d="M215.19,193.24c-0.92,2.76,0.23,5.77,1.61,8.34c1.38,2.57,3.06,5.13,3.25,8.03c0.15,2.3-0.64,4.54-1.43,6.71
	c-0.22,0.61-0.46,1.24-0.93,1.67c-0.55,0.5-1.35,0.66-2.09,0.57c-0.74-0.09-1.43-0.41-2.09-0.75c-0.75-0.39-1.5-0.84-1.99-1.53
	c-0.49-0.68-0.67-1.66-0.23-2.37c0.54-0.87,1.7-1.05,2.72-1.12c1.63-0.12,3.26-0.19,4.9-0.21c1.23-0.02,2.48-0.01,3.65,0.37
	c1.17,0.38,2.26,1.18,2.69,2.34"/>
<path class="st7" d="M223.91,204.35c8.02-2.72,16.26-4.79,24.61-6.19"/>
<path class="st7" d="M237.16,196.33c0.16,3.12,0.94,6.21,2.29,9.03c0.69,1.45,1.72,2.96,3.29,3.26c0.92,0.17,1.87-0.11,2.67-0.59
	c0.8-0.48,1.47-1.15,2.13-1.81"/>
<path class="st7" d="M245.81,192.09c-0.36,3.42,0.29,6.94,1.84,10.01"/>
<path class="st7" d="M263.47,186.5c1.18,3.43,1.37,7.13,1.04,10.74c-0.33,3.61-1.16,7.15-2,10.67c0.42-1.95,1.16-3.82,2.18-5.53
	c0.35-0.58,0.83-1.2,1.5-1.24c0.68-0.04,1.22,0.53,1.71,1.01c1.27,1.26,2.82,2.22,4.51,2.8c0.79,0.27,1.63,0.46,2.46,0.38
	s1.67-0.46,2.15-1.14c0.68-0.95,0.57-2.24,0.38-3.4c-0.2-1.26-0.46-2.52-0.76-3.76"/>
<path class="st10" d="M136.6,96.89c-0.41-0.18-0.59-0.69-0.49-1.12c0.1-0.43,0.43-0.78,0.81-1.01c0.37-0.23,0.81-0.36,1.24-0.31
	c0.43,0.05,0.85,0.3,1.03,0.7c0.19,0.4,0.11,0.89-0.15,1.25c-0.26,0.36-0.68,0.58-1.11,0.65C137.49,97.12,137.03,97.08,136.6,96.89z
	"/>
<path class="st10" d="M110.92,97.17c-0.73-0.3-1.22-1.09-1.19-1.88c0.02-0.43,0.2-0.86,0.55-1.1c0.37-0.25,0.88-0.25,1.26-0.04
	s0.65,0.63,0.73,1.06s-0.02,0.9-0.23,1.29c-0.11,0.2-0.25,0.39-0.44,0.51C111.42,97.14,111.15,97.27,110.92,97.17z"/>
<path class="st7" d="M111,183.51c-0.2,0.41,0.04,0.93,0.41,1.2c0.37,0.26,0.85,0.34,1.3,0.39c1.67,0.21,3.35,0.32,5.03,0.33"/>
<path class="st7" d="M58.45,200.51"/>
<path class="st11" d="M43.74,228.54c-0.2-6.35,0.06-12.72,0.78-19.04c0.08-0.66,0.16-1.33,0.49-1.91c0.33-0.57,0.95-1.03,1.61-0.95
	c1.09,4.27,2.18,8.55,3.27,12.82c0.28,1.1,0.59,2.26,1.41,3.06c1.24,1.21,3.2,1.18,4.93,1.08c4.01-0.25,8.02-0.49,12.04-0.74
	c0.68-0.04,1.56,0.04,1.76,0.7c0.12,0.41-0.11,0.83-0.34,1.18c-1.82,2.72-4.6,4.78-7.72,5.73c-1.47,0.45-3.26,0.88-3.73,2.34
	c-0.4,1.24,0.44,2.51,1.18,3.59c2.53,3.7,4.4,7.85,5.49,12.2c-6.17-2.23-11.01-7.03-15.64-11.68c-3.19,5.41-6.43,10.87-10.82,15.36
	c-0.73-3.38-0.57-6.95,0.46-10.25c0.46-1.47,1.02-3.3-0.08-4.39c-0.62-0.62-1.56-0.73-2.42-0.88c-2.43-0.4-4.78-1.26-6.9-2.52
	c-0.51-0.3-1.08-0.84-0.85-1.38c0.13-0.3,0.47-0.45,0.77-0.58C34.1,230.41,38.82,228.65,43.74,228.54z"/>
</svg>
