<?xml version="1.0" encoding="utf-8"?>
<!-- Generator: Adobe Illustrator 25.2.0, SVG Export Plug-In . SVG Version: 6.00 Build 0)  -->
<svg version="1.1" id="レイヤー_2" xmlns="http://www.w3.org/2000/svg" xmlns:xlink="http://www.w3.org/1999/xlink" x="0px"
	 y="0px" viewBox="0 0 300 300" style="enable-background:new 0 0 300 300;" xml:space="preserve">
<style type="text/css">
	.st0{fill:#FF00CF;stroke:#FF00CF;stroke-width:2;stroke-miterlimit:10;}
	.st1{fill:#FF5F4A;stroke:#000000;stroke-width:2;stroke-miterlimit:10;}
	.st2{fill:none;stroke:#000000;stroke-width:2;stroke-miterlimit:10;}
	.st3{fill:#FFFFFF;stroke:#000000;stroke-width:2;stroke-miterlimit:10;}
	.st4{fill:#FF9FF8;stroke:#000000;stroke-width:2;stroke-miterlimit:10;}
	.st5{fill:#EFDFCA;stroke:#000000;stroke-width:2;stroke-miterlimit:10;}
	.st6{fill:#ACEA00;stroke:#000000;stroke-width:2;stroke-miterlimit:10;}
	.st7{stroke:#000000;stroke-width:2;stroke-miterlimit:10;}
	.st8{fill:#00FFBC;stroke:#000000;stroke-width:2;stroke-miterlimit:10;}
	.st9{fill:#10E9FF;stroke:#000000;stroke-width:2;stroke-miterlimit:10;}
	.st10{fill:#0D47FF;stroke:#000000;stroke-width:2;stroke-miterlimit:10;}
	.st11{fill:#FF00CF;stroke:#000000;stroke-width:2;stroke-miterlimit:10;}
	.st12{fill:none;stroke:#FFFFFF;stroke-width:2;stroke-miterlimit:10;}
</style>
<path class="st0" d="M133.36,100.38c1.31-2.17,2.9-4.17,4.72-5.93c0.34-0.33,0.78-0.68,1.24-0.55c0.29,0.08,0.5,0.33,0.68,0.58
	c1.05,1.41,1.98,2.91,2.76,4.49C139.79,99.02,136.83,99.39,133.36,100.38z"/>
<path class="st1" d="M85.77,178.78c-6.21-13.84-5.25-30.44,1.52-44.01c6.76-13.58,18.98-24.12,32.99-29.93s29.7-7.06,44.69-4.74
	c8.43,1.31,16.79,3.76,24.07,8.22c12.01,7.37,20.44,20.13,23.07,33.97s-0.41,28.58-8.4,39.71c6.99,1.82,12.82,7.54,14.78,14.49
	c1.96,6.95-0.03,14.87-5.09,20.1c-1.67-7.12-4.19-14.05-7.83-20.62c-5.22,6.31-9.07,12.7-10.63,20.74
	c-0.18-0.18-0.27,1.86-0.59,2.18c-5.08-8.07-5.71-19.5-1.61-28.11c-14.45,9.11-31.33,14.32-48.4,14.95
	c-17.07,0.63-21.54,1.41-36.62-6.61c-2.48-1.32-12.2-5.29-14.19-7.28C89.91,188.24,85.77,183.71,85.77,178.78z"/>
<path class="st2" d="M106.7,41.29"/>
<path class="st3" d="M148.41,141.71c-4.83-2.32-7.73-8.01-6.94-13.31c0.79-5.3,5.11-9.84,10.33-11.07s11.02,0.84,14.42,4.98
	c2.33,2.83,3.57,6.74,2.56,10.27c-0.81,2.84-2.94,5.12-5.31,6.88C158.83,142.9,152.84,143.83,148.41,141.71z"/>
<path class="st3" d="M110.18,142.59c-5.18-4.21-7.06-12.1-4.1-18.09c2.96-5.99,10.58-9.29,16.9-7.14
	c6.32,2.15,10.36,9.64,8.46,16.04c-0.9,3.04-2.95,5.68-5.53,7.51C121.22,144.23,114.13,145.78,110.18,142.59z"/>
<path class="st2" d="M112.78,124.47c-0.5-0.42-0.91-1.09-0.67-1.7c0.28-0.7,1.32-0.82,1.9-0.35c0.55,0.46,0.7,1.34,0.32,1.95
	c-0.38,0.61-1.25,0.86-1.89,0.53s-0.96-1.17-0.68-1.83c0.28-0.66,1.13-1.02,1.8-0.75S114.6,123.44,112.78,124.47z"/>
<path class="st2" d="M148.72,124.83c-0.75,0-1.39-0.79-1.24-1.52s1.04-1.21,1.73-0.93c0.69,0.28,0.99,1.25,0.58,1.88
	c-0.24,0.37-0.71,0.6-1.14,0.5c-0.43-0.09-0.77-0.54-0.69-0.98c0.06-0.33,0.41-0.61,0.72-0.5S149.04,123.94,148.72,124.83z"/>
<path class="st2" d="M161.59,87.28"/>
<path class="st4" d="M113.33,165.18c-0.78-1.18-1.54-2.4-1.84-3.78s-0.04-2.96,1-3.92c0.99-0.91,2.43-1.07,3.77-1.19
	c3.08-0.27,6.16-0.55,9.25-0.82c4.94-0.44,9.88-0.88,14.84-0.72c2.17,0.07,4.39,0.27,6.4,1.09s3.83,2.37,4.52,4.43
	c1.08,3.19-0.84,6.8-3.67,8.63s-6.32,2.25-9.69,2.37c-3.52,0.12-7.08-0.03-10.53-0.76C122.26,169.44,117.49,167.14,113.33,165.18z"
	/>
<path class="st5" d="M143.02,98.71c13.53-1.28,27.39,1.03,39.78,6.64c1.9,0.86,3.91,1.83,5.99,1.56c1.55-0.2,2.93-1.07,4.13-2.07
	c2.15-1.77,3.93-4.05,4.81-6.69c1.08-3.24,0.74-6.76,0.38-10.16c-0.26-2.44-0.53-4.93-1.58-7.14c-1.18-2.48-3.26-4.42-5.5-6.01
	c-5.17-3.69-11.35-5.81-17.63-6.68c-6.29-0.87-12.7-0.51-18.97,0.46c-2.21,0.34-4.44,0.77-6.45,1.73c-2.02,0.97-3.82,2.54-4.65,4.62
	c-2.02-1.74-5.26-1.83-7.38-0.21c-2.11,1.62-2.87,4.78-1.72,7.18c1.15,2.4,4.09,3.78,6.68,3.15c-1.11,2.82-1.6,5.89-1.36,8.91
	C139.52,94,139.5,94,143.02,98.71z"/>
<path class="st1" d="M81.62,161.51c-2.65,5.62-4.29,11.69-7.17,16.13c-1.03,1.59-2.48,2.86-3.83,4.19
	c-4.63,4.57-8.27,10.15-10.59,16.22c-1.66,4.34-2.58,9.44-0.24,13.45c5.15-5.61,10.29-11.22,15.44-16.82
	c0.6,6.57,0.59,13.2-0.06,19.77c4.23-1.12,7.88-4.26,9.61-8.28s1.52-8.83-0.58-12.67c-0.91-1.67-2.16-3.22-2.5-5.09
	c-0.54-3.08,1.55-5.95,3.34-9.18c-2-3.66-2.66-7.88-3.29-12C81.57,165.89,81.88,162.55,81.62,161.51z"/>
<path class="st2" d="M222.55,76.42"/>
<path class="st6" d="M115.55,107.01c3.11-1.37,6.21-2.74,9.32-4.11c-1.01-3.55-1.5-7.25-2.72-10.74c-1.22-3.49-3.36-6.87-6.67-8.49
	c-3.81-1.87-8.33-1.08-12.5-0.24c-0.28-2.16-2.37-3.83-4.54-3.94c-2.17-0.11-4.28,1.15-5.5,2.95c-1.22,1.8-1.64,4.06-1.49,6.23
	c0.15,2.21,0.92,4.48,2.61,5.9c1.69,1.43,4.42,1.72,6.08,0.25c0.94-0.83,1.42-2.08,2.32-2.95c1.54-1.5,4.08-1.58,6.01-0.65
	c1.93,0.93,3.34,2.7,4.41,4.56C114.83,99.19,115.85,103.13,115.55,107.01z"/>
<path class="st2" d="M201.31,29.31"/>
<path class="st6" d="M153.5,98.86c0.27-3.77-0.12-7.72-2.05-10.97c-1.92-3.25-5.63-5.63-9.38-5.15c0.02,1.33-1.27,2.43-2.6,2.54
	c-1.33,0.1-2.61-0.6-3.56-1.54c-1.61-1.61-2.41-4.04-1.88-6.25c0.53-2.21,2.47-4.07,4.73-4.31c2.26-0.24,4.63,1.3,5.17,3.51
	c5.38,0.54,10.5,3.38,13.81,7.66c3.31,4.28,4.77,9.95,4.09,15.24C159.24,99.17,156.62,98.98,153.5,98.86z"/>
<path class="st1" d="M95.04,193.47c1.47,0.73,2.93,1.47,4.4,2.2c0.4,0.2,0.82,0.42,1.04,0.81c0.33,0.58,0.1,1.29-0.12,1.92
	c-3.12,8.62-4.9,17.72-5.29,26.9c2.3,2.22,2.82,6.05,1.34,9.02c-3.3,2.3-6.91,4.16-10.7,5.52c-0.5,0.18-1.06,0.35-1.55,0.14
	c-0.5-0.22-0.76-0.78-0.86-1.32c-0.36-2.01,0.91-3.93,2.18-5.53c2.07-2.61,4.29-5.1,6.56-7.46
	C89.65,214.92,91.11,203.37,95.04,193.47z"/>
<path class="st1" d="M158.84,204.33c2.55-1.02,5.3-1.52,8.04-1.47c-2.61,10.84-3.78,22.02-3.63,33.55c1.22,0.56,1.9,1.99,1.81,3.33
	c-0.09,1.34-0.83,2.57-1.8,3.5c-0.97,0.93-2.16,1.59-3.34,2.22c-1.9,1-3.84,1.92-5.89,2.56c-1.19,0.37-2.62,0.58-3.54-0.25
	c-1.08-0.98-0.75-2.76-0.06-4.04c1.4-2.61,3.84-4.49,6.2-6.38C156.3,226.12,157.42,214.86,158.84,204.33z"/>
<path class="st1" d="M116.7,203.88c1.8,0.5,3.61,1.01,5.41,1.51c0.47,0.13,0.98,0.29,1.25,0.71c0.28,0.43,0.17,1.02-0.08,1.46
	c-0.25,0.45-0.64,0.8-0.96,1.2c-1.45,1.77-1.59,4.24-1.64,6.53c-0.16,6.92-0.08,13.84-0.27,20.86c0.56,0.49,0.51,1.43,0.07,2.04
	c-0.44,0.6-1.15,0.93-1.86,1.18c-1.27,0.45-2.61,0.72-3.96,0.8c-0.9,0.05-1.99-0.09-2.41-0.89c-0.42-0.8,0.09-1.77,0.65-2.47
	c1.14-1.41,2.59-2.56,4.35-3.55C115.27,223.64,115.34,213.59,116.7,203.88z"/>
<path class="st1" d="M179.42,198.08c0.73,0.12,1.35-0.49,1.93-0.94c0.59-0.45,1.57-0.7,1.96-0.07c0.17,0.28,0.15,0.63,0.13,0.95
	c-0.68,9.5,0.95,19.16,4.55,28.04c0.71,0.39,1.01,1.3,0.92,2.11c-0.09,0.81-0.49,1.55-0.88,2.26c-0.96,1.74-1.91,3.47-2.87,5.21
	c-0.23,0.43-0.55,0.91-1.04,0.92c-0.6,0.02-0.96-0.66-1.09-1.25c-0.66-2.82,0.12-5.75,0.9-8.54
	C180.58,217.53,179.18,207.57,179.42,198.08z"/>
<path class="st0" d="M177.51,109.44c1.92-1.12,3.72-2.46,5.51-3.86c0.16,2.2,0.32,4.41,0.52,6.72c1.78-1.19,3.34-2.79,4.19-4.76
	c0.85-1.97,0.92-4.32-0.08-6.21c-1-1.89-3.16-3.2-5.29-2.92c-2.36,0.31-4.16,2.4-4.86,4.67c-0.7,2.27-0.52,4.71-0.34,7.14
	C177.15,110.14,177.15,110.05,177.51,109.44z"/>
<path class="st7" d="M170.63,78.99c0.25-2.91,0.49-5.82,0.74-8.74c0.05-0.61,0.14-1.29,0.63-1.66c0.52-0.39,1.25-0.26,1.87-0.09
	c2.73,0.73,5.38,1.75,7.9,3.02c0.45,0.23,0.94,0.5,1.13,0.97c0.16,0.38,0.09,0.82,0.02,1.23c-0.32,1.88-0.64,3.76-0.96,5.64
	c-0.08,0.46-0.17,0.95-0.49,1.3c-0.61,0.68-1.71,0.49-2.59,0.26C175.87,80.17,172.79,79.65,170.63,78.99z"/>
<path class="st7" d="M148.39,77.28c-0.2-2.18-0.22-4.38-0.04-6.56c0.04-0.54,0.12-1.13,0.5-1.52c0.39-0.39,0.98-0.47,1.53-0.52
	c3.91-0.38,7.85-0.48,11.77-0.29c0.27,0.01,0.57,0.03,0.79,0.2c0.3,0.23,0.35,0.65,0.38,1.03c0.12,2.06,0.05,4.13-0.23,6.17
	c-0.06,0.47-0.15,0.97-0.48,1.3c-0.42,0.42-1.08,0.46-1.67,0.47C156.74,77.62,152.56,77.68,148.39,77.28z"/>
<path class="st2" d="M161.46,90.44c4.35,1.05,9.17-0.04,12.64-2.86"/>
<path class="st2" d="M164.12,73.29c2.2,0.23,4.42,0.35,6.64,0.36"/>
<path class="st2" d="M183.05,77.05c3.37,0.76,6.75,1.52,10.12,2.27c0.88,0.2,1.78,0.4,2.54,0.89c0.76,0.48,1.37,1.31,1.34,2.21"/>
<path class="st8" d="M146,71.41c-2.13-1.59-2.87-4.63-2.15-7.19c0.72-2.56,2.7-4.63,5.02-5.95c2.31-1.31,4.94-1.95,7.57-2.39
	c5.42-0.91,10.96-1.06,16.42-0.43c5.6,0.64,11.17,2.13,16.03,4.98c4.86,2.85,8.98,7.16,11,12.42c2.02,5.26,1.78,11.49-0.84,16.44
	c-0.39-6.82-4.85-12.97-10.64-16.59c-5.78-3.62-12.74-4.98-19.56-5.18C160.88,67.27,152.88,68.54,146,71.41z"/>
<path class="st8" d="M146,71.41c-2.13-1.59-2.87-4.63-2.15-7.19c0.72-2.56,2.7-4.63,5.02-5.95c2.31-1.31,4.94-1.95,7.57-2.39
	c5.42-0.91,10.96-1.06,16.42-0.43c5.6,0.64,11.17,2.13,16.03,4.98c4.86,2.85,8.98,7.16,11,12.42c2.02,5.26,1.78,11.49-0.84,16.44
	c-0.39-6.82-4.85-12.97-10.64-16.59c-5.78-3.62-12.74-4.98-19.56-5.18C160.88,67.27,152.88,68.54,146,71.41z"/>
<path class="st9" d="M155.4,55.26c-0.52-1.68,0.17-3.56,1.37-4.85c1.2-1.29,2.84-2.07,4.5-2.67c8.09-2.93,17.26-2.09,25.19,1.24
	c4.57,1.92,8.91,4.75,11.69,8.85c2.78,4.1,3.78,9.62,2.06,14.1c-0.44-1.14-1.25-2.09-2.06-3.02c-1.06-1.22-2.12-2.44-3.17-3.66
	c-1.05-1.21-2.11-2.43-3.34-3.46c-1.34-1.12-2.87-2.01-4.43-2.8C177.58,54.14,166.14,52.65,155.4,55.26z"/>
<path class="st10" d="M170.42,45.58c0.51-1.47,1.73-2.62,3.12-3.33c1.39-0.7,2.95-1,4.5-1.18c4.75-0.55,9.62-0.03,14.15,1.5
	c2.47,0.84,4.9,2.01,6.74,3.86c2.18,2.2,3.4,5.24,3.69,8.33c0.29,3.08-0.3,6.2-1.35,9.12c-0.08-0.22-0.15-0.43-0.38-0.65
	c0.01-2.38-1.06-4.67-2.57-6.51c-1.52-1.83-3.47-3.26-5.47-4.55C186.3,47.93,178.61,44.83,170.42,45.58z"/>
<path class="st11" d="M184.46,40.36c0.23-1.62,1.32-3.05,2.72-3.89s3.08-1.16,4.71-1.1c4.61,0.16,8.86,3.2,11.02,7.27
	c0.8,1.51,1.35,3.18,1.37,4.88c0.02,1.71-0.53,3.45-1.69,4.7c-1.03-3.78-3.85-6.91-7.26-8.83C191.94,41.46,188,40.65,184.46,40.36z"
	/>
<path class="st2" d="M192.94,190.32c-0.75-5.5-0.86-11.09-0.32-16.61"/>
<path class="st2" d="M202.77,182.1c-1.06-3.72-1.13-7.73-0.21-11.49"/>
<g>
	<path class="st12" d="M148.73,74.48c3.3-1.97,6.6-3.94,9.9-5.9"/>
	<path class="st12" d="M149.48,75.88c3.68-2.2,7.17-4.46,10.68-6.87"/>
	<path class="st12" d="M160.34,70.06c-0.71-0.76-1.37-1.56-1.98-2.4"/>
	<path class="st12" d="M150.16,76.51c-0.69-0.91-1.38-1.81-2.07-2.72"/>
</g>
<g>
	<path class="st12" d="M171.17,76.29c3.52-1.7,7.05-3.39,10.57-5.09"/>
	<path class="st12" d="M171.9,77.62c3.93-1.9,7.67-3.86,11.43-5.95"/>
	<path class="st12" d="M183.48,72.65c-0.72-0.74-1.38-1.52-1.98-2.32"/>
	<path class="st12" d="M172.59,78.24c-0.69-0.87-1.38-1.75-2.07-2.62"/>
</g>
<path class="st2" d="M152.53,104.46c0.44-1.94,0.88-3.88,1.32-5.82"/>
<path class="st2" d="M161.88,99.26c-0.09,1.37-0.19,2.73-0.28,4.1"/>
<path class="st2" d="M115.83,106.62c-0.23,1.81-0.47,3.63-0.7,5.44"/>
<path class="st2" d="M124.89,102.94c0.22,0.84,0.43,1.68,0.65,2.51"/>
</svg>
