
<svg version="1.1" xmlns="http://www.w3.org/2000/svg" xmlns:xlink="http://www.w3.org/1999/xlink" x="0px" y="0px"
	 viewBox="0 0 1242 2208" style="enable-background:new 0 0 1242 2208;" xml:space="preserve">
<style type="text/css">
	.st0{fill:none;}
	.st1{fill:#1E1C1B;}
	.st2{fill:#333333;stroke:#1E1C1B;stroke-width:0.5;stroke-miterlimit:10;}
	.st3{fill:url(#新規パターン_2);stroke:#1E1C1B;stroke-width:0.5;stroke-miterlimit:10;}
</style>
<pattern  width="306.47" height="199.88" patternUnits="userSpaceOnUse" id="新規パターン_2" viewBox="96.84 -199.88 306.47 199.88" style="overflow:visible;">
	<g>
		<rect x="96.84" y="-199.88" class="st0" width="306.47" height="199.88"/>
		<g>
			<g>
				<rect x="205.73" y="-60.06" class="st1" width="139" height="53.5"/>
				<g>
					<path class="st1" d="M331.58-3.57c1.95-0.01-5.43-0.49-1.27-0.61c-2.89-0.36-8.91,0.11-12.56,0.04
						c-0.43-0.57,2.8-1.08-3.73-1.51c-8.74-0.32-1.1,1.16-8.91,1.22l5.34,0.15c-5.35,0.95-18.07,0.32-27.23,0.54
						c-6.87-0.67-13.08-2.07-22.05-1.79c0.49-0.09,2.7-0.29,2.26-0.59c-1.65-0.27-4.56-0.13-6.27-0.01c-4.69,0.65,1.31,0.9-0.45,1.4
						c-3.91,0.32-7.6,0.79-13.1,0.45l-6.82-1.24c-4.57,1.57-11.83,0.03-21.08,0.55c-0.64-0.29-2.24-0.33-4.13-0.3
						c-1.02,0.02-2.13,0.05-3.21,0.08c-1.41,0.02-2.8,0.04-4.04,0.05c0-2.09,0.07-3.84,0.31-4.56c0-0.39,0.01-0.6,0.02-0.82
						c0.02-0.21,0.04-0.4,0.07-0.56c0.06-0.33,0.15-0.56,0.25-0.73c0.21-0.34,0.51-0.41,0.82-0.46c0.63-0.1,1.33-0.1,1.64-1.86
						c0.52-6.15,0.37,4.26,0.89-1.89c0.15,3.12-0.31,3.79-0.82,4.53c-0.25,0.36-0.52,0.77-0.72,1.46c-0.21,0.5-0.35,1.4-0.37,2.8
						c0.39,0,0.83,0,1.32-0.02c-0.06-0.1-0.12-0.2-0.15-0.3c0.37-0.06,0.73-0.1,1.1-0.12c0.18-0.01,0.37-0.01,0.56-0.02
						c0.28,0,0.56,0,0.85,0c1.16,0.01,2.38,0.06,3.56,0.09c2.37,0.07,4.6,0.1,5.87-0.32c9.63,0.17-0.16,1.16,4.56,1.83
						c2.75-0.68,13.65-0.92,14.04-1.94l-7.49,0.01c1.21-0.03,0.28-0.24,0.77-0.33c5.17,0.97,18.78-2.97,14.97-0.03
						c-0.99,0.18-3.63,0.08-4.41,0.41c0.38,0.69,5.51,0.34,9.36,0.41c3.96-0.71,8.49-1.89,14.7-1.49c2.15,0.18,0.88,0.6,3.02,0.78
						c12.66-0.75,12.14,0.89,25.46,0.55c8.32,0.85,18.5,0.25,26.81,1.1c-1.27-0.61,5.51-0.28,7.21-0.2
						c1.18,0.28,5.77,0.72,9.08,0.56c-1.95,0.01-0.76,0.29-2.12,0.45c7.46-0.29,8.83,0.65,9.25,1.23
						C338.96-4.2,338.37-3.24,331.58-3.57z"/>
					<path class="st1" d="M203.99-33.25c1.24,1.49,0.4-12.64,1.79-5.99c0.23-4.55,0.01-6.63-0.35-9.18
						c-0.43,5.22-0.18-1.27-0.74,1.53c-0.07-2.22-0.15-4.43-0.22-6.63c-0.03-1.13-0.06-2.26-0.09-3.38
						c-0.02-1.53-0.05-3.06-0.07-4.58c3.49-0.05,6.94-0.09,10.37-0.13c2.96-0.02,5.91-0.04,8.83-0.05
						c5.84-0.01,11.61,0.02,17.31,0.07c11.57,0.92,21.81,0.05,32.88-0.87c6.82,0.35,2.39,1.28,0.84,1.94l8.57,0.03l-8.65,0.79
						c-0.28,0.48,3.6,0.51,5.75,0.87l2.41-0.12c-2.84,2.24-17.14-0.05-25.31,0.6c9.84-0.15-1.53-0.74,2.63-1.18l-3.08-0.08
						c2.75-0.02,8.17-0.65,15.27-0.78c-19.74-0.27-39.36,0.62-55.57,1.69c0.47-0.14,1.74-0.32,0.27-0.48
						c-2.65-0.02-4.81,0.22-6.61,0.52c-0.22,0.04-0.44,0.08-0.66,0.12l-0.31,0.06l-0.17,0.06c-0.21,0.08-0.39,0.16-0.53,0.24
						c-0.28,0.16-0.43,0.31-0.54,0.42c0.04,0.12,0.08,0.23,0.12,0.34l-0.1-0.32c0.13-0.09,0.3-0.18,0.52-0.26
						c-0.28-0.08-0.6-0.13-0.94-0.15c-0.03,0.38-0.02,0.87,0.01,1.34l0.03,0.41c0.01,0.26,0.03,0.51,0.04,0.77
						c0.03,0.52,0.06,1.04,0.09,1.57c0.13,2.1,0.3,4.21,0.34,6.05c-0.57,4.75-1.23,7.89-0.82,15.92l-0.48-0.27l-0.25,6.49
						c-0.08-1.61-0.28-0.95-0.38-0.61c-0.14-0.47-0.04-0.8,0.02-1.94c-0.72-0.41-1.71,2.92-2.23,6.53c0.06-1.14,0.12-2.27,0.07-3.08
						c-0.31,2.94-0.84,13.18-1.57,8.08C202.52-25.5,204.16-25.35,203.99-33.25z"/>
					<path class="st1" d="M216.16-8.08c-6.21-0.4,1.76-0.5,0.39-1.01l5.56-0.05C222.28-8.6,216.72-8.56,216.16-8.08z"/>
					<path class="st1" d="M311.98-62.57c0.53,0.44,4.55,0.23,6.82,0.35c4.49-0.35,5.57-0.87,12.06-0.62
						c-5.04,1.31,5.33,1.59,9.94,2.4c-3.21,0.16-9.12,0.93-14.19,0.26c0.61-0.38-3.94-0.61-6.21-0.73
						c-3.49,0.64,2.78,1.95-11.41,2.22c-2.61-0.22-9.04,0.11-8.63-0.61c-1.8-0.26-3.49,0.65-5.48,0.05l-1-0.3l8.84-0.45
						c0.33,0.1,1,0.3,1.8,0.26c-1.67-0.5,9.59-1.07,3.85-1.94l-12.12,0.04c-2.94-0.32,1.21-0.76,5.57-0.87
						C308.16-62.03,307.82-62.12,311.98-62.57z"/>
					<polygon class="st1" points="281.77,-60.9 281.11,-61.1 291.75,-61.3 					"/>
					<path class="st1" d="M347.52-53.25c-0.11-1.04-0.1-2.01-0.09-2.98c0-0.78,0-1.56,0-2.35c-0.01-0.87-0.04-1.74-0.09-2.6
						c0.31-0.38,0.61-0.78,0.92-1.2l-0.18,3.18l-0.09,1.53l-0.05,0.75l-0.02,0.37l-0.02,0.2L347.52-53.25z"/>
					<path class="st1" d="M240.9-57.64c-2.82,0.84-9.97,0.4-12.32,1.1c1.94,0.02,1.27-0.18,1.74-0.32l-3.74-0.27
						C231.2-57.73,235.75-57.5,240.9-57.64z"/>
					<path class="st1" d="M347.43-32.24c0.13,7.1,1.13,8.45,0.63,16.74c-0.26,1.8-0.46-2.22-0.68,0.39
						c-0.22,2.6,0.16,3.21,0.35,4.49l0.3-1c-0.6,2-1.09,8.35-2.07,5.06c0.28-10.37-1.94-15.14-0.96-23.17l0.98-1.4l-0.25-4.82
						c0.1-0.33,0.34-0.19,0.26-1.8c-0.41-3.35-0.46,2.47-0.94,2.2l-0.59-9.31c0.06-1.14,0.28,0.94,0.38,0.61
						c0.47-4.41-0.95-7.17-0.1-10.98l0.53,5.76c0.03-2.02,0.09-3.89,0.17-5.65c0.09-2.1,0.18-4.05,0.27-5.91
						c-1.46-0.08-2.87-0.15-4.23-0.22c-1.09-0.07-2.15-0.15-3.2-0.22c0.58,0,1.14,0.01,1.7,0.01c0.61,0,1.21-0.01,1.8-0.01
						c1.53-0.03,3.01-0.06,4.45-0.09c0.03,0.89,0.06,1.76,0.09,2.62c0.04,0.86,0.08,1.71,0.11,2.55c0.09,1.18,0.19,2.33,0.28,3.46
						c0.2,2.26,0.39,4.43,0.59,6.61C347.64-41.95,347.84-37.53,347.43-32.24z"/>
				</g>
			</g>
			<g>
				<rect x="359.73" y="-60.06" class="st1" width="139" height="53.5"/>
				<g>
					<path class="st1" d="M372.88-63.06c-1.95,0.01,5.43,0.49,1.27,0.61c2.89,0.36,8.91-0.11,12.56-0.04
						c0.43,0.57-2.8,1.08,3.73,1.51c8.74,0.32,1.1-1.16,8.91-1.22l-5.34-0.15c5.35-0.95,18.07-0.32,27.23-0.54
						c6.87,0.67,13.08,2.07,22.05,1.79c-0.49,0.09-2.7,0.29-2.26,0.59c1.65,0.27,4.56,0.13,6.27,0.01c4.69-0.65-1.31-0.9,0.45-1.4
						c3.91-0.32,7.6-0.79,13.1-0.45l6.82,1.24c4.57-1.57,11.83-0.03,21.08-0.55c0.64,0.29,2.24,0.33,4.13,0.3
						c1.02-0.02,2.13-0.05,3.21-0.08c1.41-0.02,2.8-0.04,4.04-0.05c0,2.09-0.07,3.84-0.31,4.56c0,0.39-0.01,0.6-0.02,0.82
						c-0.02,0.21-0.04,0.4-0.07,0.56c-0.06,0.33-0.15,0.56-0.25,0.73c-0.21,0.34-0.51,0.41-0.82,0.46c-0.63,0.1-1.33,0.1-1.64,1.86
						c-0.52,6.15-0.37-4.26-0.89,1.89c-0.15-3.12,0.31-3.79,0.82-4.53c0.25-0.36,0.52-0.77,0.72-1.46c0.21-0.5,0.35-1.4,0.37-2.8
						c-0.39,0-0.83,0-1.32,0.02c0.06,0.1,0.12,0.2,0.15,0.3c-0.37,0.06-0.73,0.1-1.1,0.12c-0.18,0.01-0.37,0.01-0.56,0.02
						c-0.28,0-0.56,0-0.85,0c-1.16-0.01-2.38-0.06-3.56-0.09c-2.37-0.07-4.6-0.1-5.87,0.32c-9.63-0.17,0.16-1.16-4.56-1.83
						c-2.75,0.68-13.65,0.92-14.04,1.94l7.49-0.01c-1.21,0.03-0.28,0.24-0.77,0.33c-5.17-0.97-18.78,2.97-14.97,0.03
						c0.99-0.18,3.63-0.08,4.41-0.41c-0.38-0.69-5.51-0.34-9.36-0.41c-3.96,0.71-8.49,1.89-14.7,1.49c-2.15-0.18-0.88-0.6-3.02-0.78
						c-12.66,0.75-12.14-0.89-25.46-0.55c-8.32-0.85-18.5-0.25-26.81-1.1c1.27,0.61-5.51,0.28-7.21,0.2
						c-1.18-0.28-5.77-0.72-9.08-0.56c1.95-0.01,0.76-0.29,2.12-0.45c-7.46,0.29-8.83-0.65-9.25-1.23
						C365.51-62.43,366.09-63.39,372.88-63.06z"/>
					<path class="st1" d="M392.48-4.06c-0.53-0.44-4.55-0.23-6.82-0.35c-4.49,0.35-5.57,0.87-12.06,0.62
						c5.04-1.31-5.33-1.59-9.94-2.4c3.21-0.16,9.12-0.93,14.19-0.26c-0.61,0.38,3.94,0.61,6.21,0.73c3.49-0.64-2.78-1.95,11.41-2.22
						c2.61,0.22,9.04-0.11,8.63,0.61c1.8,0.26,3.49-0.65,5.48-0.05l1,0.3l-8.84,0.45c-0.33-0.1-1-0.3-1.8-0.26
						c1.67,0.5-9.59,1.07-3.85,1.94l12.12-0.04c2.94,0.32-1.21,0.76-5.57,0.87C396.3-4.6,396.64-4.5,392.48-4.06z"/>
					<path class="st1" d="M356.94-13.37c0.11,1.04,0.1,2.01,0.09,2.98c0,0.78,0,1.56,0,2.35c0.01,0.87,0.04,1.74,0.09,2.6
						c-0.31,0.38-0.61,0.78-0.92,1.2l0.18-3.18l0.09-1.53l0.05-0.75l0.02-0.37l0.02-0.2L356.94-13.37z"/>
					<path class="st1" d="M357.03-34.39c-0.13-7.1-1.13-8.45-0.63-16.74c0.26-1.8,0.46,2.22,0.68-0.39c0.22-2.6-0.16-3.21-0.35-4.49
						l-0.3,1c0.6-2,1.09-8.35,2.07-5.06c-0.28,10.37,1.94,15.14,0.96,23.17l-0.98,1.4l0.25,4.82c-0.1,0.33-0.34,0.19-0.26,1.8
						c0.41,3.35,0.46-2.47,0.94-2.2l0.59,9.31c-0.06,1.14-0.28-0.94-0.38-0.61c-0.47,4.41,0.95,7.17,0.1,10.98l-0.53-5.76
						c-0.03,2.02-0.09,3.89-0.17,5.65c-0.09,2.1-0.18,4.05-0.27,5.91c1.46,0.08,2.87,0.15,4.23,0.22c1.09,0.07,2.15,0.15,3.2,0.22
						c-0.58,0-1.14-0.01-1.7-0.01c-0.61,0-1.21,0.01-1.8,0.01c-1.53,0.03-3.01,0.06-4.45,0.09c-0.03-0.89-0.06-1.76-0.09-2.62
						c-0.04-0.86-0.08-1.71-0.11-2.55c-0.09-1.18-0.19-2.33-0.28-3.46c-0.2-2.26-0.39-4.43-0.59-6.61
						C356.82-24.67,356.62-29.09,357.03-34.39z"/>
				</g>
			</g>
		</g>
		<g>
			<g>
				<rect x="53.26" y="-60.06" class="st1" width="139" height="53.5"/>
				<g>
					<path class="st1" d="M66.41-63.06c-1.95,0.01,5.43,0.49,1.27,0.61c2.89,0.36,8.91-0.11,12.56-0.04
						c0.43,0.57-2.8,1.08,3.73,1.51c8.74,0.32,1.1-1.16,8.91-1.22l-5.34-0.15c5.35-0.95,18.07-0.32,27.23-0.54
						c6.87,0.67,13.08,2.07,22.05,1.79c-0.49,0.09-2.7,0.29-2.26,0.59c1.65,0.27,4.56,0.13,6.27,0.01c4.69-0.65-1.31-0.9,0.45-1.4
						c3.91-0.32,7.6-0.79,13.1-0.45l6.82,1.24c4.57-1.57,11.83-0.03,21.08-0.55c0.64,0.29,2.24,0.33,4.13,0.3
						c1.02-0.02,2.13-0.05,3.21-0.08c1.41-0.02,2.8-0.04,4.04-0.05c0,2.09-0.07,3.84-0.31,4.56c0,0.39-0.01,0.6-0.02,0.82
						c-0.02,0.21-0.04,0.4-0.07,0.56c-0.06,0.33-0.15,0.56-0.25,0.73c-0.21,0.34-0.51,0.41-0.82,0.46c-0.63,0.1-1.33,0.1-1.64,1.86
						c-0.52,6.15-0.37-4.26-0.89,1.89c-0.15-3.12,0.31-3.79,0.82-4.53c0.25-0.36,0.52-0.77,0.72-1.46c0.21-0.5,0.35-1.4,0.37-2.8
						c-0.39,0-0.83,0-1.32,0.02c0.06,0.1,0.12,0.2,0.15,0.3c-0.37,0.06-0.73,0.1-1.1,0.12c-0.18,0.01-0.37,0.01-0.56,0.02
						c-0.28,0-0.56,0-0.85,0c-1.16-0.01-2.38-0.06-3.56-0.09c-2.37-0.07-4.6-0.1-5.87,0.32c-9.63-0.17,0.16-1.16-4.56-1.83
						c-2.75,0.68-13.65,0.92-14.04,1.94l7.49-0.01c-1.21,0.03-0.28,0.24-0.77,0.33c-5.17-0.97-18.78,2.97-14.97,0.03
						c0.99-0.18,3.63-0.08,4.41-0.41c-0.38-0.69-5.51-0.34-9.36-0.41c-3.96,0.71-8.49,1.89-14.7,1.49c-2.15-0.18-0.88-0.6-3.02-0.78
						c-12.66,0.75-12.14-0.89-25.46-0.55c-8.32-0.85-18.5-0.25-26.81-1.1c1.27,0.61-5.51,0.28-7.21,0.2
						c-1.18-0.28-5.77-0.72-9.08-0.56c1.95-0.01,0.76-0.29,2.12-0.45c-7.46,0.29-8.83-0.65-9.25-1.23
						C59.03-62.43,59.62-63.39,66.41-63.06z"/>
					<path class="st1" d="M194-33.38c-1.24-1.49-0.4,12.64-1.79,5.99c-0.23,4.55-0.01,6.63,0.35,9.18c0.43-5.22,0.18,1.27,0.74-1.53
						c0.07,2.22,0.15,4.43,0.22,6.63c0.03,1.13,0.06,2.26,0.09,3.38c0.02,1.53,0.05,3.06,0.07,4.58c-3.49,0.05-6.94,0.09-10.37,0.13
						c-2.96,0.02-5.91,0.04-8.83,0.05c-5.84,0.01-11.61-0.02-17.31-0.07c-11.57-0.92-21.81-0.05-32.88,0.87
						c-6.82-0.35-2.39-1.28-0.84-1.94l-8.57-0.03l8.65-0.79c0.28-0.48-3.6-0.51-5.75-0.87l-2.41,0.12
						c2.84-2.24,17.14,0.05,25.31-0.6c-9.84,0.15,1.53,0.74-2.63,1.18L141.13-7c-2.75,0.02-8.17,0.65-15.27,0.78
						c19.74,0.27,39.36-0.62,55.57-1.69c-0.47,0.14-1.74,0.32-0.27,0.48c2.65,0.02,4.81-0.22,6.61-0.52
						c0.22-0.04,0.44-0.08,0.66-0.12l0.31-0.06l0.17-0.06c0.21-0.08,0.39-0.16,0.53-0.24c0.28-0.16,0.43-0.31,0.54-0.42
						c-0.04-0.12-0.08-0.23-0.12-0.34l0.1,0.32c-0.13,0.09-0.3,0.18-0.52,0.26c0.28,0.08,0.6,0.13,0.94,0.15
						c0.03-0.38,0.02-0.87-0.01-1.34l-0.03-0.41c-0.01-0.26-0.03-0.51-0.04-0.77c-0.03-0.52-0.06-1.04-0.09-1.57
						c-0.13-2.1-0.3-4.21-0.34-6.05c0.57-4.75,1.23-7.89,0.82-15.92l0.48,0.27l0.25-6.49c0.08,1.61,0.28,0.95,0.38,0.61
						c0.14,0.47,0.04,0.8-0.02,1.94c0.72,0.41,1.71-2.92,2.23-6.53c-0.06,1.14-0.12,2.27-0.07,3.08c0.31-2.94,0.84-13.18,1.57-8.08
						C195.47-41.12,193.83-41.28,194-33.38z"/>
					<path class="st1" d="M181.83-58.55c6.21,0.4-1.76,0.5-0.39,1.01l-5.56,0.05C175.71-58.02,181.27-58.07,181.83-58.55z"/>
					<path class="st1" d="M86.01-4.06c-0.53-0.44-4.55-0.23-6.82-0.35c-4.49,0.35-5.57,0.87-12.06,0.62
						c5.04-1.31-5.33-1.59-9.94-2.4c3.21-0.16,9.12-0.93,14.19-0.26c-0.61,0.38,3.94,0.61,6.21,0.73c3.49-0.64-2.78-1.95,11.41-2.22
						c2.61,0.22,9.04-0.11,8.63,0.61c1.8,0.26,3.49-0.65,5.48-0.05l1,0.3l-8.84,0.45c-0.33-0.1-1-0.3-1.8-0.26
						c1.67,0.5-9.59,1.07-3.85,1.94l12.12-0.04c2.94,0.32-1.21,0.76-5.57,0.87C89.83-4.6,90.17-4.5,86.01-4.06z"/>
					<polygon class="st1" points="116.22,-5.72 116.88,-5.52 106.24,-5.33 					"/>
					<path class="st1" d="M157.09-8.98c2.82-0.84,9.97-0.4,12.32-1.1c-1.94-0.02-1.27,0.18-1.74,0.32l3.74,0.27
						C166.79-8.9,162.24-9.13,157.09-8.98z"/>
				</g>
			</g>
		</g>
		<g>
			<g>
				<rect x="103.57" y="-126.69" class="st1" width="139" height="53.5"/>
				<g>
					<path class="st1" d="M229.42-70.2c1.95-0.01-5.43-0.49-1.27-0.61c-2.89-0.36-8.91,0.11-12.56,0.04
						c-0.43-0.57,2.8-1.08-3.73-1.51c-8.74-0.32-1.1,1.16-8.91,1.22l5.34,0.15c-5.35,0.95-18.07,0.32-27.23,0.54
						c-6.87-0.67-13.08-2.07-22.05-1.79c0.49-0.09,2.7-0.29,2.26-0.59c-1.65-0.27-4.56-0.13-6.27-0.01c-4.69,0.65,1.31,0.9-0.45,1.4
						c-3.91,0.32-7.6,0.79-13.1,0.45l-6.82-1.24c-4.57,1.57-11.83,0.03-21.08,0.55c-0.64-0.29-2.24-0.33-4.13-0.3
						c-1.02,0.02-2.13,0.05-3.21,0.08c-1.41,0.02-2.8,0.04-4.04,0.05c0-2.09,0.07-3.84,0.31-4.56c0-0.39,0.01-0.6,0.02-0.82
						c0.02-0.21,0.04-0.4,0.07-0.56c0.06-0.33,0.15-0.56,0.25-0.73c0.21-0.34,0.51-0.41,0.82-0.46c0.63-0.1,1.33-0.1,1.64-1.86
						c0.52-6.15,0.37,4.26,0.89-1.89c0.15,3.12-0.31,3.79-0.82,4.53c-0.25,0.36-0.52,0.77-0.72,1.46c-0.21,0.5-0.35,1.4-0.37,2.8
						c0.39,0,0.83,0,1.32-0.02c-0.06-0.1-0.12-0.2-0.15-0.3c0.37-0.06,0.73-0.1,1.1-0.12c0.18-0.01,0.37-0.01,0.56-0.02
						c0.28,0,0.56,0,0.85,0c1.16,0.01,2.38,0.06,3.56,0.09c2.37,0.07,4.6,0.1,5.87-0.32c9.63,0.17-0.16,1.16,4.56,1.83
						c2.75-0.68,13.65-0.92,14.04-1.94l-7.49,0.01c1.21-0.03,0.28-0.24,0.77-0.33c5.17,0.97,18.78-2.97,14.97-0.03
						c-0.99,0.18-3.63,0.08-4.41,0.41c0.38,0.69,5.51,0.34,9.36,0.41c3.96-0.71,8.49-1.89,14.7-1.49c2.15,0.18,0.88,0.6,3.02,0.78
						c12.66-0.75,12.14,0.89,25.46,0.55c8.32,0.85,18.5,0.25,26.81,1.1c-1.27-0.61,5.51-0.28,7.21-0.2
						c1.18,0.28,5.77,0.72,9.08,0.56c-1.95,0.01-0.76,0.29-2.12,0.45c7.46-0.29,8.83,0.65,9.25,1.23
						C236.8-70.83,236.21-69.86,229.42-70.2z"/>
					<path class="st1" d="M101.83-99.88c1.24,1.49,0.4-12.64,1.79-5.99c0.23-4.55,0.01-6.63-0.35-9.18
						c-0.43,5.22-0.18-1.27-0.74,1.53c-0.07-2.22-0.15-4.43-0.22-6.63c-0.03-1.13-0.06-2.26-0.09-3.38
						c-0.02-1.53-0.05-3.06-0.07-4.58c3.49-0.05,6.94-0.09,10.37-0.13c2.96-0.02,5.91-0.04,8.83-0.05
						c5.84-0.01,11.61,0.02,17.31,0.07c11.57,0.92,21.81,0.05,32.88-0.87c6.82,0.35,2.39,1.28,0.84,1.94l8.57,0.03l-8.65,0.79
						c-0.28,0.48,3.6,0.51,5.75,0.87l2.41-0.12c-2.84,2.24-17.14-0.05-25.31,0.6c9.84-0.15-1.53-0.74,2.63-1.18l-3.08-0.08
						c2.75-0.02,8.17-0.65,15.27-0.78c-19.74-0.27-39.36,0.62-55.57,1.69c0.47-0.14,1.74-0.32,0.27-0.48
						c-2.65-0.02-4.81,0.22-6.61,0.52c-0.22,0.04-0.44,0.08-0.66,0.12l-0.31,0.06l-0.17,0.06c-0.21,0.08-0.39,0.16-0.53,0.24
						c-0.28,0.16-0.43,0.31-0.54,0.42c0.04,0.12,0.08,0.23,0.12,0.34l-0.1-0.32c0.13-0.09,0.3-0.18,0.52-0.26
						c-0.28-0.08-0.6-0.13-0.94-0.15c-0.03,0.38-0.02,0.87,0.01,1.34l0.03,0.41c0.01,0.26,0.03,0.51,0.04,0.77
						c0.03,0.52,0.06,1.04,0.09,1.57c0.13,2.1,0.3,4.21,0.34,6.05c-0.57,4.75-1.23,7.89-0.82,15.92l-0.48-0.27l-0.25,6.49
						c-0.08-1.61-0.28-0.95-0.38-0.61c-0.14-0.47-0.04-0.8,0.02-1.94c-0.72-0.41-1.71,2.92-2.23,6.53c0.06-1.14,0.12-2.27,0.07-3.08
						c-0.31,2.94-0.84,13.18-1.57,8.08C100.37-92.13,102-91.98,101.83-99.88z"/>
					<path class="st1" d="M114.01-74.71c-6.21-0.4,1.76-0.5,0.39-1.01l5.56-0.05C120.12-75.23,114.56-75.18,114.01-74.71z"/>
					<path class="st1" d="M209.82-129.2c0.53,0.44,4.55,0.23,6.82,0.35c4.49-0.35,5.57-0.87,12.06-0.62
						c-5.04,1.31,5.33,1.59,9.94,2.4c-3.21,0.16-9.12,0.93-14.19,0.26c0.61-0.38-3.94-0.61-6.21-0.73
						c-3.49,0.64,2.78,1.95-11.41,2.22c-2.61-0.22-9.04,0.11-8.63-0.61c-1.8-0.26-3.49,0.65-5.48,0.05l-1-0.3l8.84-0.45
						c0.33,0.1,1,0.3,1.8,0.26c-1.67-0.5,9.59-1.07,3.85-1.94l-12.12,0.04c-2.94-0.32,1.21-0.76,5.57-0.87
						C206-128.65,205.66-128.75,209.82-129.2z"/>
					<polygon class="st1" points="179.61,-127.53 178.95,-127.73 189.59,-127.93 					"/>
					<path class="st1" d="M245.36-119.88c-0.11-1.04-0.1-2.01-0.09-2.98c0-0.78,0-1.56,0-2.35c-0.01-0.87-0.04-1.74-0.09-2.6
						c0.31-0.38,0.61-0.78,0.92-1.2l-0.18,3.18l-0.09,1.53l-0.05,0.75l-0.02,0.37l-0.02,0.2L245.36-119.88z"/>
					<path class="st1" d="M138.74-124.27c-2.82,0.84-9.97,0.4-12.32,1.1c1.94,0.02,1.27-0.18,1.74-0.32l-3.74-0.27
						C129.04-124.36,133.59-124.12,138.74-124.27z"/>
					<path class="st1" d="M245.27-98.87c0.13,7.1,1.13,8.45,0.63,16.74c-0.26,1.8-0.46-2.22-0.68,0.39
						c-0.22,2.6,0.16,3.21,0.35,4.49l0.3-1c-0.6,2-1.09,8.35-2.07,5.06c0.28-10.37-1.94-15.14-0.96-23.17l0.98-1.4l-0.25-4.82
						c0.1-0.33,0.34-0.19,0.26-1.8c-0.41-3.35-0.46,2.47-0.94,2.2l-0.59-9.31c0.06-1.14,0.28,0.94,0.38,0.61
						c0.47-4.41-0.95-7.17-0.1-10.98l0.53,5.76c0.03-2.02,0.09-3.89,0.17-5.65c0.09-2.1,0.18-4.05,0.27-5.91
						c-1.46-0.08-2.87-0.15-4.23-0.22c-1.09-0.07-2.15-0.15-3.2-0.22c0.58,0,1.14,0.01,1.7,0.01c0.61,0,1.21-0.01,1.8-0.01
						c1.53-0.03,3.01-0.06,4.45-0.09c0.03,0.89,0.06,1.76,0.09,2.62c0.04,0.86,0.08,1.71,0.11,2.55c0.09,1.18,0.19,2.33,0.28,3.46
						c0.2,2.26,0.39,4.43,0.59,6.61C245.49-108.58,245.68-104.16,245.27-98.87z"/>
				</g>
			</g>
			<g>
				<rect x="257.57" y="-126.69" class="st1" width="139" height="53.5"/>
				<g>
					<path class="st1" d="M270.72-129.68c-1.95,0.01,5.43,0.49,1.27,0.61c2.89,0.36,8.91-0.11,12.56-0.04
						c0.43,0.57-2.8,1.08,3.73,1.51c8.74,0.32,1.1-1.16,8.91-1.22l-5.34-0.15c5.35-0.95,18.07-0.32,27.23-0.54
						c6.87,0.67,13.08,2.07,22.05,1.79c-0.49,0.09-2.7,0.29-2.26,0.59c1.65,0.27,4.56,0.13,6.27,0.01c4.69-0.65-1.31-0.9,0.45-1.4
						c3.91-0.32,7.6-0.79,13.1-0.45l6.82,1.24c4.57-1.57,11.83-0.03,21.08-0.55c0.64,0.29,2.24,0.33,4.13,0.3
						c1.02-0.02,2.13-0.05,3.21-0.08c1.41-0.02,2.8-0.04,4.04-0.05c0,2.09-0.07,3.84-0.31,4.56c0,0.39-0.01,0.6-0.02,0.82
						c-0.02,0.21-0.04,0.4-0.07,0.56c-0.06,0.33-0.15,0.56-0.25,0.73c-0.21,0.34-0.51,0.41-0.82,0.46c-0.63,0.1-1.33,0.1-1.64,1.86
						c-0.52,6.15-0.37-4.26-0.89,1.89c-0.15-3.12,0.31-3.79,0.82-4.53c0.25-0.36,0.52-0.77,0.72-1.46c0.21-0.5,0.35-1.4,0.37-2.8
						c-0.39,0-0.83,0-1.32,0.02c0.06,0.1,0.12,0.2,0.15,0.3c-0.37,0.06-0.73,0.1-1.1,0.12c-0.18,0.01-0.37,0.01-0.56,0.02
						c-0.28,0-0.56,0-0.85,0c-1.16-0.01-2.38-0.06-3.56-0.09c-2.37-0.07-4.6-0.1-5.87,0.32c-9.63-0.17,0.16-1.16-4.56-1.83
						c-2.75,0.68-13.65,0.92-14.04,1.94l7.49-0.01c-1.21,0.03-0.28,0.24-0.77,0.33c-5.17-0.97-18.78,2.97-14.97,0.03
						c0.99-0.18,3.63-0.08,4.41-0.41c-0.38-0.69-5.51-0.34-9.36-0.41c-3.96,0.71-8.49,1.89-14.7,1.49c-2.15-0.18-0.88-0.6-3.02-0.78
						c-12.66,0.75-12.14-0.89-25.46-0.55c-8.32-0.85-18.5-0.25-26.81-1.1c1.27,0.61-5.51,0.28-7.21,0.2
						c-1.18-0.28-5.77-0.72-9.08-0.56c1.95-0.01,0.76-0.29,2.12-0.45c-7.46,0.29-8.83-0.65-9.25-1.23
						C263.35-129.05,263.93-130.02,270.72-129.68z"/>
					<path class="st1" d="M398.32-100c-1.24-1.49-0.4,12.64-1.79,5.99c-0.23,4.55-0.01,6.63,0.35,9.18
						c0.43-5.22,0.18,1.27,0.74-1.53c0.07,2.22,0.15,4.43,0.22,6.63c0.03,1.13,0.06,2.26,0.09,3.38c0.02,1.53,0.05,3.06,0.07,4.58
						c-3.49,0.05-6.94,0.09-10.37,0.13c-2.96,0.02-5.91,0.04-8.83,0.05c-5.84,0.01-11.61-0.02-17.31-0.07
						c-11.57-0.92-21.81-0.05-32.88,0.87c-6.82-0.35-2.39-1.28-0.84-1.94l-8.57-0.03l8.65-0.79c0.28-0.48-3.6-0.51-5.75-0.87
						l-2.41,0.12c2.84-2.24,17.14,0.05,25.31-0.6c-9.84,0.15,1.53,0.74-2.63,1.18l3.08,0.08c-2.75,0.02-8.17,0.65-15.27,0.78
						c19.74,0.27,39.36-0.62,55.57-1.69c-0.47,0.14-1.74,0.32-0.27,0.48c2.65,0.02,4.81-0.22,6.61-0.52
						c0.22-0.04,0.44-0.08,0.66-0.12l0.31-0.06l0.17-0.06c0.21-0.08,0.39-0.16,0.53-0.24c0.28-0.16,0.43-0.31,0.54-0.42
						c-0.04-0.12-0.08-0.23-0.12-0.34l0.1,0.32c-0.13,0.09-0.3,0.18-0.52,0.26c0.28,0.08,0.6,0.13,0.94,0.15
						c0.03-0.38,0.02-0.87-0.01-1.34l-0.03-0.41c-0.01-0.26-0.03-0.51-0.04-0.77c-0.03-0.52-0.06-1.04-0.09-1.57
						c-0.13-2.1-0.3-4.21-0.34-6.05c0.57-4.75,1.23-7.89,0.82-15.92l0.48,0.27l0.25-6.49c0.08,1.61,0.28,0.95,0.38,0.61
						c0.14,0.47,0.04,0.8-0.02,1.94c0.72,0.41,1.71-2.92,2.23-6.53c-0.06,1.14-0.12,2.27-0.07,3.08c0.31-2.94,0.84-13.18,1.57-8.08
						C399.78-107.75,398.14-107.9,398.32-100z"/>
					<path class="st1" d="M386.14-125.17c6.21,0.4-1.76,0.5-0.39,1.01l-5.56,0.05C380.02-124.65,385.58-124.7,386.14-125.17z"/>
					<path class="st1" d="M290.32-70.68c-0.53-0.44-4.55-0.23-6.82-0.35c-4.49,0.35-5.57,0.87-12.06,0.62
						c5.04-1.31-5.33-1.59-9.94-2.4c3.21-0.16,9.12-0.93,14.19-0.26c-0.61,0.38,3.94,0.61,6.21,0.73c3.49-0.64-2.78-1.95,11.41-2.22
						c2.61,0.22,9.04-0.11,8.63,0.61c1.8,0.26,3.49-0.65,5.48-0.05l1,0.3l-8.84,0.45c-0.33-0.1-1-0.3-1.8-0.26
						c1.67,0.5-9.59,1.07-3.85,1.94l12.12-0.04c2.94,0.32-1.21,0.76-5.57,0.87C294.14-71.23,294.48-71.13,290.32-70.68z"/>
					<polygon class="st1" points="320.53,-72.35 321.19,-72.15 310.55,-71.95 					"/>
					<path class="st1" d="M254.79-80c0.11,1.04,0.1,2.01,0.09,2.98c0,0.78,0,1.56,0,2.35c0.01,0.87,0.04,1.74,0.09,2.6
						c-0.31,0.38-0.61,0.78-0.92,1.2l0.18-3.18l0.09-1.53l0.05-0.75l0.02-0.37l0.02-0.2L254.79-80z"/>
					<path class="st1" d="M361.41-75.61c2.82-0.84,9.97-0.4,12.32-1.1c-1.94-0.02-1.27,0.18-1.74,0.32l3.74,0.27
						C371.1-75.53,366.56-75.76,361.41-75.61z"/>
					<path class="st1" d="M254.87-101.01c-0.13-7.1-1.13-8.45-0.63-16.74c0.26-1.8,0.46,2.22,0.68-0.39
						c0.22-2.6-0.16-3.21-0.35-4.49l-0.3,1c0.6-2,1.09-8.35,2.07-5.06c-0.28,10.37,1.94,15.14,0.96,23.17l-0.98,1.4l0.25,4.82
						c-0.1,0.33-0.34,0.19-0.26,1.8c0.41,3.35,0.46-2.47,0.94-2.2l0.59,9.31c-0.06,1.14-0.28-0.94-0.38-0.61
						c-0.47,4.41,0.95,7.17,0.1,10.98l-0.53-5.76c-0.03,2.02-0.09,3.89-0.17,5.65c-0.09,2.1-0.18,4.05-0.27,5.91
						c1.46,0.08,2.87,0.15,4.23,0.22c1.09,0.07,2.15,0.15,3.2,0.22c-0.58,0-1.14-0.01-1.7-0.01c-0.61,0-1.21,0.01-1.8,0.01
						c-1.53,0.03-3.01,0.06-4.45,0.09c-0.03-0.89-0.06-1.76-0.09-2.62c-0.04-0.86-0.08-1.71-0.11-2.55
						c-0.09-1.18-0.19-2.33-0.28-3.46c-0.2-2.26-0.39-4.43-0.59-6.61C254.66-91.3,254.46-95.72,254.87-101.01z"/>
				</g>
			</g>
		</g>
		<g>
			<g>
				<rect x="307.89" y="-193.32" class="st1" width="139" height="53.5"/>
				<g>
					<path class="st1" d="M433.74-136.82c1.95-0.01-5.43-0.49-1.27-0.61c-2.89-0.36-8.91,0.11-12.56,0.04
						c-0.43-0.57,2.8-1.08-3.73-1.51c-8.74-0.32-1.1,1.16-8.91,1.22l5.34,0.15c-5.35,0.95-18.07,0.32-27.23,0.54
						c-6.87-0.67-13.08-2.07-22.05-1.79c0.49-0.09,2.7-0.29,2.26-0.59c-1.65-0.27-4.56-0.13-6.27-0.01c-4.69,0.65,1.31,0.9-0.45,1.4
						c-3.91,0.32-7.6,0.79-13.1,0.45l-6.82-1.24c-4.57,1.57-11.83,0.03-21.08,0.55c-0.64-0.29-2.24-0.33-4.13-0.3
						c-1.02,0.02-2.13,0.05-3.21,0.08c-1.41,0.02-2.8,0.04-4.04,0.05c0-2.09,0.07-3.84,0.31-4.56c0-0.39,0.01-0.6,0.02-0.82
						c0.02-0.21,0.04-0.4,0.07-0.56c0.06-0.33,0.15-0.56,0.25-0.73c0.21-0.34,0.51-0.41,0.82-0.46c0.63-0.1,1.33-0.1,1.64-1.86
						c0.52-6.15,0.37,4.26,0.89-1.89c0.15,3.12-0.31,3.79-0.82,4.53c-0.25,0.36-0.52,0.77-0.72,1.46c-0.21,0.5-0.35,1.4-0.37,2.8
						c0.39,0,0.83,0,1.32-0.02c-0.06-0.1-0.12-0.2-0.15-0.3c0.37-0.06,0.73-0.1,1.1-0.12c0.18-0.01,0.37-0.01,0.56-0.02
						c0.28,0,0.56,0,0.85,0c1.16,0.01,2.38,0.06,3.56,0.09c2.37,0.07,4.6,0.1,5.87-0.32c9.63,0.17-0.16,1.16,4.56,1.83
						c2.75-0.68,13.65-0.92,14.04-1.94l-7.49,0.01c1.21-0.03,0.28-0.24,0.77-0.33c5.17,0.97,18.78-2.97,14.97-0.03
						c-0.99,0.18-3.63,0.08-4.41,0.41c0.38,0.69,5.51,0.34,9.36,0.41c3.96-0.71,8.49-1.89,14.7-1.49c2.15,0.18,0.88,0.6,3.02,0.78
						c12.66-0.75,12.14,0.89,25.46,0.55c8.32,0.85,18.5,0.25,26.81,1.1c-1.27-0.61,5.51-0.28,7.21-0.2
						c1.18,0.28,5.77,0.72,9.08,0.56c-1.95,0.01-0.76,0.29-2.12,0.45c7.46-0.29,8.83,0.65,9.25,1.23
						C441.11-137.45,440.53-136.49,433.74-136.82z"/>
					<path class="st1" d="M306.15-166.51c1.24,1.49,0.4-12.64,1.79-5.99c0.23-4.55,0.01-6.63-0.35-9.18
						c-0.43,5.22-0.18-1.27-0.74,1.53c-0.07-2.22-0.15-4.43-0.22-6.63c-0.03-1.13-0.06-2.26-0.09-3.38
						c-0.02-1.53-0.05-3.06-0.07-4.58c3.49-0.05,6.94-0.09,10.37-0.13c2.96-0.02,5.91-0.04,8.83-0.05
						c5.84-0.01,11.61,0.02,17.31,0.07c11.57,0.92,21.81,0.05,32.88-0.87c6.82,0.35,2.39,1.28,0.84,1.94l8.57,0.03l-8.65,0.79
						c-0.28,0.48,3.6,0.51,5.75,0.87l2.41-0.12c-2.84,2.24-17.14-0.05-25.31,0.6c9.84-0.15-1.53-0.74,2.63-1.18l-3.08-0.08
						c2.75-0.02,8.17-0.65,15.27-0.78c-19.74-0.27-39.36,0.62-55.57,1.69c0.47-0.14,1.74-0.32,0.27-0.48
						c-2.65-0.02-4.81,0.22-6.61,0.52c-0.22,0.04-0.44,0.08-0.66,0.12l-0.31,0.06l-0.17,0.06c-0.21,0.08-0.39,0.16-0.53,0.24
						c-0.28,0.16-0.43,0.31-0.54,0.42c0.04,0.12,0.08,0.23,0.12,0.34l-0.1-0.32c0.13-0.09,0.3-0.18,0.52-0.26
						c-0.28-0.08-0.6-0.13-0.94-0.15c-0.03,0.38-0.02,0.87,0.01,1.34l0.03,0.41c0.01,0.26,0.03,0.51,0.04,0.77
						c0.03,0.52,0.06,1.04,0.09,1.57c0.13,2.1,0.3,4.21,0.34,6.05c-0.57,4.75-1.23,7.89-0.82,15.92l-0.48-0.27l-0.25,6.49
						c-0.08-1.61-0.28-0.95-0.38-0.61c-0.14-0.47-0.04-0.8,0.02-1.94c-0.72-0.41-1.71,2.92-2.23,6.53c0.06-1.14,0.12-2.27,0.07-3.08
						c-0.31,2.94-0.84,13.18-1.57,8.08C304.68-158.76,306.32-158.6,306.15-166.51z"/>
					<path class="st1" d="M318.32-141.33c-6.21-0.4,1.76-0.5,0.39-1.01l5.56-0.05C324.44-141.86,318.88-141.81,318.32-141.33z"/>
					<path class="st1" d="M414.14-195.82c0.53,0.44,4.55,0.23,6.82,0.35c4.49-0.35,5.57-0.87,12.06-0.62
						c-5.04,1.31,5.33,1.59,9.94,2.4c-3.21,0.16-9.12,0.93-14.19,0.26c0.61-0.38-3.94-0.61-6.21-0.73
						c-3.49,0.64,2.78,1.95-11.41,2.22c-2.61-0.22-9.04,0.11-8.63-0.61c-1.8-0.26-3.49,0.65-5.48,0.05l-1-0.3l8.84-0.45
						c0.33,0.1,1,0.3,1.8,0.26c-1.67-0.5,9.59-1.07,3.85-1.94l-12.12,0.04c-2.94-0.32,1.21-0.76,5.57-0.87
						C410.32-195.28,409.98-195.38,414.14-195.82z"/>
					<polygon class="st1" points="383.93,-194.16 383.27,-194.36 393.91,-194.55 					"/>
					<path class="st1" d="M343.05-190.9c-2.82,0.84-9.97,0.4-12.32,1.1c1.94,0.02,1.27-0.18,1.74-0.32l-3.74-0.27
						C333.36-190.98,337.9-190.75,343.05-190.9z"/>
				</g>
			</g>
		</g>
		<g>
			<g>
				<rect x="1.42" y="-193.32" class="st1" width="139" height="53.5"/>
				<g>
					<path class="st1" d="M127.27-136.82c1.95-0.01-5.43-0.49-1.27-0.61c-2.89-0.36-8.91,0.11-12.56,0.04
						c-0.43-0.57,2.8-1.08-3.73-1.51c-8.74-0.32-1.1,1.16-8.91,1.22l5.34,0.15c-5.35,0.95-18.07,0.32-27.23,0.54
						c-6.87-0.67-13.08-2.07-22.05-1.79c0.49-0.09,2.7-0.29,2.26-0.59c-1.65-0.27-4.56-0.13-6.27-0.01c-4.69,0.65,1.31,0.9-0.45,1.4
						c-3.91,0.32-7.6,0.79-13.1,0.45l-6.82-1.24c-4.57,1.57-11.83,0.03-21.08,0.55c-0.64-0.29-2.24-0.33-4.13-0.3
						c-1.02,0.02-2.13,0.05-3.21,0.08c-1.41,0.02-2.8,0.04-4.04,0.05c0-2.09,0.07-3.84,0.31-4.56c0-0.39,0.01-0.6,0.02-0.82
						c0.02-0.21,0.04-0.4,0.07-0.56c0.06-0.33,0.15-0.56,0.25-0.73c0.21-0.34,0.51-0.41,0.82-0.46c0.63-0.1,1.33-0.1,1.64-1.86
						c0.52-6.15,0.37,4.26,0.89-1.89c0.15,3.12-0.31,3.79-0.82,4.53c-0.25,0.36-0.52,0.77-0.72,1.46c-0.21,0.5-0.35,1.4-0.37,2.8
						c0.39,0,0.83,0,1.32-0.02c-0.06-0.1-0.12-0.2-0.15-0.3c0.37-0.06,0.73-0.1,1.1-0.12c0.18-0.01,0.37-0.01,0.56-0.02
						c0.28,0,0.56,0,0.85,0c1.16,0.01,2.38,0.06,3.56,0.09c2.37,0.07,4.6,0.1,5.87-0.32c9.63,0.17-0.16,1.16,4.56,1.83
						c2.75-0.68,13.65-0.92,14.04-1.94l-7.49,0.01c1.21-0.03,0.28-0.24,0.77-0.33c5.17,0.97,18.78-2.97,14.97-0.03
						c-0.99,0.18-3.63,0.08-4.41,0.41c0.38,0.69,5.51,0.34,9.36,0.41c3.96-0.71,8.49-1.89,14.7-1.49c2.15,0.18,0.88,0.6,3.02,0.78
						c12.66-0.75,12.14,0.89,25.46,0.55c8.32,0.85,18.5,0.25,26.81,1.1c-1.27-0.61,5.51-0.28,7.21-0.2
						c1.18,0.28,5.77,0.72,9.08,0.56c-1.95,0.01-0.76,0.29-2.12,0.45c7.46-0.29,8.83,0.65,9.25,1.23
						C134.64-137.45,134.06-136.49,127.27-136.82z"/>
					<path class="st1" d="M107.67-195.82c0.53,0.44,4.55,0.23,6.82,0.35c4.49-0.35,5.57-0.87,12.06-0.62
						c-5.04,1.31,5.33,1.59,9.94,2.4c-3.21,0.16-9.12,0.93-14.19,0.26c0.61-0.38-3.94-0.61-6.21-0.73
						c-3.49,0.64,2.78,1.95-11.41,2.22c-2.61-0.22-9.04,0.11-8.63-0.61c-1.8-0.26-3.49,0.65-5.48,0.05l-1-0.3l8.84-0.45
						c0.33,0.1,1,0.3,1.8,0.26c-1.67-0.5,9.59-1.07,3.85-1.94l-12.12,0.04c-2.94-0.32,1.21-0.76,5.57-0.87
						C103.85-195.28,103.51-195.38,107.67-195.82z"/>
					<path class="st1" d="M143.2-186.51c-0.11-1.04-0.1-2.01-0.09-2.98c0-0.78,0-1.56,0-2.35c-0.01-0.87-0.04-1.74-0.09-2.6
						c0.31-0.38,0.61-0.78,0.92-1.2l-0.18,3.18l-0.09,1.53l-0.05,0.75l-0.02,0.37l-0.02,0.2L143.2-186.51z"/>
					<path class="st1" d="M143.12-165.49c0.13,7.1,1.13,8.45,0.63,16.74c-0.26,1.8-0.46-2.22-0.68,0.39
						c-0.22,2.6,0.16,3.21,0.35,4.49l0.3-1c-0.6,2-1.09,8.35-2.07,5.06c0.28-10.37-1.94-15.14-0.96-23.17l0.98-1.4l-0.25-4.82
						c0.1-0.33,0.34-0.19,0.26-1.8c-0.41-3.35-0.46,2.47-0.94,2.2l-0.59-9.31c0.06-1.14,0.28,0.94,0.38,0.61
						c0.47-4.41-0.95-7.17-0.1-10.98l0.53,5.76c0.03-2.02,0.09-3.89,0.17-5.65c0.09-2.1,0.18-4.05,0.27-5.91
						c-1.46-0.08-2.87-0.15-4.23-0.22c-1.09-0.07-2.15-0.15-3.2-0.22c0.58,0,1.14,0.01,1.7,0.01c0.61,0,1.21-0.01,1.8-0.01
						c1.53-0.03,3.01-0.06,4.45-0.09c0.03,0.89,0.06,1.76,0.09,2.62c0.04,0.86,0.08,1.71,0.11,2.55c0.09,1.18,0.19,2.33,0.28,3.46
						c0.2,2.26,0.39,4.43,0.59,6.61C143.33-175.21,143.53-170.79,143.12-165.49z"/>
				</g>
			</g>
			<g>
				<rect x="155.42" y="-193.32" class="st1" width="139" height="53.5"/>
				<g>
					<path class="st1" d="M168.57-196.31c-1.95,0.01,5.43,0.49,1.27,0.61c2.89,0.36,8.91-0.11,12.56-0.04
						c0.43,0.57-2.8,1.08,3.73,1.51c8.74,0.32,1.1-1.16,8.91-1.22l-5.34-0.15c5.35-0.95,18.07-0.32,27.23-0.54
						c6.87,0.67,13.08,2.07,22.05,1.79c-0.49,0.09-2.7,0.29-2.26,0.59c1.65,0.27,4.56,0.13,6.27,0.01c4.69-0.65-1.31-0.9,0.45-1.4
						c3.91-0.32,7.6-0.79,13.1-0.45l6.82,1.24c4.57-1.57,11.83-0.03,21.08-0.55c0.64,0.29,2.24,0.33,4.13,0.3
						c1.02-0.02,2.13-0.05,3.21-0.08c1.41-0.02,2.8-0.04,4.04-0.05c0,2.09-0.07,3.84-0.31,4.56c0,0.39-0.01,0.6-0.02,0.82
						c-0.02,0.21-0.04,0.4-0.07,0.56c-0.06,0.33-0.15,0.56-0.25,0.73c-0.21,0.34-0.51,0.41-0.82,0.46c-0.63,0.1-1.33,0.1-1.64,1.86
						c-0.52,6.15-0.37-4.26-0.89,1.89c-0.15-3.12,0.31-3.79,0.82-4.53c0.25-0.36,0.52-0.77,0.72-1.46c0.21-0.5,0.35-1.4,0.37-2.8
						c-0.39,0-0.83,0-1.32,0.02c0.06,0.1,0.12,0.2,0.15,0.3c-0.37,0.06-0.73,0.1-1.1,0.12c-0.18,0.01-0.37,0.01-0.56,0.02
						c-0.28,0-0.56,0-0.85,0c-1.16-0.01-2.38-0.06-3.56-0.09c-2.37-0.07-4.6-0.1-5.87,0.32c-9.63-0.17,0.16-1.16-4.56-1.83
						c-2.75,0.68-13.65,0.92-14.04,1.94l7.49-0.01c-1.21,0.03-0.28,0.24-0.77,0.33c-5.17-0.97-18.78,2.97-14.97,0.03
						c0.99-0.18,3.63-0.08,4.41-0.41c-0.38-0.69-5.51-0.34-9.36-0.41c-3.96,0.71-8.49,1.89-14.7,1.49c-2.15-0.18-0.88-0.6-3.02-0.78
						c-12.66,0.75-12.14-0.89-25.46-0.55c-8.32-0.85-18.5-0.25-26.81-1.1c1.27,0.61-5.51,0.28-7.21,0.2
						c-1.18-0.28-5.77-0.72-9.08-0.56c1.95-0.01,0.76-0.29,2.12-0.45c-7.46,0.29-8.83-0.65-9.25-1.23
						C161.19-195.68,161.78-196.65,168.57-196.31z"/>
					<path class="st1" d="M296.16-166.63c-1.24-1.49-0.4,12.64-1.79,5.99c-0.23,4.55-0.01,6.63,0.35,9.18
						c0.43-5.22,0.18,1.27,0.74-1.53c0.07,2.22,0.15,4.43,0.22,6.63c0.03,1.13,0.06,2.26,0.09,3.38c0.02,1.53,0.05,3.06,0.07,4.58
						c-3.49,0.05-6.94,0.09-10.37,0.13c-2.96,0.02-5.91,0.04-8.83,0.05c-5.84,0.01-11.61-0.02-17.31-0.07
						c-11.57-0.92-21.81-0.05-32.88,0.87c-6.82-0.35-2.39-1.28-0.84-1.94l-8.57-0.03l8.65-0.79c0.28-0.48-3.6-0.51-5.75-0.87
						l-2.41,0.12c2.84-2.24,17.14,0.05,25.31-0.6c-9.84,0.15,1.53,0.74-2.63,1.18l3.08,0.08c-2.75,0.02-8.17,0.65-15.27,0.78
						c19.74,0.27,39.36-0.62,55.57-1.69c-0.47,0.14-1.74,0.32-0.27,0.48c2.65,0.02,4.81-0.22,6.61-0.52
						c0.22-0.04,0.44-0.08,0.66-0.12l0.31-0.06l0.17-0.06c0.21-0.08,0.39-0.16,0.53-0.24c0.28-0.16,0.43-0.31,0.54-0.42
						c-0.04-0.12-0.08-0.23-0.12-0.34l0.1,0.32c-0.13,0.09-0.3,0.18-0.52,0.26c0.28,0.08,0.6,0.13,0.94,0.15
						c0.03-0.38,0.02-0.87-0.01-1.34l-0.03-0.41c-0.01-0.26-0.03-0.51-0.04-0.77c-0.03-0.52-0.06-1.04-0.09-1.57
						c-0.13-2.1-0.3-4.21-0.34-6.05c0.57-4.75,1.23-7.89,0.82-15.92l0.48,0.27l0.25-6.49c0.08,1.61,0.28,0.95,0.38,0.61
						c0.14,0.47,0.04,0.8-0.02,1.94c0.72,0.41,1.71-2.92,2.23-6.53c-0.06,1.14-0.12,2.27-0.07,3.08c0.31-2.94,0.84-13.18,1.57-8.08
						C297.62-174.38,295.99-174.53,296.16-166.63z"/>
					<path class="st1" d="M283.98-191.8c6.21,0.4-1.76,0.5-0.39,1.01l-5.56,0.05C277.87-191.28,283.43-191.32,283.98-191.8z"/>
					<path class="st1" d="M188.17-137.31c-0.53-0.44-4.55-0.23-6.82-0.35c-4.49,0.35-5.57,0.87-12.06,0.62
						c5.04-1.31-5.33-1.59-9.94-2.4c3.21-0.16,9.12-0.93,14.19-0.26c-0.61,0.38,3.94,0.61,6.21,0.73c3.49-0.64-2.78-1.95,11.41-2.22
						c2.61,0.22,9.04-0.11,8.63,0.61c1.8,0.26,3.49-0.65,5.48-0.05l1,0.3l-8.84,0.45c-0.33-0.1-1-0.3-1.8-0.26
						c1.67,0.5-9.59,1.07-3.85,1.94l12.12-0.04c2.94,0.32-1.21,0.76-5.57,0.87C191.99-137.86,192.32-137.76,188.17-137.31z"/>
					<polygon class="st1" points="218.38,-138.98 219.04,-138.78 208.39,-138.58 					"/>
					<path class="st1" d="M152.63-146.63c0.11,1.04,0.1,2.01,0.09,2.98c0,0.78,0,1.56,0,2.35c0.01,0.87,0.04,1.74,0.09,2.6
						c-0.31,0.38-0.61,0.78-0.92,1.2l0.18-3.18l0.09-1.53l0.05-0.75l0.02-0.37l0.02-0.2L152.63-146.63z"/>
					<path class="st1" d="M259.25-142.24c2.82-0.84,9.97-0.4,12.32-1.1c-1.94-0.02-1.27,0.18-1.74,0.32l3.74,0.27
						C268.95-142.15,264.4-142.38,259.25-142.24z"/>
					<path class="st1" d="M152.72-167.64c-0.13-7.1-1.13-8.45-0.63-16.74c0.26-1.8,0.46,2.22,0.68-0.39
						c0.22-2.6-0.16-3.21-0.35-4.49l-0.3,1c0.6-2,1.09-8.35,2.07-5.06c-0.28,10.37,1.94,15.14,0.96,23.17l-0.98,1.4l0.25,4.82
						c-0.1,0.33-0.34,0.19-0.26,1.8c0.41,3.35,0.46-2.47,0.94-2.2l0.59,9.31c-0.06,1.14-0.28-0.94-0.38-0.61
						c-0.47,4.41,0.95,7.17,0.1,10.98l-0.53-5.76c-0.03,2.02-0.09,3.89-0.17,5.65c-0.09,2.1-0.18,4.05-0.27,5.91
						c1.46,0.08,2.87,0.15,4.23,0.22c1.09,0.07,2.15,0.15,3.2,0.22c-0.58,0-1.14-0.01-1.7-0.01c-0.61,0-1.21,0.01-1.8,0.01
						c-1.53,0.03-3.01,0.06-4.45,0.09c-0.03-0.89-0.06-1.76-0.09-2.62c-0.04-0.86-0.08-1.71-0.11-2.55
						c-0.09-1.18-0.19-2.33-0.28-3.46c-0.2-2.26-0.39-4.43-0.59-6.61C152.5-157.93,152.31-162.35,152.72-167.64z"/>
				</g>
			</g>
		</g>
	</g>
</pattern>
<g id="背面">
	<rect x="-0.5" y="0.5" class="st2" width="1243" height="2208"/>
</g>
<g id="レンガ">
	<rect x="-0.5" y="0.5" class="st3" width="1243" height="2208"/>
</g>
</svg>
